<svg width="365" height="312" viewBox="0 0 365 312" fill="none" xmlns="http://www.w3.org/2000/svg">
<path d="M75.779 283.744H66.883L65.411 288H60.707L68.739 265.632H73.955L81.987 288H77.251L75.779 283.744ZM74.563 280.16L71.331 270.816L68.099 280.16H74.563ZM84.0872 279.136C84.0872 277.301 84.4606 275.701 85.2073 274.336C85.9539 272.949 86.9886 271.883 88.3113 271.136C89.6339 270.368 91.1486 269.984 92.8553 269.984C95.0526 269.984 96.8659 270.539 98.2953 271.648C99.7459 272.736 100.717 274.272 101.207 276.256H96.3753C96.1193 275.488 95.6819 274.891 95.0633 274.464C94.4659 274.016 93.7193 273.792 92.8233 273.792C91.5433 273.792 90.5299 274.261 89.7833 275.2C89.0366 276.117 88.6633 277.429 88.6633 279.136C88.6633 280.821 89.0366 282.133 89.7833 283.072C90.5299 283.989 91.5433 284.448 92.8233 284.448C94.6366 284.448 95.8206 283.637 96.3753 282.016H101.207C100.717 283.936 99.7459 285.461 98.2953 286.592C96.8446 287.723 95.0313 288.288 92.8553 288.288C91.1486 288.288 89.6339 287.915 88.3113 287.168C86.9886 286.4 85.9539 285.333 85.2073 283.968C84.4606 282.581 84.0872 280.971 84.0872 279.136ZM103.587 279.136C103.587 277.301 103.961 275.701 104.707 274.336C105.454 272.949 106.489 271.883 107.811 271.136C109.134 270.368 110.649 269.984 112.355 269.984C114.553 269.984 116.366 270.539 117.795 271.648C119.246 272.736 120.217 274.272 120.707 276.256H115.875C115.619 275.488 115.182 274.891 114.563 274.464C113.966 274.016 113.219 273.792 112.323 273.792C111.043 273.792 110.03 274.261 109.283 275.2C108.537 276.117 108.163 277.429 108.163 279.136C108.163 280.821 108.537 282.133 109.283 283.072C110.03 283.989 111.043 284.448 112.323 284.448C114.137 284.448 115.321 283.637 115.875 282.016H120.707C120.217 283.936 119.246 285.461 117.795 286.592C116.345 287.723 114.531 288.288 112.355 288.288C110.649 288.288 109.134 287.915 107.811 287.168C106.489 286.4 105.454 285.333 104.707 283.968C103.961 282.581 103.587 280.971 103.587 279.136ZM140.719 278.752C140.719 279.392 140.677 279.968 140.591 280.48H127.631C127.738 281.76 128.186 282.763 128.975 283.488C129.765 284.213 130.735 284.576 131.887 284.576C133.551 284.576 134.735 283.861 135.439 282.432H140.271C139.759 284.139 138.778 285.547 137.327 286.656C135.877 287.744 134.095 288.288 131.983 288.288C130.277 288.288 128.741 287.915 127.375 287.168C126.031 286.4 124.975 285.323 124.207 283.936C123.461 282.549 123.087 280.949 123.087 279.136C123.087 277.301 123.461 275.691 124.207 274.304C124.954 272.917 125.999 271.851 127.343 271.104C128.687 270.357 130.234 269.984 131.983 269.984C133.669 269.984 135.173 270.347 136.495 271.072C137.839 271.797 138.874 272.832 139.599 274.176C140.346 275.499 140.719 277.024 140.719 278.752ZM136.079 277.472C136.058 276.32 135.642 275.403 134.831 274.72C134.021 274.016 133.029 273.664 131.855 273.664C130.746 273.664 129.807 274.005 129.039 274.688C128.293 275.349 127.834 276.277 127.663 277.472H136.079ZM151.023 288.288C149.573 288.288 148.271 288.032 147.119 287.52C145.967 286.987 145.05 286.272 144.367 285.376C143.706 284.48 143.343 283.488 143.279 282.4H147.791C147.877 283.083 148.207 283.648 148.783 284.096C149.381 284.544 150.117 284.768 150.991 284.768C151.845 284.768 152.506 284.597 152.975 284.256C153.466 283.915 153.711 283.477 153.711 282.944C153.711 282.368 153.413 281.941 152.815 281.664C152.239 281.365 151.311 281.045 150.031 280.704C148.709 280.384 147.621 280.053 146.767 279.712C145.935 279.371 145.21 278.848 144.591 278.144C143.994 277.44 143.695 276.491 143.695 275.296C143.695 274.315 143.973 273.419 144.527 272.608C145.103 271.797 145.914 271.157 146.959 270.688C148.026 270.219 149.274 269.984 150.703 269.984C152.815 269.984 154.501 270.517 155.759 271.584C157.018 272.629 157.711 274.048 157.839 275.84H153.551C153.487 275.136 153.189 274.581 152.655 274.176C152.143 273.749 151.45 273.536 150.575 273.536C149.765 273.536 149.135 273.685 148.687 273.984C148.261 274.283 148.047 274.699 148.047 275.232C148.047 275.829 148.346 276.288 148.943 276.608C149.541 276.907 150.469 277.216 151.727 277.536C153.007 277.856 154.063 278.187 154.895 278.528C155.727 278.869 156.442 279.403 157.039 280.128C157.658 280.832 157.978 281.771 157.999 282.944C157.999 283.968 157.711 284.885 157.135 285.696C156.581 286.507 155.77 287.147 154.703 287.616C153.658 288.064 152.431 288.288 151.023 288.288ZM168.711 288.288C167.26 288.288 165.959 288.032 164.807 287.52C163.655 286.987 162.737 286.272 162.055 285.376C161.393 284.48 161.031 283.488 160.967 282.4H165.479C165.564 283.083 165.895 283.648 166.471 284.096C167.068 284.544 167.804 284.768 168.679 284.768C169.532 284.768 170.193 284.597 170.663 284.256C171.153 283.915 171.399 283.477 171.399 282.944C171.399 282.368 171.1 281.941 170.503 281.664C169.927 281.365 168.999 281.045 167.719 280.704C166.396 280.384 165.308 280.053 164.455 279.712C163.623 279.371 162.897 278.848 162.279 278.144C161.681 277.44 161.383 276.491 161.383 275.296C161.383 274.315 161.66 273.419 162.215 272.608C162.791 271.797 163.601 271.157 164.647 270.688C165.713 270.219 166.961 269.984 168.391 269.984C170.503 269.984 172.188 270.517 173.447 271.584C174.705 272.629 175.399 274.048 175.527 275.84H171.239C171.175 275.136 170.876 274.581 170.343 274.176C169.831 273.749 169.137 273.536 168.263 273.536C167.452 273.536 166.823 273.685 166.375 273.984C165.948 274.283 165.735 274.699 165.735 275.232C165.735 275.829 166.033 276.288 166.631 276.608C167.228 276.907 168.156 277.216 169.415 277.536C170.695 277.856 171.751 278.187 172.583 278.528C173.415 278.869 174.129 279.403 174.727 280.128C175.345 280.832 175.665 281.771 175.687 282.944C175.687 283.968 175.399 284.885 174.823 285.696C174.268 286.507 173.457 287.147 172.391 287.616C171.345 288.064 170.119 288.288 168.711 288.288ZM195.297 265.664C197.644 265.664 199.703 266.123 201.473 267.04C203.265 267.957 204.641 269.269 205.601 270.976C206.583 272.661 207.073 274.624 207.073 276.864C207.073 279.104 206.583 281.067 205.601 282.752C204.641 284.416 203.265 285.707 201.473 286.624C199.703 287.541 197.644 288 195.297 288H187.489V265.664H195.297ZM195.137 284.192C197.484 284.192 199.297 283.552 200.577 282.272C201.857 280.992 202.497 279.189 202.497 276.864C202.497 274.539 201.857 272.725 200.577 271.424C199.297 270.101 197.484 269.44 195.137 269.44H191.969V284.192H195.137ZM227.157 278.752C227.157 279.392 227.114 279.968 227.029 280.48H214.069C214.175 281.76 214.623 282.763 215.413 283.488C216.202 284.213 217.173 284.576 218.325 284.576C219.989 284.576 221.173 283.861 221.877 282.432H226.709C226.197 284.139 225.215 285.547 223.765 286.656C222.314 287.744 220.533 288.288 218.421 288.288C216.714 288.288 215.178 287.915 213.813 287.168C212.469 286.4 211.413 285.323 210.645 283.936C209.898 282.549 209.525 280.949 209.525 279.136C209.525 277.301 209.898 275.691 210.645 274.304C211.391 272.917 212.437 271.851 213.781 271.104C215.125 270.357 216.671 269.984 218.421 269.984C220.106 269.984 221.61 270.347 222.933 271.072C224.277 271.797 225.311 272.832 226.037 274.176C226.783 275.499 227.157 277.024 227.157 278.752ZM222.517 277.472C222.495 276.32 222.079 275.403 221.269 274.72C220.458 274.016 219.466 273.664 218.293 273.664C217.183 273.664 216.245 274.005 215.477 274.688C214.73 275.349 214.271 276.277 214.101 277.472H222.517ZM240.501 270.016C242.613 270.016 244.319 270.688 245.621 272.032C246.922 273.355 247.573 275.211 247.573 277.6V288H243.093V278.208C243.093 276.8 242.741 275.723 242.037 274.976C241.333 274.208 240.373 273.824 239.157 273.824C237.919 273.824 236.938 274.208 236.213 274.976C235.509 275.723 235.157 276.8 235.157 278.208V288H230.677V270.272H235.157V272.48C235.754 271.712 236.511 271.115 237.429 270.688C238.367 270.24 239.391 270.016 240.501 270.016ZM254.355 268.16C253.566 268.16 252.904 267.915 252.371 267.424C251.859 266.912 251.603 266.283 251.603 265.536C251.603 264.789 251.859 264.171 252.371 263.68C252.904 263.168 253.566 262.912 254.355 262.912C255.144 262.912 255.795 263.168 256.307 263.68C256.84 264.171 257.107 264.789 257.107 265.536C257.107 266.283 256.84 266.912 256.307 267.424C255.795 267.915 255.144 268.16 254.355 268.16ZM256.563 270.272V288H252.083V270.272H256.563ZM277.719 278.752C277.719 279.392 277.677 279.968 277.591 280.48H264.631C264.738 281.76 265.186 282.763 265.975 283.488C266.765 284.213 267.735 284.576 268.887 284.576C270.551 284.576 271.735 283.861 272.439 282.432H277.271C276.759 284.139 275.778 285.547 274.327 286.656C272.877 287.744 271.095 288.288 268.983 288.288C267.277 288.288 265.741 287.915 264.375 287.168C263.031 286.4 261.975 285.323 261.207 283.936C260.461 282.549 260.087 280.949 260.087 279.136C260.087 277.301 260.461 275.691 261.207 274.304C261.954 272.917 262.999 271.851 264.343 271.104C265.687 270.357 267.234 269.984 268.983 269.984C270.669 269.984 272.173 270.347 273.495 271.072C274.839 271.797 275.874 272.832 276.599 274.176C277.346 275.499 277.719 277.024 277.719 278.752ZM273.079 277.472C273.058 276.32 272.642 275.403 271.831 274.72C271.021 274.016 270.029 273.664 268.855 273.664C267.746 273.664 266.807 274.005 266.039 274.688C265.293 275.349 264.834 276.277 264.663 277.472H273.079ZM280.087 279.072C280.087 277.28 280.439 275.691 281.143 274.304C281.869 272.917 282.85 271.851 284.087 271.104C285.325 270.357 286.701 269.984 288.215 269.984C289.367 269.984 290.466 270.24 291.511 270.752C292.557 271.243 293.389 271.904 294.007 272.736V264.32H298.551V288H294.007V285.376C293.453 286.251 292.674 286.955 291.671 287.488C290.669 288.021 289.506 288.288 288.183 288.288C286.69 288.288 285.325 287.904 284.087 287.136C282.85 286.368 281.869 285.291 281.143 283.904C280.439 282.496 280.087 280.885 280.087 279.072ZM294.039 279.136C294.039 278.048 293.826 277.12 293.399 276.352C292.973 275.563 292.397 274.965 291.671 274.56C290.946 274.133 290.167 273.92 289.335 273.92C288.503 273.92 287.735 274.123 287.031 274.528C286.327 274.933 285.751 275.531 285.303 276.32C284.877 277.088 284.663 278.005 284.663 279.072C284.663 280.139 284.877 281.077 285.303 281.888C285.751 282.677 286.327 283.285 287.031 283.712C287.757 284.139 288.525 284.352 289.335 284.352C290.167 284.352 290.946 284.149 291.671 283.744C292.397 283.317 292.973 282.72 293.399 281.952C293.826 281.163 294.039 280.224 294.039 279.136Z" fill="#EB5749"/>
<path d="M46.0684 213.868C45.4136 211.841 44.7697 209.736 44.1476 207.621L45.681 207.157C46.2976 209.261 46.9415 211.349 47.5908 213.365L46.0739 213.868H46.0684ZM320.013 211.25L318.425 211.051C318.687 208.891 318.938 206.715 319.167 204.588L320.755 204.765C320.526 206.902 320.275 209.084 320.008 211.25H320.013ZM42.3796 201.329C41.8231 199.236 41.2774 197.103 40.7699 194.993L42.3196 194.607C42.8271 196.706 43.3673 198.821 43.9239 200.904L42.3796 201.329ZM321.41 198.269L319.822 198.114C320.024 195.949 320.21 193.767 320.379 191.635L321.972 191.762C321.803 193.905 321.618 196.093 321.416 198.269H321.41ZM39.3075 188.624C38.8437 186.492 38.4071 184.338 38.0033 182.217L39.5694 181.908C39.9732 184.012 40.4098 186.155 40.8681 188.271L39.3075 188.619V188.624ZM322.425 185.244L320.832 185.139C320.968 182.974 321.088 180.786 321.186 178.643L322.78 178.72C322.682 180.875 322.562 183.068 322.425 185.244ZM36.8574 175.782C36.5027 173.622 36.1753 171.451 35.8807 169.313L37.4631 169.093C37.7523 171.214 38.0797 173.373 38.4344 175.517L36.8574 175.782ZM323.025 172.197L321.427 172.147C321.487 169.971 321.53 167.783 321.552 165.646L323.151 165.662C323.129 167.811 323.085 170.009 323.02 172.197H323.025ZM35.084 162.823C34.8439 160.641 34.6365 158.454 34.4674 156.311L36.0607 156.178C36.2299 158.305 36.4373 160.481 36.6719 162.646L35.084 162.823ZM321.568 159.144C321.552 156.968 321.508 154.781 321.448 152.643L323.047 152.593C323.107 154.742 323.151 156.94 323.167 159.128L321.568 159.144ZM34.0472 149.776C33.9435 147.583 33.8726 145.385 33.8398 143.236L35.4387 143.208C35.4714 145.34 35.5423 147.522 35.646 149.693L34.0527 149.771L34.0472 149.776ZM321.186 146.147C321.077 143.971 320.941 141.789 320.788 139.662L322.381 139.541C322.54 141.684 322.676 143.877 322.785 146.064L321.192 146.147H321.186ZM35.455 136.723L33.8562 136.69C33.8999 134.492 33.9872 132.293 34.1127 130.15L35.706 130.244C35.5805 132.365 35.4987 134.547 35.455 136.723ZM320.237 133.188C320.024 131.012 319.784 128.841 319.517 126.731L321.099 126.527C321.367 128.648 321.607 130.835 321.825 133.023L320.237 133.183V133.188ZM36.2135 123.776L34.6256 123.616C34.8439 121.428 35.1058 119.235 35.4114 117.109L36.9938 117.341C36.6937 119.445 36.4318 121.611 36.2135 123.776ZM318.622 120.301C318.289 118.142 317.923 115.987 317.536 113.905L319.107 113.607C319.5 115.706 319.866 117.876 320.199 120.053L318.622 120.301ZM129.677 120.075C127.456 119.721 125.851 118.694 123.625 116.926L124.635 115.673C126.583 117.219 127.99 118.147 129.846 118.462L129.677 120.069V120.075ZM135.221 116.225L133.796 115.49C134.528 114.037 135.172 112.027 135.717 109.502L137.278 109.85C136.699 112.546 136.023 114.629 135.221 116.225ZM118.938 112.286C117.666 110.85 116.308 109.199 114.78 107.232L116.035 106.232C117.541 108.171 118.878 109.795 120.127 111.204L118.938 112.286ZM38.0524 110.961L36.4864 110.651C36.9011 108.492 37.3704 106.337 37.8778 104.244L39.4275 104.631C38.9255 106.691 38.4617 108.823 38.0524 110.955V110.961ZM316.243 107.553C315.768 105.415 315.26 103.294 314.726 101.25L316.27 100.836C316.81 102.896 317.323 105.039 317.803 107.199L316.243 107.553ZM138.353 103.332L136.77 103.128C137.016 101.195 137.234 99.0792 137.442 96.6598L139.035 96.7979C138.828 99.2394 138.604 101.377 138.353 103.332ZM110.867 102.018C109.569 100.239 108.221 98.3611 107.058 96.7427L108.352 95.7926C109.509 97.411 110.856 99.2836 112.15 101.057L110.867 102.018ZM227.833 101.885C226.588 101.885 225.366 101.51 224.204 100.764L225.055 99.3941C226.801 100.51 228.52 100.515 230.375 99.6205L231.063 101.084C229.966 101.615 228.875 101.885 227.827 101.885H227.833ZM41.1301 98.3943L39.6022 97.9192C40.2351 95.8147 40.9336 93.7212 41.6703 91.6995L43.1709 92.2629C42.4451 94.257 41.7576 96.3173 41.1301 98.3943ZM236.29 96.8531L235.117 95.7539C236.329 94.4227 237.627 92.7822 239.084 90.7384L240.378 91.6885C238.882 93.7875 237.54 95.4722 236.285 96.8531H236.29ZM219.664 95.7374C218.632 94.1189 217.607 92.2187 216.532 89.9153L217.978 89.2249C219.02 91.4565 220.013 93.3014 221.006 94.8591L219.664 95.7374ZM312.969 95.0193C312.325 92.9202 311.637 90.8544 310.928 88.8824L312.428 88.33C313.149 90.3296 313.842 92.4176 314.496 94.5442L312.969 95.0248V95.0193ZM103.282 91.4565C101.82 89.4292 100.603 87.7721 99.4463 86.2255L100.718 85.2478C101.875 86.7999 103.102 88.4681 104.565 90.5008L103.277 91.4565H103.282ZM139.521 90.2523L137.927 90.1473C138.047 88.2527 138.173 86.1205 138.304 83.6293L139.897 83.7177C139.766 86.2144 139.641 88.3521 139.521 90.2523ZM45.5718 86.2641L44.1094 85.6123C44.988 83.6017 45.9211 81.6242 46.9142 79.6909L48.333 80.4421C47.3562 82.3423 46.434 84.2866 45.5718 86.2697V86.2641ZM244.045 86.2641L242.708 85.3748C243.843 83.6238 245.016 81.7733 246.2 79.9008L247.542 80.7736C246.353 82.6516 245.18 84.5076 244.039 86.2641H244.045ZM213.961 83.8724C213.236 82.033 212.488 80.0278 211.675 77.7355L213.176 77.1887C213.983 79.4589 214.725 81.453 215.446 83.2758L213.961 83.8779V83.8724ZM308.576 82.8615C307.719 80.8343 306.808 78.8623 305.875 77.0064L307.299 76.2717C308.249 78.1608 309.171 80.1604 310.044 82.2208L308.576 82.8615ZM95.501 81.0939C94.0495 79.2711 92.7017 77.6471 91.3757 76.1336L92.5708 75.0565C93.9131 76.5921 95.2773 78.2326 96.7452 80.0776L95.501 81.0939ZM140.23 77.1831L138.637 77.1003C138.746 74.935 138.849 72.7752 138.964 70.5712L140.557 70.6541C140.443 72.8525 140.339 75.0178 140.23 77.1776V77.1831ZM251.051 75.3051L249.72 74.4102C251.056 72.3609 252.246 70.5933 253.37 68.997L254.669 69.936C253.561 71.5158 252.377 73.2723 251.051 75.3051ZM51.4979 74.8466L50.15 73.9738C51.4051 71.9798 52.6983 70.179 53.9971 68.6269L55.2194 69.6708C53.9698 71.1733 52.7147 72.9133 51.4979 74.8466ZM209.542 71.5544C208.81 69.3781 208.09 67.2017 207.484 65.3568L209.001 64.8431C209.607 66.6825 210.327 68.8589 211.058 71.0297L209.547 71.5544H209.542ZM86.9831 71.4384C85.3515 69.8255 83.7472 68.4059 82.2084 67.2073L83.1852 65.9258C84.7676 67.1576 86.421 68.6269 88.0962 70.2785L86.9831 71.4384ZM302.77 71.3666C301.624 69.472 300.424 67.6823 299.201 66.0473L300.473 65.0696C301.728 66.7488 302.955 68.5827 304.129 70.5215L302.765 71.3666H302.77ZM59.6939 65.2629L58.7226 63.9759C60.6325 62.501 62.6187 61.435 64.6268 60.8163L65.0961 62.363C63.2681 62.9319 61.451 63.9041 59.6939 65.2629ZM258.516 64.7658L257.277 63.7439C258.778 61.8713 260.196 60.2584 261.615 58.8167L262.745 59.9601C261.364 61.3632 259.978 62.9319 258.516 64.7658ZM140.912 64.1305L139.319 64.0366C139.455 61.6835 139.597 59.5458 139.739 57.5021L141.332 57.6181C141.19 59.6563 141.054 61.7885 140.912 64.1305ZM76.9263 63.7936C74.9346 62.7883 72.9701 62.1475 71.0985 61.8879L71.3168 60.286C73.363 60.5677 75.4912 61.2637 77.6411 62.3464L76.9317 63.7936H76.9263ZM295.092 61.1753C293.554 59.579 291.96 58.1704 290.361 56.9884L291.3 55.6792C292.975 56.9166 294.634 58.3859 296.238 60.0485L295.092 61.1809V61.1753ZM205.444 59.1592C204.647 56.7508 203.992 54.7844 203.381 52.9781L204.892 52.4534C205.504 54.2652 206.164 56.2316 206.955 58.6455L205.438 59.1592H205.444ZM267.53 55.8339L266.614 54.5082C268.578 53.1162 270.564 52.0833 272.512 51.4425L273.003 52.9837C271.203 53.5747 269.364 54.5358 267.525 55.8394L267.53 55.8339ZM284.965 53.8509C282.984 53.0057 280.981 52.481 279.011 52.2932L279.159 50.6803C281.292 50.8846 283.453 51.4481 285.581 52.3539L284.959 53.8454L284.965 53.8509ZM141.845 51.1222L140.252 50.9785C140.448 48.7083 140.667 46.5154 140.896 44.455L142.484 44.6373C142.254 46.6811 142.042 48.8629 141.845 51.1222ZM201.258 46.8247C200.489 44.6428 199.758 42.6432 199.032 40.721L200.527 40.141C201.258 42.0743 201.989 44.0794 202.764 46.2778L201.258 46.8247ZM143.297 38.1856L141.714 37.9536C142.036 35.6888 142.391 33.507 142.767 31.4742L144.339 31.7725C143.968 33.7832 143.613 35.9374 143.297 38.1856ZM196.658 34.678C195.801 32.5845 194.934 30.5849 194.088 28.7289L195.54 28.0495C196.396 29.9276 197.269 31.9493 198.137 34.0593L196.664 34.6835L196.658 34.678ZM145.698 25.4368L144.148 25.0446C144.704 22.7854 145.321 20.6532 145.976 18.7144L147.487 19.2392C146.849 21.1338 146.249 23.2218 145.698 25.4368ZM191.251 22.918C190.197 20.9129 189.128 19.0293 188.058 17.3224L189.406 16.4552C190.492 18.1952 191.589 20.1174 192.658 22.1557L191.245 22.9124L191.251 22.918ZM149.883 13.3067L148.448 12.5886C149.496 10.4343 150.658 8.52864 151.907 6.92676L153.162 7.92656C151.984 9.44006 150.882 11.2518 149.883 13.3012V13.3067ZM184.397 12.0694C183 10.2962 181.559 8.72198 180.113 7.4018L181.183 6.20315C182.694 7.58409 184.195 9.22464 185.641 11.064L184.391 12.0749L184.397 12.0694ZM157.621 3.73404L156.758 2.36968C158.652 1.14341 160.736 0.342471 162.957 0L163.203 1.60188C161.206 1.91121 159.329 2.63482 157.626 3.73957L157.621 3.73404ZM175.077 3.73404C173.216 2.71768 171.279 2.02169 169.314 1.66817L169.593 0.0718085C171.721 0.45847 173.822 1.2097 175.835 2.30892L175.077 3.73404Z" fill="#8DBCD9"/>
<path d="M76.5088 223.011C76.5088 223.011 42.0549 123.451 70.0589 99.9142C88.7755 84.1826 104.158 112.735 127.835 94.3905C148.914 78.0568 142.213 28.3708 175.832 21.5048C213.631 13.7826 221.953 106.454 252.974 93.7884C290.615 78.4158 328.059 109.619 295.701 223.209L76.5142 223.005L76.5088 223.011Z" fill="#DFEAF7"/>
<path d="M330.139 188.143C316.879 186.061 319.045 204.858 300.148 204.858C282.872 204.858 277.345 133.281 264.772 153.741C200.323 258.637 237.75 109.132 186.495 107.232C163.32 106.37 147.878 132.536 142.181 178.858C133.925 220.733 114.783 146.92 95.0785 153.78C82.5552 158.144 83.9904 204.858 66.7143 204.858C47.8176 204.858 49.9785 186.061 36.7241 188.143C22.4492 190.38 18.1875 223.65 18.1875 223.65H348.675C348.675 223.65 344.413 190.38 330.139 188.143Z" fill="#C7DBF1"/>
<path d="M318.397 208.488C306.201 207.598 308.193 215.624 290.808 215.624C274.912 215.624 275.349 197.639 264.714 193.817C245.124 186.779 228.977 222.407 221.382 204.527C206.959 157.078 164.888 133.282 145.484 204.527C137.888 222.407 120.132 190.502 102.152 193.817C91.0855 195.86 91.9531 215.624 76.0576 215.624C58.6724 215.624 60.6642 207.598 48.4683 208.488C35.3394 209.443 31.416 223.65 31.416 223.65H335.46C335.46 223.65 331.537 209.443 318.408 208.488H318.397Z" fill="#D1E4F6"/>
<path d="M18.1886 223.65C18.1886 223.65 16.115 232.196 25.7189 234.339C38.8587 237.266 115.979 244.955 97.2459 250.8C86.6707 254.097 102.643 258.577 154.16 260.229C205.677 261.88 294.071 255.417 264.342 245.856C234.614 236.294 356.054 243.547 348.676 223.656H18.1886V223.65Z" fill="#BCD1ED"/>
<path d="M183.503 215.465C230.001 215.465 267.695 177.308 267.695 130.239C267.695 83.1705 230.001 45.0137 183.503 45.0137C137.005 45.0137 99.3105 83.1705 99.3105 130.239C99.3105 177.308 137.005 215.465 183.503 215.465Z" fill="#EB5749"/>
<path d="M183.503 208.997C226.472 208.997 261.306 173.736 261.306 130.24C261.306 86.7433 226.472 51.4824 183.503 51.4824C140.534 51.4824 105.701 86.7433 105.701 130.24C105.701 173.736 140.534 208.997 183.503 208.997Z" fill="white"/>
<path d="M183.502 203.391C223.412 203.391 255.766 170.641 255.766 130.241C255.766 89.8406 223.412 57.0898 183.502 57.0898C143.592 57.0898 111.238 89.8406 111.238 130.241C111.238 170.641 143.592 203.391 183.502 203.391Z" fill="#EB5749"/>
<path d="M220.243 125.336C217.132 123.645 213.258 124.828 211.594 127.976L205.597 139.289C204.614 137.46 203.441 135.753 202.104 134.19V92.8009C202.104 89.8237 199.72 87.4098 196.779 87.4098C193.837 87.4098 191.453 89.8237 191.453 92.8009V126.402C190.629 126.054 189.783 125.744 188.921 125.479V83.8912C188.921 80.9139 186.536 78.5 183.595 78.5C180.654 78.5 178.269 80.9139 178.269 83.8912V124.292C177.413 124.358 176.572 124.469 175.737 124.607V90.4976C175.737 87.5203 173.353 85.1064 170.412 85.1064C167.47 85.1064 165.086 87.5203 165.086 90.4976V128.783C164.207 129.357 163.362 129.976 162.554 130.639V104.08C162.554 101.103 160.169 98.6892 157.228 98.6892C154.287 98.6892 151.902 101.103 151.902 104.08V151.364C151.902 151.684 151.93 151.999 151.984 152.303C151.979 152.562 151.973 152.827 151.973 153.093C151.973 169.045 164.748 181.982 180.512 181.982C192.342 181.982 202.492 174.69 206.819 164.306L222.84 134.091C224.51 130.942 223.342 127.02 220.232 125.336H220.243Z" fill="white"/>
<path d="M239.262 30.4796V43.6426C239.076 44.7198 238.143 45.5428 237.024 45.5428C235.906 45.5428 234.973 44.7198 234.787 43.6426V30.4796C234.787 29.2257 235.786 28.2148 237.024 28.2148C238.263 28.2148 239.262 29.2257 239.262 30.4796Z" fill="#EB5749"/>
<path d="M237.026 52.004C238.28 52.004 239.296 50.9752 239.296 49.7061C239.296 48.437 238.28 47.4082 237.026 47.4082C235.772 47.4082 234.756 48.437 234.756 49.7061C234.756 50.9752 235.772 52.004 237.026 52.004Z" fill="#EB5749"/>
<path d="M77.5463 110.243C79.5872 108.106 80.8477 105.2 80.8477 102.002C80.8477 95.4619 75.5928 90.1426 69.132 90.1426C65.9726 90.1426 63.1023 91.4186 60.9906 93.4844C60.9415 93.5231 60.8924 93.5673 60.8487 93.6115C60.8051 93.6557 60.7614 93.7054 60.7232 93.7551C58.6824 95.8928 57.4219 98.7983 57.4219 101.997C57.4219 108.537 62.6767 113.856 69.1375 113.856C72.297 113.856 75.1672 112.58 77.279 110.514C77.3281 110.475 77.3772 110.431 77.4208 110.387C77.4645 110.343 77.5081 110.293 77.5463 110.243ZM77.3008 102.002C77.3008 103.632 76.8315 105.151 76.0239 106.432L64.7612 95.0311C66.0272 94.2136 67.5278 93.7385 69.1375 93.7385C73.6393 93.7385 77.3008 97.445 77.3008 102.002ZM60.9742 102.002C60.9742 100.373 61.4435 98.8535 62.2511 97.572L73.5138 108.973C72.2478 109.79 70.7472 110.266 69.1375 110.266C64.6357 110.266 60.9742 106.559 60.9742 102.002Z" fill="#EB5749"/>
<path d="M295.904 102.044C297.945 99.9065 299.205 97.0011 299.205 93.8028C299.205 87.2627 293.95 81.9434 287.489 81.9434C284.33 81.9434 281.46 83.2193 279.348 85.2852C279.299 85.3239 279.25 85.3681 279.206 85.4123C279.162 85.4565 279.119 85.5062 279.081 85.5559C277.04 87.6936 275.779 90.599 275.779 93.7973C275.779 100.337 281.034 105.657 287.495 105.657C290.654 105.657 293.525 104.381 295.636 102.315C295.685 102.276 295.735 102.232 295.778 102.188C295.822 102.144 295.866 102.094 295.904 102.044ZM295.658 93.8028C295.658 95.4323 295.189 96.9513 294.381 98.2328L283.119 86.8319C284.385 86.0143 285.885 85.5393 287.495 85.5393C291.997 85.5393 295.658 89.2457 295.658 93.8028ZM279.332 93.8028C279.332 92.1733 279.801 90.6543 280.609 89.3728L291.871 100.774C290.605 101.591 289.105 102.066 287.495 102.066C282.993 102.066 279.332 98.3599 279.332 93.8028Z" fill="#EB5749"/>
<path d="M114.455 47.0294L120.572 40.8373C121.445 39.9535 121.445 38.5173 120.572 37.6336C119.699 36.7498 118.28 36.7498 117.407 37.6336L111.29 43.8257L105.173 37.6336C104.3 36.7498 102.881 36.7498 102.008 37.6336C101.135 38.5173 101.135 39.9535 102.008 40.8373L108.125 47.0294L102.008 53.2215C101.135 54.1053 101.135 55.5415 102.008 56.4253C102.445 56.8672 103.018 57.0881 103.591 57.0881C104.164 57.0881 104.737 56.8672 105.173 56.4253L111.29 50.2332L117.407 56.4253C117.844 56.8672 118.417 57.0881 118.99 57.0881C119.563 57.0881 120.136 56.8672 120.572 56.4253C121.445 55.5415 121.445 54.1053 120.572 53.2215L114.455 47.0294Z" fill="#EB5749"/>
<path d="M265.358 147.616C259.547 152.704 250.876 154.316 244.437 149.362C242.522 147.937 240.59 145.655 239.242 143.269L240.819 140.678C253.364 148.511 258.33 135.144 268.534 134.1L266.493 137.116C266.493 137.116 265.533 147.406 265.353 147.616H265.358Z" fill="#F3AE1C"/>
<path d="M276.91 236.876L277.101 236.777C277.101 236.915 277.265 237.384 277.401 237.384L283.06 237.5C283.196 237.5 283.278 237.246 283.278 237.108L283.758 236.97C283.758 236.114 283.687 235.799 283.316 235.136C281.941 233.286 283.584 225.006 283.535 222.84C283.873 222.249 277.576 222.713 277.483 222.575C277.341 222.575 277.232 222.697 277.243 222.84L277.985 232.303C278.318 234.098 276.954 235.186 276.91 236.882V236.876Z" fill="#F69372"/>
<path d="M252.371 237.698H263.645C264.627 237.659 264.622 236.643 264.442 235.853C263.82 233.014 264.916 226.49 265.124 223.568C265.178 223.032 264.764 222.568 264.234 222.568H259.258C258.718 222.568 258.303 223.049 258.368 223.59L259.274 230.898C259.765 234.074 256.027 234.676 253.894 235.03C252.491 235.135 250.145 237.074 252.377 237.703L252.371 237.698Z" fill="#F69372"/>
<path d="M264.872 236.518C264.839 237.076 264.566 237.716 263.928 237.7H252.234C249.473 236.661 253.44 232.96 258.842 232.983C261.036 233.59 264.266 233.159 264.266 233.159C264.266 233.159 264.938 234.165 264.877 236.518H264.872Z" fill="#193863"/>
<path d="M282.862 237.697H277.864C275.43 237.36 277.165 233.002 280.363 232.969C283.577 232.936 285.296 237.36 282.862 237.697Z" fill="#193863"/>
<path d="M255.016 236.097C255.186 236.097 255.317 235.909 255.246 235.749C254.711 234.418 253.718 234.009 253.674 233.992C253.374 233.871 253.188 234.346 253.489 234.462C253.527 234.478 254.334 234.821 254.782 235.942C254.82 236.042 254.913 236.097 255.011 236.097H255.016Z" fill="#E8C0A6"/>
<path d="M256.949 235.859C257.112 235.859 257.238 235.693 257.189 235.533C256.752 233.859 254.608 232.6 255.186 233.776C255.208 233.788 256.321 234.395 256.714 235.682C256.747 235.793 256.845 235.859 256.949 235.859Z" fill="#E8C0A6"/>
<path d="M259.146 235.589C259.315 235.589 259.441 235.412 259.381 235.252C258.868 233.584 256.92 232.093 257.367 233.324C257.378 233.33 258.447 234.065 258.911 235.418C258.949 235.523 259.042 235.589 259.146 235.589Z" fill="#E8C0A6"/>
<path d="M282.158 234.479C282.398 234.49 282.502 234.131 282.284 234.01C280.609 233.015 278.513 233.954 278.426 233.999C278.131 234.131 278.339 234.595 278.633 234.457C278.655 234.396 280.761 233.628 282.158 234.479Z" fill="#E8C0A6"/>
<path d="M251.409 236.516H264.871C264.822 236.93 264.707 237.333 264.5 237.698H252.228C251.622 237.698 251.196 237.085 251.409 236.516Z" fill="#142F54"/>
<path d="M282.862 237.698H277.864C277.225 237.698 276.718 237.156 276.756 236.516H283.97C284.008 237.156 283.495 237.703 282.862 237.698Z" fill="#142F54"/>
<path d="M266.969 121.071C266.969 121.071 266.909 117.37 270.216 116.713L271.945 118.53L266.969 121.066V121.071Z" fill="#101010"/>
<path d="M284.327 231.241C284.327 231.241 278.996 232.55 276.251 231.141C274.821 222.066 270.854 196.795 269.468 179.478C269.414 180.489 266.511 221.21 265.96 231.141C264.061 231.782 260.252 232.561 258.118 231.003C257.158 220.547 254.08 186.134 258.718 158.024C258.718 158.024 271.427 159.454 281.348 156.422C284.081 165.337 284.802 220.541 284.332 231.241H284.327Z" fill="#1D4071"/>
<path d="M260.163 230.136C258.858 200.093 261.849 174.253 261.401 173.943C260.615 174.01 257.614 200.076 260.163 230.136Z" fill="#163456"/>
<path d="M280.129 230.135C279.611 199.263 275.082 170.021 274.394 169.91C273.881 170.297 278.334 199.203 280.129 230.135Z" fill="#163456"/>
<path d="M268.442 133.991C268.163 131.544 268.545 128.015 268.878 126.562C269.484 123.695 273.975 124.805 273.227 127.622C273.08 127.528 272.621 132.721 272.938 134.162C277.151 135.444 264.48 139.648 268.436 133.991H268.442Z" fill="#F4E2D9"/>
<path d="M273.275 127.384C273.264 127.461 273.248 127.544 273.231 127.621C273.128 127.55 272.833 130.416 272.833 132.493C270.901 133.383 268.752 132.99 268.359 132.908C268.315 130.273 268.555 127.875 268.937 126.367C269.717 123.815 273.673 124.749 273.275 127.384Z" fill="#F4E2D9"/>
<path d="M276.271 126.318C275.632 128.274 274.601 130.433 272.822 131.505C272.102 131.936 271.278 132.146 270.432 132.179C265.679 132.831 260.997 126.279 265.275 123.02C265.979 122.512 266.596 121.772 266.972 121.076C270.781 113.636 278.601 119.474 276.271 126.324V126.318Z" fill="#F4E2D9"/>
<path d="M260.195 144.348L258.236 151.617C254.046 152.92 249.576 152.628 245.637 150.175C249.969 152.655 255.928 151.258 256.867 149.8C257.854 148.258 260.059 144.569 260.195 144.348Z" fill="#C3842B"/>
<path d="M283.19 168.558C282.737 169.116 282.252 169.674 281.739 170.238C281.739 170.238 279.245 170.713 277.286 168.078C285.258 150.971 269.865 149.374 272.942 134.162C283.228 135.394 297.53 150.927 283.185 168.553L283.19 168.558Z" fill="#F3AE1C"/>
<path d="M268.889 123.842C268.763 123.461 269.352 123.273 269.467 123.654C269.592 124.035 269.003 124.223 268.889 123.842Z" fill="#101010"/>
<path d="M266.428 123.004C266.302 122.623 266.891 122.435 267.006 122.816C267.132 123.197 266.542 123.385 266.428 123.004Z" fill="#101010"/>
<path d="M276.271 126.32C275.632 128.275 274.601 130.435 272.822 131.507C272.675 131.595 272.522 131.672 272.364 131.744C273.75 130.739 274.847 128.281 274.847 128.281L274.912 126.055C273.297 123.762 274.481 121.68 274.481 121.68C271.114 122.072 270.35 119.879 270.35 119.879C269.308 119.846 268.32 119.122 268.32 119.122C272.953 114.422 278.279 121.166 276.271 126.32Z" fill="#101010"/>
<path d="M267.165 125.819C267.361 125.88 267.53 125.604 267.274 125.576C266.87 125.654 265.986 125.234 266.472 125.029C267.17 124.786 268.267 123.162 267.623 123.455C267.618 123.466 267.012 124.587 266.395 124.808C265.55 125.234 266.575 125.819 267.165 125.819Z" fill="#E0B8A6"/>
<path d="M283.19 168.558C282.737 169.116 282.251 169.673 281.739 170.237C281.739 170.237 279.196 170.596 277.242 167.967C277.531 167.26 277.848 166.801 278.093 166.1C278.093 166.1 279.605 167.812 283.19 168.558Z" fill="#C3842B"/>
<path d="M281.919 170.574C282.459 170.739 283.021 170.093 282.29 169.905C278.334 170.082 277.281 167.436 277.237 167.326C275.524 166.348 277.63 170.817 281.919 170.574Z" fill="#163456"/>
<path d="M256.861 170.11C256.861 170.11 257.636 173.479 263.846 175.142C265.625 175.617 266.651 175.385 266.913 174.136C267.044 173.507 267.382 172.418 268.004 172.015C268.004 172.015 269.395 172.623 269.919 173.485C271.071 175.374 272.8 173.656 273.646 171.678C274.689 169.231 278.033 166.735 278.612 164.68L256.861 170.11Z" fill="#D6B199" stroke="#565554" stroke-width="0.25" stroke-miterlimit="10"/>
<path d="M282.169 165.94C281.967 166.304 281.847 166.244 281.639 166.034C276.063 161.814 274.06 171.033 268.052 171.198C261.935 171.812 258.53 172.16 256.86 170.105C253.952 165.537 258.579 145.126 262.323 140.188C263.965 137.62 266.873 135.327 268.44 133.996C268.407 134.129 267.572 137.642 272.941 134.162C273.209 134.278 274.911 135.957 274.808 136.857C275.08 140.989 284.766 161.3 282.169 165.94Z" fill="#F3AE1C"/>
<path d="M266.678 115.795C266.678 115.795 268.255 115.359 269.864 116C270.05 115.381 270.427 114.807 271.038 114.354C271.3 115.105 271.676 115.829 272.102 116.502C272.249 115.088 273.111 113.939 273.111 113.939C273.34 115.298 275.196 116.27 276.069 117.74C276.069 117.74 281.007 119.452 277.482 123.844C277.335 125.467 276.554 127.108 276.554 127.108C273.962 124.711 274.519 121.833 275.698 121.082C273.586 121.838 271.703 120.944 270.639 119.524C269.068 119.259 267.147 118.392 266.678 115.795Z" fill="#101010"/>
<path d="M278.944 167.239L277.722 166.979C282.611 155.832 276.86 151.121 273.82 144.846C280.876 153.109 281.945 157.639 278.95 167.239H278.944Z" fill="#C3842B"/>
<path d="M277.367 127.539C276.559 129.738 273.825 128.677 274.682 126.495C275.489 124.297 278.223 125.357 277.367 127.539Z" fill="#F4E2D9"/>
<path d="M276.598 127.893C277.094 127.363 277.094 126.473 276.87 126.23C276.456 125.799 275.67 125.849 275.67 126.098C275.774 126.352 276.308 125.937 276.69 126.374C277.105 126.7 276.281 127.76 276.598 127.893Z" fill="#E0B8A6"/>
<path d="M275.562 127.561C275.737 127.55 276.026 126.738 276.893 126.794C276.959 126.799 277.013 126.755 277.019 126.689C276.451 126.109 275.049 127.573 275.562 127.561Z" fill="#E0B8A6"/>
<path d="M274.596 134.462C274.623 136.533 269.368 138.367 269.074 138.367L268.446 136.478C267.638 136.682 266.924 137.826 266.924 137.826C264.594 135.577 266.787 133.616 268.446 133.987C268.413 134.119 268.048 137.196 272.932 134.047C273.559 133.755 274.601 134.451 274.601 134.451L274.596 134.462Z" fill="#D6B199" stroke="#565554" stroke-width="0.25" stroke-miterlimit="10"/>
<path d="M265.953 231.142C265.953 231.142 265.265 231.401 264.305 231.584C264.305 231.584 266.984 191.172 267.382 185.775C267.781 180.384 269.461 179.473 269.461 179.473C269.461 179.473 265.909 230.263 265.953 231.136V231.142Z" fill="#163456"/>
<path d="M266.06 229.188C265.989 230.353 265.951 231.049 265.956 231.148C264.057 231.789 260.248 232.568 258.115 231.01C258.115 231.01 258.06 230.37 257.951 229.188C257.951 229.188 261.678 230.927 266.065 229.188H266.06Z" fill="#163456"/>
<path d="M284.325 231.243C284.325 231.243 278.993 232.552 276.249 231.143C276.249 231.143 276.134 230.442 275.938 229.182C275.938 229.182 279.692 230.193 284.395 229.127C284.417 230.353 284.314 231.138 284.33 231.237L284.325 231.243Z" fill="#163456"/>
<path d="M242.209 141.47C242.204 143.127 239.977 144.463 239.977 144.463C239.726 144.082 239.481 143.679 239.246 143.27L240.823 140.68C241.298 140.945 241.762 141.254 242.209 141.475V141.47Z" fill="#C3842B"/>
<path d="M238.499 136.007C237.888 136.405 238.892 137.631 238.816 138.299C237.801 137.83 236.911 137.062 236.906 137.062C236.038 135.979 235.225 134.847 234.467 133.676C232.595 132.809 235.564 137.101 235.787 137.631C235.787 137.631 235.776 137.642 235.771 137.647C234.647 136.73 233.572 135.747 232.579 134.676C230.473 134.228 234.718 138.156 235.105 138.62C235.105 138.62 235.105 138.625 235.105 138.631C233.905 137.946 232.781 137.117 231.766 136.173C229.605 135.913 234.221 139.564 234.734 139.89C234.734 139.89 234.734 139.901 234.734 139.907C233.818 139.785 231.935 138.073 231.335 138.487C230.762 139.426 236.944 142.796 239.111 143.221C239.891 143.436 241.015 141.453 240.824 140.674C240.644 139.945 240.147 139.05 239.978 138.719C239.711 137.957 239.405 136.068 238.51 136.007H238.499Z" fill="#F4E2D9"/>
<path d="M244.428 149.336C244.493 149.386 244.553 149.435 244.619 149.496C244.553 149.446 244.499 149.402 244.433 149.358L244.428 149.336Z" fill="#3A5C96"/>
<path d="M270.65 123.345C270.65 123.345 270.683 123.328 270.699 123.317C270.765 123.268 270.77 123.174 270.721 123.107C270.694 123.074 270.077 122.306 269.04 122.345C268.958 122.345 268.898 122.417 268.898 122.5C268.898 122.583 268.969 122.643 269.051 122.643C269.941 122.61 270.486 123.284 270.492 123.29C270.53 123.339 270.595 123.356 270.65 123.339V123.345Z" fill="#101010"/>
<path d="M266.66 121.993C266.66 121.993 266.715 121.993 266.736 121.976C267.2 121.744 267.724 122.064 267.73 122.064C267.8 122.109 267.888 122.086 267.931 122.015C267.975 121.943 267.953 121.854 267.888 121.81C267.861 121.794 267.228 121.396 266.611 121.705C266.54 121.744 266.507 121.832 266.545 121.904C266.567 121.954 266.616 121.982 266.665 121.987L266.66 121.993Z" fill="#101010"/>
<path d="M268.053 126.384C268.053 126.384 268.004 126.401 267.982 126.417C267.595 126.771 267.011 126.6 267 126.6C266.924 126.578 266.842 126.622 266.82 126.699C266.798 126.776 266.842 126.859 266.918 126.881C266.951 126.892 267.666 127.102 268.179 126.638C268.239 126.583 268.244 126.489 268.19 126.428C268.152 126.39 268.102 126.373 268.053 126.384Z" fill="#E0B8A6"/>
<path d="M89.2087 138.447C91.0803 126.218 98.0541 129.095 98.0541 129.095C98.0541 129.095 101.89 127.079 105.061 131.99C110.086 139.778 115.969 137.828 117.349 144.849C118.697 151.721 109.459 159.537 98.4524 154.455C98.4524 154.455 87.3261 150.76 89.2087 138.447Z" fill="#101010"/>
<path d="M125.606 158.541C126.08 158.95 124.951 159.917 124.891 160.491C125.873 160.276 126.795 159.779 126.806 159.779C127.777 158.994 128.705 158.16 129.595 157.282C131.428 156.824 127.963 160.116 127.679 160.497C127.679 160.497 127.685 160.508 127.69 160.513C128.852 159.928 129.987 159.271 131.057 158.525C133.043 158.475 128.481 161.204 128.083 161.497C128.083 161.497 128.083 161.502 128.083 161.508C129.267 161.143 130.413 160.629 131.488 160C133.491 160.132 128.645 162.535 128.17 162.69C128.17 162.69 128.17 162.701 128.17 162.706C129.142 162.557 130.097 162.281 131.03 161.961C132.88 162.353 128.394 163.833 127.947 163.922C127.668 164.142 125.911 164.645 123.696 164.761C122.97 164.8 122.359 162.833 122.675 162.187C122.97 161.579 123.581 160.889 123.794 160.635C124.127 160.071 124.874 158.354 125.6 158.541H125.606Z" fill="#F69372"/>
<path d="M97.2217 152.726C99.0279 154.074 99.9937 156.134 101.396 158.029C103.044 160.382 104.927 162.89 107.344 164.558C112.479 167.927 118.88 166.59 124.276 164.801C126.235 164.188 125.351 161.072 123.37 161.614C118.749 162.674 112.561 163.624 109.292 159.371C106.138 155.681 105.161 150.5 101.62 147.048C97.7674 143.468 92.8563 149.782 97.2272 152.726H97.2217Z" fill="#F69372"/>
<path d="M99.5317 159.233C100.116 160.874 100.901 162.155 101.769 163.15C103.422 165.039 105.381 165.895 106.855 166.182C106.904 166.193 106.953 166.199 107.002 166.21C109.25 166.602 114.047 161.001 111.449 159.079C108.852 157.156 109.299 155.996 106.205 151.368C103.106 146.744 100.492 145.91 100.492 145.91C100.53 149.484 97.8073 154.373 99.5317 159.233Z" fill="#F3AE1C"/>
<path d="M57.9533 219.585L56.2617 209.03C56.7856 208.759 59.3884 208.864 60.3052 208.61C60.889 208.554 68.212 206.489 68.9759 206.301L69.9472 212.36L62.0841 212.648C61.151 212.681 60.3761 213.382 60.2342 214.316C59.8141 216.382 60.5289 218.547 59.2138 220.044C58.7664 220.447 58.0515 220.187 57.9588 219.591L57.9533 219.585Z" fill="#F69372"/>
<path d="M57.2112 208.543C56.8674 208.642 56.54 208.797 56.2617 209.029L57.9697 219.673C58.0515 220.192 58.6136 220.485 59.0719 220.231C60.136 219.64 61.5438 217.972 61.0145 213.023C61.0145 213.023 60.2561 211.432 60.3052 208.609C60.3052 208.609 58.6136 208.134 57.2166 208.543H57.2112Z" fill="#1D4071"/>
<path d="M60.7196 218.232C60.3376 218.121 60.3758 217.525 59.0989 217.21C58.9843 217.182 58.9079 217.066 58.9352 216.95C59.4045 216.276 61.6418 218.193 60.7141 218.237L60.7196 218.232Z" fill="#E8C0A6"/>
<path d="M61.0529 216.651C60.9874 216.651 60.9219 216.624 60.8783 216.563C60.8783 216.563 60.2016 215.668 59.0503 215.502C58.772 215.469 58.832 215.027 59.1103 215.071C60.4417 215.259 61.1948 216.259 61.222 216.303C61.3312 216.441 61.222 216.657 61.0474 216.651H61.0529Z" fill="#E8C0A6"/>
<path d="M61.1174 214.678C60.8173 214.623 60.3917 213.827 58.9729 213.557C58.7001 213.513 58.771 213.071 59.0493 213.126C60.4735 213.435 61.8377 214.441 61.1229 214.678H61.1174Z" fill="#E8C0A6"/>
<path d="M59.0868 220.22L57.2151 208.543C56.8713 208.642 56.5439 208.797 56.2656 209.029L57.9736 219.673C58.0554 220.198 58.6339 220.491 59.0922 220.22H59.0868Z" fill="#3A5C96"/>
<path d="M101.769 163.155C103.423 165.044 105.381 165.9 106.855 166.188C105.927 164.271 107.215 163.437 107.45 160.299C107.701 157.013 104.858 153.588 104.858 153.588L101.764 163.155H101.769Z" fill="#C3842B"/>
<path d="M104.504 237.531L93.9507 237.415C93.7761 236.846 94.3218 234.267 94.2345 233.317C94.2345 232.914 94.1308 230.721 94.0926 230.317L94.8838 224.291L99.533 224.341L98.4689 232.229C98.3434 233.162 98.8891 234.057 99.7731 234.361C101.71 235.129 103.926 234.797 105.164 236.344C105.486 236.863 105.104 237.537 104.499 237.531H104.504Z" fill="#F69372"/>
<path d="M93.6444 236.382C93.6826 236.741 93.7808 237.095 93.9554 237.415L104.607 237.531C105.125 237.537 105.507 237.023 105.338 236.531C104.945 235.371 103.559 233.675 98.6537 233.366C98.6537 233.366 96.9785 233.852 94.2337 233.316C94.2337 233.316 93.4807 234.918 93.6444 236.388V236.382Z" fill="#1D4071"/>
<path d="M102.207 236.112C102.06 236.112 101.946 235.946 102.011 235.808C102.486 234.659 103.353 234.311 103.392 234.294C103.654 234.189 103.806 234.604 103.544 234.703C103.512 234.714 102.808 235.007 102.404 235.973C102.371 236.056 102.289 236.106 102.202 236.106L102.207 236.112Z" fill="#E8C0A6"/>
<path d="M100.532 235.891C100.39 235.891 100.281 235.742 100.324 235.604C100.717 234.157 102.594 233.085 102.081 234.096C102.07 234.102 101.094 234.621 100.739 235.737C100.712 235.831 100.624 235.886 100.532 235.886V235.891Z" fill="#E8C0A6"/>
<path d="M98.6283 235.631C98.481 235.631 98.3718 235.476 98.4264 235.338C98.8957 234.029 99.9161 233.344 99.9597 233.316C100.194 233.162 100.429 233.532 100.194 233.681C100.178 233.692 99.2449 234.316 98.8302 235.482C98.7975 235.57 98.7156 235.625 98.6283 235.625V235.631Z" fill="#E8C0A6"/>
<path d="M105.335 236.51L93.6465 236.377C93.6847 236.736 93.7829 237.09 93.9575 237.41L104.609 237.526C105.133 237.531 105.515 237.007 105.335 236.504V236.51Z" fill="#3A5C96"/>
<path d="M62.0293 207.622C62.0293 207.622 62.0293 210.632 62.8369 213.499C83.0923 211.792 91.4957 209.124 93.0782 189.228C93.0782 189.228 99.9973 202.629 93.3892 228.104C93.1982 228.85 93.0018 229.584 92.789 230.336C92.789 230.336 95.3864 232.484 98.9824 231.783C103.462 223.166 113.345 202.424 104.81 175.292C99.7245 169.337 89.4876 168.729 82.9832 171.718C77.7502 185.339 86.9393 202.093 62.0293 207.622Z" fill="#2A3E4E"/>
<path d="M62.0293 207.62C62.0293 207.62 62.0293 210.63 62.8369 213.497C62.8369 213.497 63.7482 213.431 65.2269 213.276C64.2993 210.973 64.3266 207.051 64.3266 207.051C63.6008 207.261 62.8205 207.426 62.0293 207.62Z" fill="#25669B"/>
<path d="M92.791 230.327C92.791 230.327 95.3884 232.476 98.9844 231.775C98.9844 231.775 99.3173 231.117 99.9503 229.874C99.9503 229.874 95.7049 230.278 93.3967 228.096C93.2112 228.83 93.0093 229.571 92.7965 230.327H92.791Z" fill="#25669B"/>
<path d="M93.3915 228.097C93.326 228.356 93.2605 228.616 93.1896 228.876H94.4774C98.9792 215.232 99.765 192.756 93.0859 189.221C93.0859 189.221 100.005 202.621 93.397 228.097H93.3915Z" fill="#2A3E4E"/>
<path d="M97.8522 231.12C101.394 222.945 103.756 214.958 104.875 207.39C105.77 201.325 105.874 195.503 105.181 190.101C103.997 180.86 100.935 176.082 100.804 175.883L99.9476 176.457C99.9803 176.507 103.031 181.285 104.171 190.311C105.23 198.652 104.826 212.433 96.9082 230.706L97.8468 231.126L97.8522 231.12Z" fill="#113851"/>
<path d="M63.6759 212.763C70.9061 212.056 76.3083 210.797 80.1826 208.907C84.0351 207.029 86.6488 204.406 88.1713 200.887C91.9855 192.071 90.5831 174.379 90.5231 173.633L89.4973 173.721C89.5136 173.903 90.9378 191.9 87.2273 200.473C84.357 207.112 77.5033 210.371 63.5723 211.73L63.6705 212.763H63.6759Z" fill="#124667"/>
<path d="M82.6338 172.689C87.1575 174.86 97.6944 179.417 104.979 175.837C105.383 174.976 105.448 173.645 105.137 172.694C102.311 162.884 109.868 161.603 104.728 153.367C103.577 151.539 101.405 147.622 100.494 145.915C99.6425 147.981 97.1488 146.026 96.1393 144.844C95.3972 144.877 87.3376 145.562 84.1072 162.995C83.7798 164.762 79.3216 169.96 82.6338 172.689Z" fill="#F3AE1C"/>
<path d="M97.9409 169.452C98.0445 170.076 96.5658 170.087 96.1565 170.485C97.046 170.954 98.0718 171.175 98.0773 171.181C99.3214 171.208 100.56 171.17 101.799 171.07C103.496 171.91 98.7539 172.186 98.2901 172.297C98.2901 172.302 98.2901 172.308 98.2901 172.313C99.5561 172.617 100.838 172.849 102.137 172.971C103.692 174.219 98.4647 173.357 97.9736 173.324C97.9736 173.324 97.9736 173.33 97.9736 173.335C99.1141 173.821 100.32 174.169 101.542 174.385C102.999 175.782 97.7553 174.49 97.2915 174.296C97.2915 174.296 97.2861 174.302 97.2806 174.307C98.1209 174.821 99.0322 175.23 99.9489 175.589C101.122 177.091 96.7404 175.318 96.3366 175.097C95.9819 175.086 94.3176 174.335 92.5441 172.987C91.9603 172.545 92.7351 170.645 93.3899 170.352C94.0011 170.076 94.9069 169.944 95.2289 169.888C95.8455 169.673 97.5043 168.833 97.9409 169.452Z" fill="#F69372"/>
<path d="M90.1981 146.04C85.8709 149.327 81.4127 154.398 79.8303 159.651C77.3202 166.909 86.3238 171.168 92.1079 172.88C93.2375 173.317 94.558 173.554 95.0273 172.096C95.3602 170.765 94.2688 170.234 93.2484 169.848C91.344 168.953 89.4014 167.826 87.8299 166.478C85.9909 164.948 84.5122 162.849 85.9473 160.64C87.6607 157.088 90.6019 154.039 93.9305 152.089C97.8321 149.603 94.1215 143.588 90.2035 146.035L90.1981 146.04Z" fill="#F69372"/>
<path d="M96.0958 144.843C96.0958 144.843 89.6295 143.645 84.8822 149.588C80.1348 155.532 76.255 163.077 79.4036 165.049C81.2098 166.181 81.4008 163.199 85.848 164.082C89.3185 164.773 88.6419 158.233 93.8585 152.764C96.7287 149.754 96.8324 145.915 96.0958 144.849V144.843Z" fill="#F3AE1C"/>
<path d="M86.2253 164.42C86.7819 164.42 88.6645 164.128 89.9196 160.366C91.2837 156.278 93.6574 153.417 93.6792 153.39C93.7829 153.263 93.7666 153.075 93.6465 152.97C93.521 152.865 93.3355 152.881 93.2318 153.003C93.1336 153.124 90.7599 155.986 89.363 160.178C88.0806 164.023 86.1708 163.824 86.1544 163.824C85.9907 163.802 85.8488 163.918 85.827 164.078C85.8052 164.238 85.9143 164.387 86.0725 164.415C86.0835 164.415 86.1435 164.426 86.2308 164.426L86.2253 164.42Z" fill="#C3842B"/>
<path d="M100.489 145.731C100.489 145.731 101.733 146.189 102.273 146.968C102.273 146.968 102.115 148.078 101.313 148.482C100.402 148.935 99.4795 147.25 99.4795 147.25C99.4795 147.25 99.283 148.725 98.1589 148.62C97.0348 148.515 94.8958 146.847 94.2246 144.748C94.2246 144.748 95.5888 144.51 96.1072 144.836L100.5 145.725L100.489 145.731Z" fill="#FBD2D2"/>
<path d="M100.659 144.478L100.49 145.732C100.042 147.709 96.6699 145.804 96.1406 144.843C96.1406 144.843 96.2989 144.119 96.3534 143.473L100.659 144.478Z" fill="#F69372"/>
<path d="M96.4594 138.877C96.4594 138.954 96.4649 139.031 96.4758 139.109C96.5849 139.053 96.5413 141.871 96.3066 143.887C98.0801 144.975 100.214 144.848 100.607 144.815C100.95 142.263 100.994 139.904 100.792 138.396C100.323 135.828 96.3721 136.264 96.4594 138.871V138.877Z" fill="#E57E62"/>
<path d="M93.5895 137.338C93.9332 139.327 94.6317 141.558 96.2033 142.851C96.8362 143.37 97.6056 143.696 98.4187 143.845C102.986 145.11 108.355 139.553 104.688 135.72C103.368 134.521 103.062 132.367 102.004 131.168C100.46 128.97 97.1473 129.135 95.3847 130.969C93.7914 132.626 93.2675 134.891 93.584 137.338H93.5895Z" fill="#F69372"/>
<path d="M101.084 135.999C101.259 135.651 100.713 135.381 100.55 135.734C100.375 136.082 100.921 136.353 101.084 135.999Z" fill="#C26257"/>
<path d="M103.582 135.536C103.757 135.188 103.211 134.918 103.048 135.271C102.873 135.619 103.419 135.89 103.582 135.536Z" fill="#C26257"/>
<path d="M102.847 138.16C102.661 138.16 102.263 138.237 102.268 137.988C102.285 137.928 102.35 137.894 102.41 137.911C102.792 138.027 103.322 137.828 103.393 137.657C103.42 137.596 103.338 137.535 103.262 137.497C102.623 137.187 101.783 135.398 102.367 135.806C102.367 135.818 102.803 136.994 103.365 137.292C104.004 137.729 103.349 138.077 102.847 138.16Z" fill="#C26257"/>
<path d="M93.5919 137.336C93.9357 139.324 94.6341 141.556 96.2057 142.848C95.3272 141.777 94.7596 139.368 94.7596 139.368L95.1525 138.286C101.952 135.955 101.286 130.392 101.286 130.392C97.1006 127.034 92.6261 132.79 93.5919 137.336Z" fill="#E57E62"/>
<path d="M100.617 129.875C100.617 129.875 101.179 135.393 95.1007 137.73L92.8907 136.537C90.6916 132.316 94.5386 125.97 100.617 129.875Z" fill="#101010"/>
<path d="M93.3947 128.344C94.8844 133.536 100.86 131.874 99.5226 126.643C98.0329 121.45 92.0578 123.113 93.3947 128.344Z" fill="#101010"/>
<path d="M92.3561 138.36C92.8309 140.602 95.6247 139.967 95.1009 137.73C94.6262 135.487 91.8323 136.123 92.3561 138.36Z" fill="#F69372"/>
<path d="M93.0905 138.816C92.6213 138.33 92.7904 137.341 93.0305 137.164C93.4725 136.8 94.2692 136.982 94.2146 137.209C94.0782 137.435 93.6198 136.96 93.1888 137.33C92.7468 137.667 93.3579 138.623 93.096 138.816H93.0905Z" fill="#C26257"/>
<path d="M94.1389 138.641C93.9097 138.629 93.8115 137.784 92.9275 137.707C92.8675 137.707 92.8184 137.652 92.8184 137.585C93.435 137.105 94.5591 138.679 94.1389 138.641Z" fill="#C26257"/>
<path d="M93.6075 139.236C93.6075 139.567 94.1204 139.562 94.1149 139.23C94.1149 138.899 93.602 138.904 93.6075 139.236Z" fill="#F4D5BE"/>
<path d="M101.918 139.596C101.776 139.558 101.65 139.464 101.557 139.337C101.361 139.066 101.383 138.707 101.612 138.536C101.727 138.453 101.868 138.431 102.021 138.47C102.163 138.508 102.289 138.602 102.381 138.729C102.578 139 102.556 139.359 102.327 139.53C102.25 139.585 102.158 139.619 102.059 139.619C102.016 139.619 101.967 139.613 101.918 139.596ZM101.738 138.718C101.607 138.812 101.607 139.033 101.738 139.204C101.803 139.293 101.885 139.353 101.978 139.381C102.059 139.403 102.141 139.392 102.196 139.348C102.327 139.254 102.327 139.033 102.196 138.862C102.13 138.773 102.049 138.713 101.956 138.685C101.928 138.68 101.901 138.674 101.874 138.674C101.825 138.674 101.776 138.691 101.738 138.718Z" fill="#C26257"/>
<path d="M99.8439 135.371C99.8766 135.371 99.9148 135.354 99.9312 135.326C100.33 134.752 101.11 134.746 101.115 134.746C101.175 134.746 101.224 134.697 101.224 134.636C101.224 134.575 101.175 134.525 101.115 134.525C101.066 134.525 100.215 134.536 99.7511 135.199C99.7184 135.249 99.7293 135.321 99.7784 135.354C99.8002 135.371 99.8221 135.376 99.8439 135.376V135.371Z" fill="#C26257"/>
<path d="M102.202 134.58C102.202 134.58 102.235 134.58 102.251 134.569C102.939 134.238 103.474 134.558 103.479 134.564C103.528 134.597 103.599 134.58 103.632 134.525C103.665 134.475 103.648 134.404 103.594 134.371C103.566 134.354 102.955 133.984 102.159 134.365C102.104 134.393 102.082 134.459 102.104 134.514C102.12 134.553 102.164 134.58 102.202 134.58Z" fill="#C26257"/>
<g filter="url(#filter0_d_2786_9167)">
<ellipse cx="182.5" cy="300.5" rx="178.5" ry="3.5" fill="#BCD1ED"/>
</g>
<defs>
<filter id="filter0_d_2786_9167" x="0" y="297" width="365" height="15" filterUnits="userSpaceOnUse" color-interpolation-filters="sRGB">
<feFlood flood-opacity="0" result="BackgroundImageFix"/>
<feColorMatrix in="SourceAlpha" type="matrix" values="0 0 0 0 0 0 0 0 0 0 0 0 0 0 0 0 0 0 127 0" result="hardAlpha"/>
<feOffset dy="4"/>
<feGaussianBlur stdDeviation="2"/>
<feComposite in2="hardAlpha" operator="out"/>
<feColorMatrix type="matrix" values="0 0 0 0 0 0 0 0 0 0 0 0 0 0 0 0 0 0 0.25 0"/>
<feBlend mode="normal" in2="BackgroundImageFix" result="effect1_dropShadow_2786_9167"/>
<feBlend mode="normal" in="SourceGraphic" in2="effect1_dropShadow_2786_9167" result="shape"/>
</filter>
</defs>
</svg>
