<svg width="37" height="37" viewBox="0 0 37 37" fill="none" xmlns="http://www.w3.org/2000/svg">
<rect x="0.5" y="0.5" width="36.0005" height="35.803" rx="4.5" fill="white"/>
<rect x="0.5" y="0.5" width="36.0005" height="35.803" rx="4.5" stroke="#8CBCD9"/>
<path d="M20.0023 8.44057L24.2654 6L31.8983 10.9278L27.204 14.2562M27.4061 21.5184L32.0005 18.0454M27.4061 19.7204L32.0005 16.2474M27.4061 17.9231L32.0005 14.4501M27.4061 16.1258L32.0005 12.6528M13.04 11.8771L18.6626 8.63381L26.1598 14.5041V22.9948L21.8055 26.2624V18.2778L13.04 11.8771Z" stroke="#405768" stroke-linecap="round" stroke-linejoin="round"/>
<path d="M26.756 11.761L28.7431 10.3576L27.3821 9.51501L26.289 10.2792M5 23.776L14.8827 30.8031L20.2994 26.8098" stroke="#405768" stroke-linecap="round" stroke-linejoin="round"/>
<path d="M5 21.9725L14.8827 28.9996L20.2994 25.0064" stroke="#405768" stroke-linecap="round" stroke-linejoin="round"/>
<path d="M5.07617 20.1691L14.9588 27.1968L20.3756 23.2036" stroke="#405768" stroke-linecap="round" stroke-linejoin="round"/>
<path d="M5.06641 18.3664L14.9483 25.3935L20.3651 21.4002M15.7532 18.2326C15.5883 18.9265 14.5171 19.2826 13.3612 19.0265C12.2053 18.7711 11.4019 18.0015 11.5668 17.3069C11.7317 16.613 12.803 16.2575 13.9588 16.513C15.1147 16.7684 15.9182 17.5386 15.7532 18.2326Z" stroke="#405768" stroke-linecap="round" stroke-linejoin="round"/>
<path d="M11.9693 12.8784L5.18652 16.6589L14.9145 23.4947L20.4896 19.4305" stroke="#405768" stroke-linecap="round" stroke-linejoin="round"/>
</svg>
