<svg width="33" height="33" viewBox="0 0 33 33" fill="none" xmlns="http://www.w3.org/2000/svg">
<path d="M6.6 19.8H19.8V16.5H6.6V19.8ZM6.6 14.85H26.4V11.55H6.6V14.85ZM6.6 9.9H26.4V6.6H6.6V9.9ZM0 33V3.3C0 2.3925 0.3234 1.6159 0.9702 0.9702C1.617 0.3245 2.3936 0.0011 3.3 0H29.7C30.6075 0 31.3846 0.3234 32.0314 0.9702C32.6782 1.617 33.0011 2.3936 33 3.3V23.1C33 24.0075 32.6771 24.7846 32.0314 25.4314C31.3857 26.0782 30.6086 26.4011 29.7 26.4H6.6L0 33ZM5.1975 23.1H29.7V3.3H3.3V24.9562L5.1975 23.1Z" fill="#405768"/>
</svg>
