<svg width="45" height="35" viewBox="0 0 45 35" fill="none" xmlns="http://www.w3.org/2000/svg">
<path d="M34.4436 10.2028L30.3051 0L30.251 22.0087L34.8438 34.1953H44.2375L34.4436 10.2028Z" fill="url(#paint0_linear_1021_2843)"/>
<path d="M26.1679 10.2L17.4854 31.4383H26.7386L30.2519 22.0087L30.306 0L26.1679 10.2Z" fill="url(#paint1_linear_1021_2843)"/>
<path d="M18.0715 10.2028L13.9317 0L13.8789 22.0087L14.8798 24.6523L16.5649 29.3573L18.4718 34.1953H27.8641L18.0715 10.2028Z" fill="url(#paint2_linear_1021_2843)"/>
<path d="M9.79391 10.2L0 34.1953H9.28141L11.1507 29.3559L12.8627 24.6606L13.8796 22.0087L13.9324 0L9.79391 10.2Z" fill="url(#paint3_linear_1021_2843)"/>
<defs>
<linearGradient id="paint0_linear_1021_2843" x1="30.2512" y1="17.0977" x2="44.2377" y2="17.0977" gradientUnits="userSpaceOnUse">
<stop stop-color="#006B2A"/>
<stop offset="0.0291" stop-color="#006F2C"/>
<stop offset="0.2695" stop-color="#008A3A"/>
<stop offset="0.5117" stop-color="#009E45"/>
<stop offset="0.7547" stop-color="#00AA4B"/>
<stop offset="1" stop-color="#00AE4D"/>
</linearGradient>
<linearGradient id="paint1_linear_1021_2843" x1="23.8957" y1="31.4383" x2="23.8957" y2="0.000415993" gradientUnits="userSpaceOnUse">
<stop stop-color="#00AE4D"/>
<stop offset="0.1038" stop-color="#23B548"/>
<stop offset="0.2508" stop-color="#4FBE42"/>
<stop offset="0.3999" stop-color="#73C53D"/>
<stop offset="0.5492" stop-color="#8FCB39"/>
<stop offset="0.6987" stop-color="#A3CF37"/>
<stop offset="0.8487" stop-color="#AFD235"/>
<stop offset="1" stop-color="#B2D235"/>
</linearGradient>
<linearGradient id="paint2_linear_1021_2843" x1="13.879" y1="17.0977" x2="27.8641" y2="17.0977" gradientUnits="userSpaceOnUse">
<stop stop-color="#003D7B"/>
<stop offset="0.0047" stop-color="#003E7B"/>
<stop offset="0.2511" stop-color="#005A91"/>
<stop offset="0.4993" stop-color="#006DA0"/>
<stop offset="0.7485" stop-color="#0079A9"/>
<stop offset="1" stop-color="#007DAC"/>
</linearGradient>
<linearGradient id="paint3_linear_1021_2843" x1="6.96602" y1="34.1953" x2="6.96602" y2="0.000415787" gradientUnits="userSpaceOnUse">
<stop stop-color="#007DAC"/>
<stop offset="0.0775" stop-color="#007FAF"/>
<stop offset="0.5363" stop-color="#0088BB"/>
<stop offset="1" stop-color="#008BBF"/>
</linearGradient>
</defs>
</svg>
