<svg width="33" height="33" viewBox="0 0 33 33" fill="none" xmlns="http://www.w3.org/2000/svg">
<path d="M15 10.5C15 10.3674 15.0527 10.2402 15.1464 10.1464C15.2402 10.0527 15.3674 10 15.5 10H18.5C18.6326 10 18.7598 10.0527 18.8536 10.1464C18.9473 10.2402 19 10.3674 19 10.5C19 10.6326 18.9473 10.7598 18.8536 10.8536C18.7598 10.9473 18.6326 11 18.5 11H15.5C15.3674 11 15.2402 10.9473 15.1464 10.8536C15.0527 10.7598 15 10.6326 15 10.5ZM13 7.5C13 7.36739 13.0527 7.24021 13.1464 7.14645C13.2402 7.05268 13.3674 7 13.5 7H20.5C20.6326 7 20.7598 7.05268 20.8536 7.14645C20.9473 7.24021 21 7.36739 21 7.5C21 7.63261 20.9473 7.75979 20.8536 7.85355C20.7598 7.94732 20.6326 8 20.5 8H13.5C13.3674 8 13.2402 7.94732 13.1464 7.85355C13.0527 7.75979 13 7.63261 13 7.5ZM11 4.5C11 4.36739 11.0527 4.24021 11.1464 4.14645C11.2402 4.05268 11.3674 4 11.5 4H22.5C22.6326 4 22.7598 4.05268 22.8536 4.14645C22.9473 4.24021 23 4.36739 23 4.5C23 4.63261 22.9473 4.75979 22.8536 4.85355C22.7598 4.94732 22.6326 5 22.5 5H11.5C11.3674 5 11.2402 4.94732 11.1464 4.85355C11.0527 4.75979 11 4.63261 11 4.5Z" fill="#405768"/>
<path d="M15.5322 33H12.1579V16.3507L0 2.60068V0H33V2.58582L21.4211 16.3358V27.4056L15.5322 33ZM14.4737 30.8H14.573L19.1053 26.4944V15.5642L30.3593 2.2H2.67039L14.4737 15.5493V30.8Z" fill="#405768"/>
</svg>
