<svg width="586" height="526" viewBox="0 0 586 526" fill="none" xmlns="http://www.w3.org/2000/svg">
<path d="M41.1798 311.102C11.4047 248.484 4.14582 170.867 33.0758 106.552C59.0931 48.7222 116.908 10.9666 178.51 2.10345C252.714 -8.56266 309.14 21.3752 338.674 91.0078C352.301 123.127 359.364 162.595 384.899 188.048C418.522 221.562 466.346 193.245 506.383 205.093C552.2 218.653 560.41 272.816 555.566 313.829C543.674 414.642 444.102 456.731 354.988 468.033C258.011 480.321 152.478 451.489 85.2463 377.674C68.0724 358.827 53.0415 336.04 41.1949 311.117L41.1798 311.102Z" fill="#E2EAF8"/>
<path opacity="0.9" d="M41.1798 311.102C11.4047 248.484 4.14582 170.867 33.0758 106.552C59.0931 48.7222 116.908 10.9666 178.51 2.10345C252.714 -8.56266 309.14 21.3752 338.674 91.0078C352.301 123.127 359.364 162.595 384.899 188.048C418.522 221.562 466.346 193.245 506.383 205.093C552.2 218.653 560.41 272.816 555.566 313.829C543.674 414.642 444.102 456.731 354.988 468.033C258.011 480.321 152.478 451.489 85.2463 377.674C68.0724 358.827 53.0415 336.04 41.1949 311.117L41.1798 311.102Z" fill="#E2EAF8"/>
<path d="M292.605 526C454.206 526 585.209 518.321 585.209 508.849C585.209 499.377 454.206 491.699 292.605 491.699C131.004 491.699 0 499.377 0 508.849C0 518.321 131.004 526 292.605 526Z" fill="#D6D7D8"/>
<path d="M27.373 399.612C27.373 399.612 36.1713 392.249 43.7169 399.612C51.2625 406.975 52.7264 452.624 52.7264 452.624" stroke="#34404F" stroke-miterlimit="10"/>
<path d="M53.3573 461.427C53.3573 461.427 48.1659 407.869 67.7091 385.355" stroke="#34404F" stroke-miterlimit="10"/>
<path d="M51.4865 455.776C51.4865 455.776 55.4857 394.809 40.832 381.28" stroke="#34404F" stroke-miterlimit="10"/>
<path d="M53.3594 455.776C53.3594 455.776 53.7065 415.49 64.5873 409.218C75.4681 402.961 81.0217 423.384 81.0217 423.384" stroke="#34404F" stroke-miterlimit="10"/>
<path d="M49.0567 455.775C49.0567 455.775 50.8375 424.838 42.4015 413.793C33.9655 402.733 25.0918 418.535 25.0918 418.535" stroke="#34404F" stroke-miterlimit="10"/>
<path d="M51.9834 459.927C51.9834 459.927 46.5355 387.583 55.56 375.326" stroke="#34404F" stroke-miterlimit="10"/>
<path d="M73.8992 415.097C73.8992 415.097 68.4664 417.112 70.0811 421.854C71.6959 426.596 88.8546 434.399 88.8546 434.399C88.8546 434.399 96.0381 427.778 89.4432 417.021C82.8483 406.264 74.035 411.703 73.8841 415.097H73.8992Z" fill="#9ABBD7"/>
<path opacity="0.2" d="M73.8992 415.097C73.8992 415.097 68.4664 417.112 70.0811 421.854C71.6959 426.596 88.8546 434.399 88.8546 434.399C88.8546 434.399 96.0381 427.778 89.4432 417.021C82.8483 406.264 74.035 411.703 73.8841 415.097H73.8992Z" fill="#9ABBD7"/>
<path d="M50.3132 406.066C50.3132 406.066 56.0932 405.823 56.4252 410.823C56.7572 415.823 43.8995 429.656 43.8995 429.656C43.8995 429.656 34.724 426.322 36.7009 413.853C38.6779 401.384 48.8796 402.99 50.3132 406.066Z" fill="#9ABBD7"/>
<path opacity="0.2" d="M50.3132 406.066C50.3132 406.066 56.0932 405.823 56.4252 410.823C56.7572 415.823 43.8995 429.656 43.8995 429.656C43.8995 429.656 34.724 426.322 36.7009 413.853C38.6779 401.384 48.8796 402.99 50.3132 406.066Z" fill="#9ABBD7"/>
<path d="M45.4029 382.128C45.4029 382.128 49.2512 381.719 48.9493 379.356C48.6475 376.992 33.9637 370.932 25.3164 380.734C25.3164 380.734 30.8549 390.294 38.8684 390.416C46.8818 390.537 45.4029 382.113 45.4029 382.113V382.128Z" fill="#9ABBD7"/>
<path opacity="0.2" d="M45.4029 382.128C45.4029 382.128 49.2512 381.719 48.9493 379.356C48.6475 376.992 33.9637 370.932 25.3164 380.734C25.3164 380.734 30.8549 390.294 38.8684 390.416C46.8818 390.537 45.4029 382.113 45.4029 382.113V382.128Z" fill="#9ABBD7"/>
<path d="M52.5949 376.402C52.5949 376.402 49.1088 378.099 48.1279 375.933C47.1469 373.766 56.413 360.827 68.9236 364.554C68.9236 364.554 69.2556 375.614 62.5249 379.963C55.7942 384.326 52.61 376.387 52.61 376.387L52.5949 376.402Z" fill="#9ABBD7"/>
<path opacity="0.2" d="M52.5949 376.402C52.5949 376.402 49.1088 378.099 48.1279 375.933C47.1469 373.766 56.413 360.827 68.9236 364.554C68.9236 364.554 69.2556 375.614 62.5249 379.963C55.7942 384.326 52.61 376.387 52.61 376.387L52.5949 376.402Z" fill="#9ABBD7"/>
<path d="M34.3429 413.188C34.3429 413.188 36.999 411.037 34.1316 409.976C31.2643 408.931 17.169 409.219 17.0332 423.233C17.0332 423.233 33.4374 425.975 35.4747 420.627C37.5121 415.294 34.358 413.173 34.358 413.173L34.3429 413.188Z" fill="#9ABBD7"/>
<path opacity="0.2" d="M34.3429 413.188C34.3429 413.188 36.999 411.037 34.1316 409.976C31.2643 408.931 17.169 409.219 17.0332 423.233C17.0332 423.233 33.4374 425.975 35.4747 420.627C37.5121 415.294 34.358 413.173 34.358 413.173L34.3429 413.188Z" fill="#9ABBD7"/>
<path d="M67.8035 381.779C67.8035 381.779 65.1474 379.628 68.0148 378.567C70.8821 377.507 84.9774 377.81 85.1132 391.824C85.1132 391.824 68.709 394.567 66.6717 389.218C64.6343 383.885 67.7884 381.779 67.7884 381.779H67.8035Z" fill="#9ABBD7"/>
<path opacity="0.2" d="M67.8035 381.779C67.8035 381.779 65.1474 379.628 68.0148 378.567C70.8821 377.507 84.9774 377.81 85.1132 391.824C85.1132 391.824 68.709 394.567 66.6717 389.218C64.6343 383.885 67.7884 381.779 67.7884 381.779H67.8035Z" fill="#9ABBD7"/>
<path d="M59.1179 393.052C59.1179 393.052 58.8764 390.431 60.9892 391.461C63.102 392.491 70.4364 400.446 62.8304 407.991C62.8304 407.991 52.5834 400.37 54.4245 396.4C56.2657 392.431 59.1179 393.052 59.1179 393.052Z" fill="#9ABBD7"/>
<path opacity="0.2" d="M59.1179 393.052C59.1179 393.052 58.8764 390.431 60.9892 391.461C63.102 392.491 70.4364 400.446 62.8304 407.991C62.8304 407.991 52.5834 400.37 54.4245 396.4C56.2657 392.431 59.1179 393.052 59.1179 393.052Z" fill="#9ABBD7"/>
<path d="M31.9605 396.795C31.9605 396.795 33.5451 394.704 31.2211 394.446C28.897 394.189 18.4538 396.976 20.8835 407.445C20.8835 407.445 33.5904 406.491 34.1488 402.143C34.7071 397.794 31.9605 396.795 31.9605 396.795Z" fill="#9ABBD7"/>
<path opacity="0.2" d="M31.9605 396.795C31.9605 396.795 33.5451 394.704 31.2211 394.446C28.897 394.189 18.4538 396.976 20.8835 407.445C20.8835 407.445 33.5904 406.491 34.1488 402.143C34.7071 397.794 31.9605 396.795 31.9605 396.795Z" fill="#9ABBD7"/>
<path d="M74.9233 494.607H31.2944L26.5859 446.655H79.6167L74.9233 494.607Z" fill="#407BFF"/>
<path d="M74.9233 494.607H31.2944L26.5859 446.655H79.6167L74.9233 494.607Z" fill="#E3794E"/>
<path d="M81.9595 441.368H24.2656V451.943H81.9595V441.368Z" fill="#407BFF"/>
<path d="M81.9595 441.368H24.2656V451.943H81.9595V441.368Z" fill="#E3794E"/>
<path d="M428.457 494.608L428.548 494.047L431.113 464.079H441.979L434.207 494.608" fill="#34404F"/>
<path d="M529.145 494.608L529.054 494.047L526.489 464.079H515.623L523.395 494.608" fill="#34404F"/>
<path d="M414.121 494.609L414.212 494.048L419.162 464.08H430.027L419.871 494.609" fill="#263238"/>
<path d="M543.478 494.609L543.373 494.048L538.438 464.08H527.572L537.729 494.609" fill="#263238"/>
<path d="M414.121 494.609L414.212 494.048L419.162 464.08H430.027L419.871 494.609" fill="#34404F"/>
<path d="M543.478 494.609L543.373 494.048L538.438 464.08H527.572L537.729 494.609" fill="#34404F"/>
<path d="M544.294 284.694H413.317C410 284.694 407.311 287.394 407.311 290.724V464.73C407.311 468.061 410 470.76 413.317 470.76H544.294C547.611 470.76 550.3 468.061 550.3 464.73V290.724C550.3 287.394 547.611 284.694 544.294 284.694Z" fill="#407BFF"/>
<path d="M544.294 284.694H413.317C410 284.694 407.311 287.394 407.311 290.724V464.73C407.311 468.061 410 470.76 413.317 470.76H544.294C547.611 470.76 550.3 468.061 550.3 464.73V290.724C550.3 287.394 547.611 284.694 544.294 284.694Z" fill="#9ABBD7"/>
<path opacity="0.5" d="M544.461 325.268H413.137V392.431H544.461V325.268Z" fill="white"/>
<path opacity="0.5" d="M544.461 396.9H413.137V464.063H544.461V396.9Z" fill="white"/>
<path opacity="0.5" d="M544.461 291.376H413.137V320.783H544.461V291.376Z" fill="white"/>
<path d="M489.541 296.27H468.066C466.753 296.27 465.546 295.512 464.972 294.33L463.523 291.376H494.068L492.619 294.33C492.046 295.512 490.839 296.27 489.526 296.27H489.541Z" fill="#34404F"/>
<path d="M489.541 330.147H468.066C466.753 330.147 465.546 329.39 464.972 328.208L463.523 325.253H494.068L492.619 328.208C492.046 329.39 490.839 330.147 489.526 330.147H489.541Z" fill="#34404F"/>
<path d="M489.541 401.794H468.066C466.753 401.794 465.546 401.037 464.972 399.855L463.523 396.9H494.068L492.619 399.855C492.046 401.037 490.839 401.794 489.526 401.794H489.541Z" fill="#34404F"/>
<path d="M516.994 264.166L528.342 284.695H514.217L516.994 264.166Z" fill="#407BFF"/>
<path d="M516.994 264.166L528.342 284.695H514.217L516.994 264.166Z" fill="#34404F"/>
<path d="M520.788 284.695H494.076L502.437 249.954H529.148L520.788 284.695Z" fill="#34404F"/>
<path d="M497.75 281.937L504.783 252.711H525.458L518.425 281.937H497.75Z" fill="#9ABBD7"/>
<path d="M442.625 268.878L436 284.695H453.717L442.625 268.878Z" fill="#34404F"/>
<path d="M478.798 284.695H444.872L436.904 260.014H470.845L478.798 284.695Z" fill="#407BFF"/>
<path d="M478.798 284.695H444.872L436.904 260.014H470.845L478.798 284.695Z" fill="#34404F"/>
<path d="M446.745 281.134L441.07 263.575H468.974L474.633 281.134H446.745Z" fill="#9ABBD7"/>
<path d="M110.845 99.0981H327.662C336.324 99.0981 343.356 106.158 343.356 114.855V501.228C343.356 509.925 336.324 516.985 327.662 516.985H110.845C102.183 516.985 95.1504 509.925 95.1504 501.228V114.855C95.1504 106.158 102.183 99.0981 110.845 99.0981Z" fill="#34404F"/>
<path d="M334.98 114.113V501.183C334.98 504.622 332.234 507.289 328.808 507.289H109.034C105.895 507.289 103.525 504.85 103.525 501.698V113.613C103.525 110.885 105.517 108.492 108.249 108.492H163.196C164.751 108.492 166.154 109.507 166.728 110.976L169.006 116.597C169.58 118.052 170.998 119.052 172.538 119.052H266.089C267.643 119.052 269.046 118.082 269.62 116.643L271.899 110.992C272.472 109.522 273.891 108.492 275.43 108.492H329.593C332.596 108.492 334.98 111.113 334.98 114.113Z" fill="#407BFF"/>
<path d="M334.98 114.113V501.183C334.98 504.622 332.234 507.289 328.808 507.289H109.034C105.895 507.289 103.525 504.85 103.525 501.698V113.613C103.525 110.885 105.517 108.492 108.249 108.492H163.196C164.751 108.492 166.154 109.507 166.728 110.976L169.006 116.597C169.58 118.052 170.998 119.052 172.538 119.052H266.089C267.643 119.052 269.046 118.082 269.62 116.643L271.899 110.992C272.472 109.522 273.891 108.492 275.43 108.492H329.593C332.596 108.492 334.98 111.113 334.98 114.113Z" fill="#9ABBD7"/>
<path d="M336.367 134.565H104.912V478.804H336.367V134.565Z" fill="#E2EAF8"/>
<path opacity="0.6" d="M131.878 121.476H129.025V125.309H131.878V121.476Z" fill="#34404F"/>
<path opacity="0.6" d="M127.216 120.204H124.363V125.309H127.216V120.204Z" fill="#34404F"/>
<path opacity="0.6" d="M122.571 118.931H119.719V125.309H122.571V118.931Z" fill="#34404F"/>
<path opacity="0.6" d="M117.907 117.643H115.055V125.294H117.907V117.643Z" fill="#34404F"/>
<path opacity="0.6" d="M308.786 120.082H307.096V123.915H308.786V120.082Z" fill="#34404F"/>
<path opacity="0.6" d="M323.466 118.688H309.959V125.308H323.466V118.688Z" fill="#34404F"/>
<path opacity="0.6" d="M219.217 109.037C219.217 110.795 217.798 112.234 216.032 112.234C214.267 112.234 212.863 110.81 212.863 109.037C212.863 107.265 214.282 105.84 216.032 105.84C217.783 105.84 219.217 107.265 219.217 109.037Z" fill="white"/>
<path opacity="0.6" d="M225.649 109.038C225.649 110.159 224.743 111.083 223.612 111.083C222.48 111.083 221.574 110.174 221.574 109.038C221.574 107.901 222.48 106.992 223.612 106.992C224.743 106.992 225.649 107.901 225.649 109.038Z" fill="white"/>
<path d="M335.632 133.46H102.789V173.2H335.632V133.46Z" fill="#34404F"/>
<path d="M325.157 157.686V154.626H322.471C322.29 153.838 321.988 153.11 321.565 152.459L323.467 150.55L321.309 148.383L319.407 150.292C318.758 149.883 318.034 149.565 317.249 149.383V146.687H314.201V149.383C313.416 149.565 312.692 149.868 312.043 150.292L310.141 148.383L307.983 150.55L309.885 152.459C309.477 153.11 309.16 153.838 308.979 154.626H306.293V157.686H308.979C309.16 158.474 309.462 159.201 309.885 159.852L307.983 161.761L310.141 163.928L312.043 162.019C312.692 162.428 313.416 162.746 314.201 162.928V165.625H317.249V162.928C318.034 162.746 318.743 162.443 319.407 162.019L321.309 163.928L323.467 161.761L321.565 159.852C321.973 159.201 322.29 158.474 322.471 157.686H325.157ZM315.74 158.989C314.186 158.989 312.933 157.731 312.933 156.156C312.933 154.58 314.201 153.338 315.74 153.338C317.279 153.338 318.562 154.61 318.562 156.156C318.562 157.701 317.294 158.989 315.74 158.989Z" fill="white"/>
<path d="M123.538 147.808L113.352 157.52H116.506V164.489H130.571V157.52H133.71L123.538 147.808Z" fill="white"/>
<path d="M262.259 241.03C262.259 251.833 258.305 261.726 251.755 269.301C243.877 278.437 232.227 284.21 219.263 284.21C206.3 284.21 194.635 278.437 186.742 269.301C180.192 261.726 176.238 251.833 176.238 241.03C176.238 217.198 195.495 197.866 219.248 197.866C243.002 197.866 262.243 217.198 262.243 241.03H262.259Z" fill="#34404F"/>
<path d="M251.769 269.301C243.891 278.437 232.241 284.209 219.278 284.209C206.314 284.209 194.649 278.437 186.756 269.301C189.91 257.908 198.829 248.969 210.132 245.772C205.62 242.787 202.632 237.666 202.632 231.818C202.632 222.591 210.072 215.122 219.262 215.122C228.453 215.122 235.878 222.607 235.878 231.818C235.878 237.666 232.89 242.787 228.378 245.772C239.681 248.969 248.615 257.908 251.754 269.301H251.769Z" fill="white"/>
<path d="M287.807 332.843H137.921C131.658 332.843 126.572 327.738 126.572 321.45C126.572 315.162 131.658 310.057 137.921 310.057H287.807C294.07 310.057 299.156 315.162 299.156 321.45C299.156 327.738 294.07 332.843 287.807 332.843Z" fill="#E4E2DF" stroke="#7A7A7A" stroke-miterlimit="10"/>
<g opacity="0.8">
<path d="M290.977 387.446H141.091C134.828 387.446 129.742 382.34 129.742 376.052C129.742 369.765 134.828 364.659 141.091 364.659H290.977C297.24 364.659 302.326 369.765 302.326 376.052C302.326 382.34 297.24 387.446 290.977 387.446Z" fill="#E4E2DF" stroke="#7A7A7A" stroke-miterlimit="10"/>
</g>
<g opacity="0.8">
<path d="M287.809 448.368H137.923C131.66 448.368 126.574 443.262 126.574 436.974C126.574 430.687 131.66 425.581 137.923 425.581H287.809C294.072 425.581 299.158 430.687 299.158 436.974C299.158 443.262 294.072 448.368 287.809 448.368Z" fill="#E4E2DF" stroke="#7A7A7A" stroke-miterlimit="10"/>
</g>
<path d="M488.941 158.382L424.124 157.761C421.045 157.715 418.585 155.185 418.616 152.094L419.234 132.474C419.28 129.383 421.8 126.914 424.878 126.944L489.695 127.565C492.774 127.611 495.234 130.141 495.204 133.232L494.585 152.852C494.54 155.943 492.019 158.412 488.941 158.382Z" fill="#E3AC28"/>
<path d="M455.59 153.428C455.59 153.428 447.38 171.654 429.422 177.169C429.422 177.169 439.382 171.564 438.854 152.458L455.59 153.428Z" fill="#E3AC28"/>
<path d="M435.446 142.443L436.986 143.276L436.291 144.443L434.737 143.519L434.767 145.246H433.439V143.504L431.9 144.443L431.221 143.276L432.76 142.443L431.221 141.595L431.9 140.428L433.454 141.367V139.625H434.767L434.737 141.367L436.291 140.428L436.986 141.595L435.446 142.443Z" fill="white"/>
<path d="M444.712 142.443L446.251 143.276L445.557 144.443L444.003 143.519L444.033 145.246H442.705V143.504L441.165 144.443L440.486 143.276L442.026 142.443L440.486 141.595L441.165 140.428L442.72 141.367V139.625H444.033L444.003 141.367L445.557 140.428L446.251 141.595L444.712 142.443Z" fill="white"/>
<path d="M453.993 142.443L455.532 143.276L454.838 144.443L453.284 143.519L453.314 145.246H451.986V143.504L450.447 144.443L449.768 143.276L451.307 142.443L449.768 141.595L450.447 140.428L452.001 141.367V139.625H453.314L453.284 141.367L454.838 140.428L455.532 141.595L453.993 142.443Z" fill="white"/>
<path d="M463.261 142.443L464.8 143.276L464.106 144.443L462.551 143.519L462.582 145.246H461.254V143.504L459.714 144.443L459.035 143.276L460.574 142.443L459.035 141.595L459.714 140.428L461.269 141.367V139.625H462.582L462.551 141.367L464.106 140.428L464.8 141.595L463.261 142.443Z" fill="white"/>
<path d="M472.522 142.443L474.062 143.276L473.368 144.443L471.813 143.519L471.843 145.246H470.515V143.504L468.976 144.443L468.297 143.276L469.836 142.443L468.297 141.595L468.976 140.428L470.53 141.367V139.625H471.843L471.813 141.367L473.368 140.428L474.062 141.595L472.522 142.443Z" fill="white"/>
<path d="M481.806 142.443L483.345 143.276L482.651 144.443L481.096 143.519L481.127 145.246H479.798V143.504L478.259 144.443L477.58 143.276L479.119 142.443L477.58 141.595L478.259 140.428L479.814 141.367V139.625H481.127L481.096 141.367L482.651 140.428L483.345 141.595L481.806 142.443Z" fill="white"/>
<path d="M497.959 97.7441C513.263 93.8592 522.532 78.2544 518.663 62.8899C514.793 47.5254 499.249 38.2194 483.945 42.1043C468.641 45.9893 459.371 61.5941 463.241 76.9586C467.111 92.3231 482.654 101.629 497.959 97.7441Z" fill="#E0E0E0"/>
<path d="M514.594 75.4768C517.677 62.3654 509.588 49.2278 496.528 46.1332C483.468 43.0386 470.382 51.1589 467.3 64.2704C464.218 77.3818 472.306 90.5194 485.366 93.614C498.426 96.7086 511.512 88.5883 514.594 75.4768Z" fill="#F0F0F0"/>
<path d="M489.811 53.1455V70.2052L478.553 63.8116" fill="#F0F0F0"/>
<path d="M489.811 53.1455V70.2052L478.553 63.8116" stroke="#E0E0E0" stroke-width="2" stroke-linecap="round" stroke-linejoin="round"/>
<path d="M386.38 190.274C395.013 191.622 403.388 218.303 407.025 220.515C410.662 222.727 407.523 195.516 407.523 195.516L414.435 194.577C414.435 194.577 422.614 235.681 410.677 235.378C401.592 235.15 390.757 219.878 388.101 212.121L386.365 190.274H386.38Z" fill="#F7E2CA"/>
<path opacity="0.1" d="M410.689 235.378C405.181 235.241 399.008 229.56 394.421 223.378C391.463 219.378 389.154 215.167 388.112 212.121L387.222 200.91L386.377 190.274C395.009 191.622 403.385 218.318 407.022 220.515C410.659 222.727 407.535 195.516 407.535 195.516L414.447 194.592C414.447 194.592 422.626 235.681 410.689 235.378Z" fill="#F7E2CA"/>
<path opacity="0.2" d="M394.423 223.379C391.465 219.379 389.156 215.167 388.115 212.122L387.225 200.911H387.24C387.24 200.911 396.642 210.425 394.423 223.379Z" fill="black"/>
<path d="M354.598 135.11C354.598 135.11 339.22 134.929 339.974 156.155C340.714 177.366 355.503 177.669 350.568 183.82C350.568 183.82 362.913 190.108 378.457 183.82C378.457 183.82 375.74 182.729 377.038 178.851C378.336 174.957 385.459 169.381 386.153 161.17C386.848 152.958 370.504 133.004 354.613 135.126L354.598 135.11Z" fill="#34404F"/>
<path d="M369.795 175.745C369.795 175.745 389.413 172.109 386.138 153.383C383.452 138.035 376.329 133.111 369.795 130.914C364.241 129.051 358.325 130.732 354.235 136.156C354.235 136.156 340.925 132.369 343.234 154.352C345.543 176.336 360.015 185.76 369.795 175.76V175.745Z" fill="#34404F"/>
<path d="M405.561 489.532L396.838 485.047L400.007 471.972L402.935 459.973L413.921 463.578L409.499 477.32L405.561 489.532Z" fill="#F7E2CA"/>
<path d="M394.41 482.986C394.924 482.016 406.634 488.834 406.634 488.834C406.634 488.834 410.302 500.152 416.685 505.47C423.069 510.788 416.866 513.121 408.792 509.091C400.719 505.045 394.546 501.97 388.812 499.106C383.077 496.243 389.098 493.122 394.41 483.001V482.986Z" fill="#34404F"/>
<path d="M410.603 494.592C409.124 493.501 407.6 491.607 407.192 491.077C407.162 491.047 407.147 491.001 407.132 490.956C407.132 490.956 407.117 490.865 407.132 490.82C407.132 490.789 407.132 490.759 407.147 490.729C407.162 490.683 407.192 490.638 407.237 490.592C407.343 490.486 409.773 488.168 411.735 488.305C412.368 488.35 412.881 488.623 413.274 489.123C413.696 489.653 413.787 490.138 413.561 490.547C413.213 491.168 412.021 491.38 410.784 491.411C411.855 491.82 412.881 492.38 413.349 493.062C413.591 493.426 413.666 493.819 413.591 494.213C413.41 495.032 412.987 495.289 412.655 495.365C412.082 495.501 411.342 495.153 410.603 494.592ZM408.399 491.426C409.803 493.077 411.689 494.85 412.489 494.668C412.565 494.653 412.776 494.607 412.881 494.062C412.927 493.865 412.881 493.668 412.746 493.471C412.127 492.532 409.893 491.804 408.384 491.426H408.399ZM412.414 489.289C412.202 489.138 411.961 489.047 411.674 489.032C410.603 488.956 409.184 489.895 408.309 490.608C410.437 490.82 412.64 490.744 412.942 490.214C413.032 490.047 412.836 489.759 412.715 489.592C412.625 489.471 412.534 489.38 412.429 489.305L412.414 489.289Z" fill="#9ABBD7"/>
<path opacity="0.2" d="M409.393 477.592L399.916 472.214L402.889 460.093L413.906 463.639L409.393 477.592Z" fill="black"/>
<path d="M390.164 500.471H380.188L377.336 487.593L374.74 475.79L386.406 474.002L388.398 488.017L390.164 500.471Z" fill="#F7E2CA"/>
<path d="M376.899 500.076C376.929 498.97 390.436 499.833 390.436 499.833C390.436 499.833 398.751 508.318 406.825 510.227C414.899 512.136 410.386 516.999 401.362 516.999H379.042C372.628 516.999 376.642 511.514 376.899 500.076Z" fill="#34404F"/>
<path d="M397.525 503.303C395.639 503.303 392.636 501.925 391.927 501.591C391.881 501.576 391.836 501.531 391.806 501.5C391.806 501.5 391.776 501.455 391.761 501.425C391.715 501.334 391.715 501.243 391.761 501.152C391.806 501.016 392.938 497.849 394.779 497.092C395.367 496.849 395.956 496.864 396.529 497.137C397.148 497.425 397.45 497.819 397.42 498.273C397.374 498.985 396.409 499.697 395.322 500.288C396.469 500.182 397.631 500.213 398.355 500.622C398.733 500.849 398.974 501.152 399.08 501.546C399.291 502.349 399.019 502.773 398.748 502.985C398.461 503.212 398.054 503.303 397.556 503.303H397.525ZM393.164 501.364C395.156 502.212 397.631 502.955 398.265 502.44C398.325 502.394 398.491 502.258 398.355 501.728C398.31 501.531 398.174 501.379 397.963 501.258C396.997 500.697 394.673 501.046 393.164 501.379V501.364ZM395.579 497.622C395.398 497.622 395.216 497.667 395.035 497.743C394.039 498.152 393.179 499.637 392.711 500.652C394.718 499.894 396.65 498.834 396.68 498.228C396.68 498.046 396.378 497.864 396.197 497.773C395.986 497.667 395.775 497.622 395.579 497.622Z" fill="#9ABBD7"/>
<path opacity="0.2" d="M388.429 488.305L377.367 487.85L374.756 475.911L386.421 474.063L388.429 488.305Z" fill="black"/>
<path d="M341.524 264.771L366.032 260.831L388.231 256.286L394.207 292.587C394.207 292.587 425.461 338.039 433.037 369.295C440.613 400.551 412.211 473.123 412.211 473.123L399.142 467.32C399.142 467.32 408.212 397.551 407.986 389.158C407.85 383.704 390.027 358.553 377.562 341.615C377.215 345.857 381.244 388.309 381.244 388.309L390.042 481.335H373.653C317.091 305.056 341.539 264.771 341.539 264.771H341.524Z" fill="#263238"/>
<path d="M373.641 481.335H390.03L381.232 388.309C381.232 388.309 377.218 345.584 377.55 341.615C380.01 344.963 382.681 348.615 385.382 352.387C396.354 367.704 407.868 384.779 407.974 389.158C408.185 397.551 399.13 467.32 399.13 467.32L412.184 473.123C412.184 473.123 440.601 400.551 433.025 369.295C425.45 338.055 394.196 292.587 394.196 292.587L388.219 256.286L366.02 260.831L341.527 264.771C341.527 264.771 317.079 305.056 373.641 481.335Z" fill="#34404F"/>
<path d="M398.448 461.457L417.72 468.123L413.419 474.744L397.588 469.078L398.448 461.457Z" fill="#9ABBD7"/>
<path d="M371.287 479.108L391.902 476.275L390.876 484.002L373.853 486.153L371.287 479.108Z" fill="#9ABBD7"/>
<path opacity="0.2" d="M377.549 341.614C380.009 344.963 382.68 348.614 385.382 352.387C381.066 329.933 375.98 308.071 375.98 308.071C374.833 325.782 377.549 341.614 377.549 341.614Z" fill="black"/>
<path d="M387.784 257.71L343.099 260.816C343.099 260.816 342.495 236.787 338.933 224.288C338.451 222.606 337.922 220.848 337.334 218.97C336.504 216.333 335.553 213.5 334.466 210.409C334.21 209.682 333.561 207.864 332.776 205.758C331.463 202.167 332.474 198.35 334.964 195.895C336.157 194.698 337.696 193.819 339.477 193.426C342.767 192.698 346.011 192.017 347.777 191.744C354.462 190.683 361.208 190.032 367.999 189.82C373.734 189.774 380.027 190.153 383.694 190.411C385.626 190.547 386.833 190.653 386.833 190.653C386.833 190.653 388.252 190.971 389.157 199.319C389.987 207.167 389.595 229.166 387.784 257.71Z" fill="#E3AC28"/>
<path d="M366.503 199.335C355.23 197.305 352.076 192.26 352.076 192.26C359.622 185.806 354.234 173.685 354.234 173.685L367.756 176.942C367.288 179.185 367.032 181.079 366.926 182.685C366.398 191.002 370.14 191.275 370.14 191.275C372.314 195.911 366.488 199.335 366.488 199.335H366.503Z" fill="#F7E2CA"/>
<path opacity="0.2" d="M367.754 176.942C367.286 179.185 367.029 181.079 366.924 182.685C360.419 180.821 354.217 173.685 354.217 173.685L367.739 176.942H367.754Z" fill="black"/>
<path d="M366.764 138.08C378.626 139.156 381.87 145.868 381.629 158.215C381.342 173.639 376.981 184.229 362.448 179.608C342.708 173.351 347.07 136.307 366.764 138.08Z" fill="#F7E2CA"/>
<path d="M374.021 156.852C374.021 156.852 375.379 160.109 377.024 162.094C377.024 162.094 375.862 163.624 373.779 163.155L374.021 156.837V156.852Z" fill="#C6A083"/>
<path d="M366.852 155.232C366.792 156.216 366.203 156.974 365.554 156.929C364.905 156.883 364.423 156.05 364.498 155.08C364.558 154.095 365.147 153.338 365.796 153.383C366.445 153.429 366.928 154.262 366.852 155.232Z" fill="#263238"/>
<path d="M365.51 153.398L367.683 152.701C367.683 152.701 366.506 154.428 365.51 153.398Z" fill="#263238"/>
<path d="M378.999 155.837C378.938 156.821 378.35 157.579 377.701 157.534C377.052 157.488 376.569 156.655 376.644 155.685C376.705 154.7 377.293 153.943 377.942 153.988C378.591 154.034 379.074 154.867 378.999 155.837Z" fill="#263238"/>
<path d="M377.656 154.004L379.829 153.307C379.829 153.307 378.652 155.034 377.656 154.004Z" fill="#263238"/>
<path d="M367.471 146.989C367.471 146.989 364.181 146.247 362.174 148.322" stroke="#263238" stroke-width="0.72" stroke-linecap="round" stroke-linejoin="round"/>
<path d="M376.131 147.276C376.131 147.276 378.289 146.685 380.764 148.685" stroke="#263238" stroke-width="0.72" stroke-linecap="round" stroke-linejoin="round"/>
<path d="M351.998 156.974C351.998 156.974 358.411 147.701 358.261 140.065C358.261 140.065 382.618 132.551 381.637 156.595C381.637 156.595 385.832 135.551 365.504 133.232C345.192 130.914 342.566 160.852 352.299 170.73C352.299 170.73 348.044 162.776 352.013 156.974H351.998Z" fill="#34404F"/>
<path d="M353.708 159.655C353.798 157.731 352.123 154.307 348.532 154.383C344.819 154.458 342.389 161.867 351.369 164.518C352.651 164.897 353.512 163.685 353.708 159.67V159.655Z" fill="#F7E2CA"/>
<path d="M372.962 168.17C372.962 168.17 367.982 168.579 366.594 163.958" stroke="#263238" stroke-width="0.71" stroke-linecap="round" stroke-linejoin="round"/>
<path d="M358.385 139.58C358.385 139.58 376.645 136.959 381.444 152.716" stroke="#263238" stroke-width="0.71" stroke-linecap="round" stroke-linejoin="round"/>
<path d="M412.128 178.836C412.128 178.836 418.361 178.73 418.572 179.821C418.783 180.927 418.376 190.078 417.546 191.366C416.716 192.653 414.452 194.502 414.452 194.502L415.056 210.728L411.343 212.031L407.963 197.168C407.963 197.168 404.145 193.426 405.261 188.669C406.378 183.927 412.113 178.806 412.113 178.806L412.128 178.836Z" fill="#F7E2CA"/>
<path opacity="0.1" d="M412.128 178.836C412.128 178.836 418.361 178.73 418.572 179.821C418.783 180.927 418.376 190.078 417.546 191.366C416.716 192.653 414.452 194.502 414.452 194.502L415.056 210.728L411.343 212.031L407.963 197.168C407.963 197.168 404.145 193.426 405.261 188.669C406.378 183.927 412.113 178.806 412.113 178.806L412.128 178.836Z" fill="#F7E2CA"/>
<path d="M401.543 186.835C401.528 187.426 401.981 187.88 402.585 187.835L413.179 187.002C413.767 186.956 414.28 186.441 414.295 185.835L415.035 164.654C415.05 164.064 414.582 163.473 413.979 163.518L403.384 164.351C402.796 164.397 402.298 165.063 402.283 165.654L401.543 186.835Z" fill="#263238"/>
<path opacity="0.5" d="M403.456 165.413L402.702 186.805C402.687 187.411 403.019 187.79 403.607 187.745L412.602 187.048C413.205 187.002 414.277 186.578 414.307 185.972L415.061 164.503C415.077 163.897 414.02 163.504 413.416 163.549L404.437 164.246C403.849 164.291 403.502 164.806 403.471 165.397L403.456 165.413Z" fill="white"/>
<path d="M390.771 202.925L394.8 193.501C394.8 193.501 396.113 180.835 396.747 179.487C397.381 178.138 407.643 178.638 408.745 178.547C409.846 178.456 409.65 191.107 408.579 192.425C407.507 193.744 403.312 194.819 403.312 194.819L396.868 207.364L390.756 202.925H390.771Z" fill="#F7E2CA"/>
<path d="M379.419 197.805C378.332 202.138 374.152 205.471 365.505 205.395C360.011 205.334 355.499 203.274 351.983 200.729C347.908 197.774 345.207 194.199 343.984 192.365C345.237 192.138 346.505 191.941 347.772 191.744C354.458 190.684 361.204 190.032 367.995 189.82C371.571 189.79 375.359 189.926 378.589 190.093C379.66 192.684 380.022 195.396 379.419 197.805Z" fill="#F7E2CA"/>
<path d="M342.975 257.422L341.104 265.634L389.335 263.089L387.947 254.983L342.975 257.422Z" fill="#9ABBD7"/>
<path d="M368.777 257.482L369.336 262.724C369.396 263.3 369.909 263.724 370.483 263.679L377.44 263.118C378.028 263.073 378.466 262.542 378.421 261.952L377.938 256.785C377.877 256.209 377.379 255.785 376.806 255.815L369.773 256.3C369.17 256.346 368.732 256.876 368.792 257.482H368.777Z" stroke="#020202" stroke-miterlimit="10"/>
<path d="M374.482 259.224H377.078" stroke="#020202" stroke-miterlimit="10"/>
<path opacity="0.2" d="M349.633 222.667C345.362 224.137 340.624 221.531 337.334 218.971C336.504 216.334 335.553 213.501 334.466 210.41C334.21 209.683 333.561 207.865 332.776 205.759C331.463 202.168 332.474 198.35 334.964 195.896C343.174 203.668 355.338 220.713 349.633 222.667Z" fill="black"/>
<path d="M334.843 194.896C338.465 191.957 343.792 192.715 346.448 196.548C353.073 206.078 364.195 221.925 365.538 222.698C367.455 223.819 381.928 210.441 394.816 193.472L402.708 196.457C402.708 196.457 382.32 238.546 367.832 238.727C356.982 238.864 340.744 216.774 333.258 205.669C330.919 202.199 331.598 197.517 334.843 194.896Z" fill="#F7E2CA"/>
<path opacity="0.2" d="M349.635 272.362C349.635 272.362 345.953 282.407 336.838 286.013V289.603C336.838 289.603 350.194 283.907 352.05 274.437L349.62 272.362H349.635Z" fill="black"/>
<path opacity="0.2" d="M339.282 325.267L352.064 322.858L355.113 348.645L342.874 350.433L341.108 333.646L352.155 332.07L351.521 325.707L351.34 331.358L338.92 333.358L339.282 325.267Z" fill="black"/>
</svg>
