<svg width="43" height="43" viewBox="0 0 43 43" fill="none" xmlns="http://www.w3.org/2000/svg">
<path d="M32.7619 38.9048H4.09524V10.2381H22.5238V6.14286H4.09524C1.84286 6.14286 0 7.98571 0 10.2381V38.9048C0 41.1571 1.84286 43 4.09524 43H32.7619C35.0143 43 36.8571 41.1571 36.8571 38.9048V20.4762H32.7619V38.9048ZM16.811 32.4138L12.7976 27.5814L7.16667 34.8095H29.6905L22.4419 25.1652L16.811 32.4138ZM36.8571 6.14286V0H32.7619V6.14286H26.619C26.6395 6.16333 26.619 10.2381 26.619 10.2381H32.7619V16.3605C32.7824 16.381 36.8571 16.3605 36.8571 16.3605V10.2381H43V6.14286H36.8571Z" fill="#B0ABAB"/>
</svg>
