<svg width="33" height="33" viewBox="0 0 33 33" fill="none" xmlns="http://www.w3.org/2000/svg">
<path fill-rule="evenodd" clip-rule="evenodd" d="M9.16667 7.33333C9.16667 5.38841 9.93928 3.52315 11.3146 2.14788C12.6898 0.772617 14.5551 0 16.5 0C18.4449 0 20.3102 0.772617 21.6854 2.14788C23.0607 3.52315 23.8333 5.38841 23.8333 7.33333C23.8333 9.27825 23.0607 11.1435 21.6854 12.5188C20.3102 13.8941 18.4449 14.6667 16.5 14.6667C14.5551 14.6667 12.6898 13.8941 11.3146 12.5188C9.93928 11.1435 9.16667 9.27825 9.16667 7.33333ZM9.16667 18.3333C6.73552 18.3333 4.40394 19.2991 2.68485 21.0182C0.965771 22.7373 0 25.0688 0 27.5C0 28.9587 0.579463 30.3576 1.61091 31.3891C2.64236 32.4205 4.04131 33 5.5 33H27.5C28.9587 33 30.3576 32.4205 31.3891 31.3891C32.4205 30.3576 33 28.9587 33 27.5C33 25.0688 32.0342 22.7373 30.3151 21.0182C28.5961 19.2991 26.2645 18.3333 23.8333 18.3333H9.16667Z" fill="#405768"/>
</svg>
