<svg width="38" height="39" viewBox="0 0 38 39" fill="none" xmlns="http://www.w3.org/2000/svg">
<rect x="0.5" y="0.5" width="37" height="38" rx="4.5" fill="white" stroke="#8CBCD9"/>
<path d="M11.635 9.51333C11.7815 9.35234 11.9634 9.2231 12.1682 9.13448C12.3729 9.04586 12.5957 8.99999 12.8211 9H26.1487C26.3741 8.99999 26.5968 9.04586 26.8016 9.13448C27.0063 9.2231 27.1882 9.35234 27.3347 9.51333L31.4063 13.9779C31.7699 14.3766 31.9697 14.8843 31.9697 15.4093V15.7833C31.9698 16.5093 31.7285 17.2171 31.2797 17.808C30.8308 18.3988 30.1967 18.843 29.466 19.0786C28.7353 19.3141 27.9446 19.3293 27.2044 19.1219C26.4641 18.9145 25.8113 18.4949 25.3371 17.9217C24.991 18.3409 24.5473 18.6801 24.0401 18.9132C23.5329 19.1464 22.9756 19.2673 22.411 19.2667C21.8464 19.2673 21.2891 19.1464 20.7819 18.9132C20.2747 18.6801 19.831 18.3409 19.4849 17.9217C19.1387 18.3409 18.695 18.6801 18.1878 18.9132C17.6806 19.1464 17.1233 19.2673 16.5587 19.2667C15.9941 19.2673 15.4368 19.1464 14.9296 18.9132C14.4224 18.6801 13.9787 18.3409 13.6326 17.9217C13.1585 18.4949 12.5056 18.9145 11.7654 19.1219C11.0251 19.3293 10.2344 19.3141 9.50372 19.0786C8.77306 18.843 8.13897 18.3988 7.69007 17.808C7.24118 17.2171 6.99991 16.5093 7 15.7833V15.4093C7.00002 14.8843 7.19985 14.3766 7.56338 13.9779L11.635 9.51333ZM14.4129 15.7833C14.4129 16.3182 14.639 16.8311 15.0414 17.2093C15.4438 17.5875 15.9896 17.8 16.5587 17.8C17.1278 17.8 17.6736 17.5875 18.0761 17.2093C18.4785 16.8311 18.7046 16.3182 18.7046 15.7833C18.7046 15.5888 18.7868 15.4023 18.9331 15.2648C19.0794 15.1273 19.2779 15.05 19.4849 15.05C19.6918 15.05 19.8903 15.1273 20.0366 15.2648C20.183 15.4023 20.2652 15.5888 20.2652 15.7833C20.2652 16.3182 20.4912 16.8311 20.8937 17.2093C21.2961 17.5875 21.8419 17.8 22.411 17.8C22.9801 17.8 23.5259 17.5875 23.9283 17.2093C24.3308 16.8311 24.5568 16.3182 24.5568 15.7833C24.5568 15.5888 24.639 15.4023 24.7854 15.2648C24.9317 15.1273 25.1302 15.05 25.3371 15.05C25.5441 15.05 25.7426 15.1273 25.8889 15.2648C26.0352 15.4023 26.1174 15.5888 26.1174 15.7833C26.1174 16.3182 26.3435 16.8311 26.7459 17.2093C27.1484 17.5875 27.6942 17.8 28.2633 17.8C28.8324 17.8 29.3782 17.5875 29.7806 17.2093C30.183 16.8311 30.4091 16.3182 30.4091 15.7833V15.4093C30.4091 15.2345 30.3427 15.0655 30.2218 14.9327L26.1487 10.4667H12.8211L8.74788 14.9327C8.62701 15.0655 8.56059 15.2345 8.56061 15.4093V15.7833C8.56061 16.3182 8.78669 16.8311 9.18911 17.2093C9.59153 17.5875 10.1373 17.8 10.7064 17.8C11.2756 17.8 11.8214 17.5875 12.2238 17.2093C12.6262 16.8311 12.8523 16.3182 12.8523 15.7833C12.8523 15.5888 12.9345 15.4023 13.0808 15.2648C13.2272 15.1273 13.4256 15.05 13.6326 15.05C13.8395 15.05 14.038 15.1273 14.1843 15.2648C14.3307 15.4023 14.4129 15.5888 14.4129 15.7833ZM9.34091 20C9.54786 20 9.74633 20.0773 9.89267 20.2148C10.039 20.3523 10.1212 20.5388 10.1212 20.7333V29.5333H11.6818V22.2C11.6818 21.811 11.8462 21.438 12.1389 21.1629C12.4316 20.8879 12.8285 20.7333 13.2424 20.7333H17.9243C18.3382 20.7333 18.7351 20.8879 19.0278 21.1629C19.3204 21.438 19.4849 21.811 19.4849 22.2V29.5333H28.8485V20.7333C28.8485 20.5388 28.9307 20.3523 29.0771 20.2148C29.2234 20.0773 29.4219 20 29.6288 20C29.8358 20 30.0342 20.0773 30.1806 20.2148C30.3269 20.3523 30.4091 20.5388 30.4091 20.7333V29.5333H31.1894C31.3964 29.5333 31.5948 29.6106 31.7412 29.7481C31.8875 29.8856 31.9697 30.0722 31.9697 30.2667C31.9697 30.4612 31.8875 30.6477 31.7412 30.7852C31.5948 30.9227 31.3964 31 31.1894 31H7.7803C7.57335 31 7.37488 30.9227 7.22855 30.7852C7.08221 30.6477 7 30.4612 7 30.2667C7 30.0722 7.08221 29.8856 7.22855 29.7481C7.37488 29.6106 7.57335 29.5333 7.7803 29.5333H8.56061V20.7333C8.56061 20.5388 8.64282 20.3523 8.78915 20.2148C8.93549 20.0773 9.13396 20 9.34091 20ZM13.2424 29.5333H17.9243V22.2H13.2424V29.5333ZM21.0455 22.2C21.0455 21.811 21.2099 21.438 21.5026 21.1629C21.7952 20.8879 22.1922 20.7333 22.6061 20.7333H25.7273C26.1412 20.7333 26.5381 20.8879 26.8308 21.1629C27.1235 21.438 27.2879 21.811 27.2879 22.2V26.6C27.2879 26.989 27.1235 27.362 26.8308 27.6371C26.5381 27.9121 26.1412 28.0667 25.7273 28.0667H22.6061C22.1922 28.0667 21.7952 27.9121 21.5026 27.6371C21.2099 27.362 21.0455 26.989 21.0455 26.6V22.2ZM25.7273 22.2H22.6061V26.6H25.7273V22.2Z" fill="#405768"/>
</svg>
