<svg width="510" height="524" viewBox="0 0 510 524" fill="none" xmlns="http://www.w3.org/2000/svg">
<path d="M471.401 105.263C476.893 102.986 480.8 97.3683 480.824 90.7596C480.859 82.0975 474.248 75.0521 466.053 75.0167C457.857 74.9813 451.186 81.9677 451.151 90.6298C451.127 97.2975 455.058 102.974 460.609 105.263C437.774 108.674 438.81 133.256 438.81 133.256L492.807 133.504C492.807 133.504 494.034 108.65 471.401 105.263Z" fill="#F5F5F5"/>
<path d="M152.34 13.3677L117.045 1L82.0948 13.2025C77.6278 15.2559 73.7207 16.4951 73.7207 20.5429V40.7349C73.7207 54.7548 77.4849 68.6449 85.2277 80.9182C91.7436 91.2444 101.845 101.865 117.378 108.628C131.661 104.096 142.322 92.035 148.85 81.7089C156.592 69.4474 160.357 55.5455 160.357 41.5256V23.3752C160.357 17.5926 157.212 14.7721 152.328 13.3795L152.34 13.3677Z" fill="#E2EAF8" stroke="#2C3C3F" stroke-miterlimit="10"/>
<path d="M128.766 45.9622C128.766 40.6162 124.394 36.2852 118.998 36.2852C113.602 36.2852 109.23 40.6162 109.23 45.9622C109.23 50.3877 112.244 54.0815 116.33 55.2262V69.6946H121.667V55.2262C125.752 54.0697 128.766 50.3759 128.766 45.9622Z" fill="#9ABBD7" stroke="#2C3C3F" stroke-miterlimit="10"/>
<path d="M452.426 200.513L458.442 203.734L455.738 208.219L449.663 204.667L449.77 211.287H444.576L444.636 204.608L438.561 208.219L435.904 203.734L441.92 200.513L435.904 197.232L438.561 192.748L444.636 196.359L444.576 189.679H449.77L449.663 196.359L455.738 192.748L458.442 197.232L452.426 200.513Z" fill="#E0E0E0"/>
<path d="M477.485 200.513L483.5 203.734L480.796 208.219L474.721 204.667L474.828 211.287H469.635L469.694 204.608L463.619 208.219L460.963 203.734L466.978 200.513L460.963 197.232L463.619 192.748L469.694 196.359L469.635 189.679H474.828L474.721 196.359L480.796 192.748L483.5 197.232L477.485 200.513Z" fill="#E0E0E0"/>
<path d="M502.551 200.513L508.567 203.734L505.863 208.219L499.788 204.667L499.895 211.287H494.701L494.761 204.608L488.686 208.219L486.029 203.734L492.045 200.513L486.029 197.232L488.686 192.748L494.761 196.359L494.701 189.679H499.895L499.788 196.359L505.863 192.748L508.567 197.232L502.551 200.513Z" fill="#E0E0E0"/>
<path d="M488.616 71.5012L485.721 66.7689C461.278 26.8688 417.096 2.81782 370.508 5.73273C364.516 6.11037 358.561 6.91286 352.676 8.16379C310.317 17.1446 273.461 48.8782 258.19 89.5218C249.208 113.419 246.695 140.94 229.649 159.916C207.457 184.605 169.791 185.384 136.676 184.357C103.56 183.33 65.859 184.203 43.7742 208.998C29.9444 224.517 25.5488 246.597 26.6686 267.391C29.6227 322.432 68.3367 371.655 117.569 396.107C166.801 420.571 224.777 422.766 278.655 412.003C354.141 396.933 425.923 355.534 469.08 291.583C512.225 227.644 523.148 140.527 488.628 71.5131L488.616 71.5012Z" fill="#E2EAF8"/>
<path d="M510 519.925C510 520.09 395.824 520.231 255.012 520.231C114.2 520.231 0 520.09 0 519.925C0 519.759 114.153 519.618 255.012 519.618C395.871 519.618 510 519.759 510 519.925Z" fill="#263238"/>
<path d="M403.907 23.2456H191.111C186.795 23.2456 183.297 26.7117 183.297 30.9872V224.941C183.297 229.217 186.795 232.683 191.111 232.683H403.907C408.223 232.683 411.721 229.217 411.721 224.941V30.9872C411.721 26.7117 408.223 23.2456 403.907 23.2456Z" fill="white"/>
<path d="M403.902 232.682C403.902 232.682 404.092 232.658 404.461 232.634C404.831 232.611 405.391 232.528 406.093 232.328C406.796 232.115 407.654 231.749 408.523 231.1C409.393 230.451 410.286 229.519 410.894 228.233C411.573 226.958 411.704 225.341 411.644 223.583C411.644 221.824 411.644 219.889 411.633 217.8C411.633 213.623 411.621 208.796 411.609 203.367C411.585 181.641 411.549 150.226 411.513 111.412C411.513 91.9986 411.49 70.7328 411.478 47.9091C411.478 42.2091 411.454 36.4146 411.442 30.514C411.299 27.6581 409.31 24.9674 406.546 23.9761C405.176 23.4097 403.687 23.504 402.151 23.504C400.626 23.504 399.101 23.504 397.564 23.504C385.295 23.504 372.656 23.504 359.708 23.5158C307.891 23.5158 250.928 23.5277 191.142 23.5395C189.343 23.5395 187.568 24.1885 186.21 25.3568C184.852 26.5134 183.935 28.1656 183.697 29.9122C183.577 30.7736 183.625 31.7059 183.613 32.6264V35.3761C183.613 37.2053 183.613 39.0463 183.613 40.8755C183.613 48.1923 183.613 55.4619 183.613 62.6725C183.613 77.0936 183.613 91.3142 183.613 105.287C183.613 133.22 183.601 160.175 183.589 185.842C183.589 198.682 183.589 211.192 183.577 223.347C183.577 224.102 183.554 224.881 183.613 225.601C183.697 226.321 183.84 227.052 184.125 227.725C184.673 229.082 185.626 230.251 186.829 231.077C188.033 231.903 189.462 232.363 190.915 232.398C192.416 232.398 193.905 232.398 195.394 232.41C201.35 232.41 207.211 232.41 212.964 232.41C236.002 232.422 257.468 232.434 277.063 232.446C316.241 232.493 347.951 232.516 369.881 232.54C380.828 232.564 389.333 232.587 395.111 232.599C397.993 232.611 400.185 232.623 401.674 232.634C403.151 232.634 403.914 232.67 403.914 232.67C403.914 232.67 403.151 232.693 401.674 232.705C400.185 232.705 397.993 232.717 395.111 232.741C389.333 232.752 380.828 232.776 369.881 232.8C347.963 232.823 316.253 232.859 277.063 232.894C257.468 232.894 236.002 232.918 212.964 232.929C207.199 232.929 201.35 232.929 195.394 232.929C193.905 232.929 192.404 232.929 190.903 232.929C189.355 232.894 187.806 232.398 186.52 231.513C185.233 230.628 184.209 229.377 183.625 227.926C183.315 227.206 183.161 226.427 183.077 225.648C183.018 224.857 183.053 224.114 183.041 223.347C183.041 211.192 183.041 198.67 183.029 185.842C183.029 160.175 183.029 133.232 183.006 105.287C183.006 91.3142 183.006 77.1054 183.006 62.6725C183.006 55.4619 183.006 48.1923 183.006 40.8755C183.006 39.0463 183.006 37.2171 183.006 35.3761V32.6264C183.006 31.7059 182.958 30.7972 183.101 29.8295C183.363 27.9295 184.34 26.1357 185.817 24.8966C187.282 23.6339 189.212 22.9258 191.153 22.9258C250.94 22.9258 307.903 22.9376 359.72 22.9494C372.668 22.9494 385.307 22.9494 397.576 22.9612C399.113 22.9612 400.638 22.9612 402.162 22.9612C403.651 22.9612 405.283 22.8668 406.749 23.4804C409.703 24.5426 411.835 27.4221 411.978 30.4786C411.978 36.3792 411.978 42.1855 411.99 47.8973C411.978 70.7209 411.966 91.9868 411.954 111.4C411.918 150.214 411.883 181.641 411.859 203.355C411.859 208.784 411.835 213.599 411.835 217.788C411.835 219.877 411.835 221.801 411.823 223.571C411.883 225.318 411.728 226.993 411.037 228.28C410.418 229.59 409.5 230.534 408.619 231.171C407.725 231.82 406.856 232.174 406.153 232.375C405.438 232.564 404.878 232.634 404.497 232.646C404.128 232.658 403.937 232.658 403.937 232.658L403.902 232.682Z" fill="#263238"/>
<path d="M201.37 37.7603C201.37 39.92 199.607 41.6665 197.416 41.6665C195.224 41.6665 193.473 39.92 193.473 37.7603C193.473 35.6007 195.236 33.8423 197.416 33.8423C199.595 33.8423 201.37 35.5889 201.37 37.7603Z" fill="#34404F"/>
<path d="M208.953 41.6664C211.13 41.6664 212.895 39.9176 212.895 37.7602C212.895 35.6029 211.13 33.854 208.953 33.854C206.775 33.854 205.01 35.6029 205.01 37.7602C205.01 39.9176 206.775 41.6664 208.953 41.6664Z" fill="#34404F"/>
<path d="M220.488 41.6664C222.665 41.6664 224.431 39.9176 224.431 37.7602C224.431 35.6029 222.665 33.854 220.488 33.854C218.31 33.854 216.545 35.6029 216.545 37.7602C216.545 39.9176 218.31 41.6664 220.488 41.6664Z" fill="#34404F"/>
<path d="M412.561 48.8542C412.561 49.0194 361.423 49.1611 298.361 49.1611C235.299 49.1611 184.148 49.0194 184.148 48.8542C184.148 48.689 235.275 48.5474 298.361 48.5474C361.447 48.5474 412.561 48.689 412.561 48.8542Z" fill="#263238"/>
<path d="M330.622 127.757C330.622 127.757 330.718 127.627 330.896 127.391C330.944 127.332 330.992 127.261 331.051 127.19C331.099 127.108 331.147 127.025 331.206 126.931C331.313 126.742 331.456 126.518 331.552 126.246C331.611 126.116 331.671 125.975 331.73 125.821C331.778 125.668 331.826 125.503 331.873 125.326C331.933 125.149 331.957 124.972 331.992 124.771C332.016 124.57 332.076 124.381 332.076 124.157C332.171 123.308 332.111 122.316 331.945 121.219C331.599 119.024 330.658 116.439 329.229 113.631C327.787 110.81 325.81 107.789 323.38 104.626C320.95 101.463 318.031 98.2063 314.66 94.9255C311.301 91.6566 307.489 88.364 303.225 85.2485C301.093 83.6907 298.841 82.1802 296.459 80.764C294.088 79.336 291.587 78.0143 288.942 76.8578C286.31 75.7249 283.522 74.7335 280.58 74.2615C279.115 74.0373 277.602 73.9311 276.125 74.1553C275.386 74.2733 274.66 74.4739 273.969 74.7689C273.29 75.0994 272.671 75.5242 272.158 76.0789C271.67 76.6454 271.301 77.3062 271.051 78.0025C270.824 78.7106 270.705 79.454 270.669 80.1975C270.61 81.6845 270.896 83.1596 271.289 84.5758C272.087 87.4081 273.397 90.0398 274.839 92.5062C276.292 94.9727 277.912 97.2858 279.603 99.4572C281.295 101.629 283.07 103.682 284.868 105.606C288.478 109.453 292.206 112.828 295.875 115.767C299.544 118.705 303.153 121.207 306.596 123.237C310.038 125.267 313.302 126.872 316.292 127.969C319.27 129.067 321.974 129.692 324.214 129.787C325.333 129.834 326.334 129.775 327.168 129.586C327.382 129.55 327.573 129.48 327.764 129.432C327.954 129.385 328.145 129.326 328.3 129.255C328.466 129.185 328.633 129.126 328.776 129.067C328.919 128.996 329.062 128.913 329.193 128.842C329.455 128.713 329.658 128.547 329.848 128.418C329.932 128.347 330.027 128.3 330.098 128.241C330.17 128.181 330.229 128.122 330.277 128.063C330.491 127.851 330.61 127.757 330.61 127.757C330.61 127.757 330.503 127.863 330.289 128.075C330.229 128.134 330.17 128.193 330.11 128.252C330.039 128.311 329.955 128.37 329.86 128.441C329.681 128.571 329.479 128.736 329.217 128.866C329.086 128.937 328.955 129.019 328.8 129.09C328.645 129.149 328.49 129.22 328.311 129.291C328.145 129.362 327.966 129.421 327.764 129.468C327.573 129.515 327.37 129.598 327.156 129.621C326.31 129.81 325.31 129.881 324.178 129.834C321.927 129.751 319.211 129.137 316.221 128.04C313.219 126.954 309.955 125.361 306.501 123.331C303.046 121.301 299.437 118.799 295.756 115.861C292.087 112.922 288.347 109.547 284.726 105.7C282.915 103.776 281.14 101.723 279.448 99.5398C277.745 97.3684 276.125 95.0436 274.66 92.5771C273.219 90.0988 271.896 87.4671 271.086 84.5994C270.693 83.1715 270.407 81.6845 270.467 80.1739C270.491 79.4187 270.622 78.6634 270.848 77.9317C271.11 77.2118 271.479 76.5273 271.992 75.9491C272.516 75.3826 273.159 74.9342 273.85 74.6037C274.553 74.2851 275.303 74.0845 276.054 73.9665C277.566 73.7422 279.091 73.8484 280.568 74.0727C283.522 74.5447 286.322 75.5478 288.966 76.6808C291.611 77.8373 294.124 79.1708 296.495 80.5988C298.877 82.0267 301.128 83.5373 303.272 85.095C307.549 88.2224 311.361 91.5149 314.72 94.7957C318.079 98.0765 320.998 101.357 323.428 104.52C325.858 107.683 327.835 110.727 329.264 113.56C330.694 116.38 331.635 118.977 331.968 121.183C332.135 122.281 332.183 123.284 332.088 124.134C332.088 124.346 332.028 124.547 331.992 124.747C331.957 124.948 331.933 125.125 331.873 125.302C331.826 125.479 331.778 125.644 331.73 125.798C331.671 125.951 331.611 126.093 331.552 126.234C331.444 126.506 331.313 126.73 331.194 126.919C331.135 127.013 331.087 127.108 331.039 127.178C330.98 127.249 330.932 127.32 330.884 127.379C330.694 127.615 330.599 127.733 330.599 127.733L330.622 127.757Z" fill="#34404F"/>
<path d="M341.418 101.889C341.418 101.889 341.406 101.735 341.382 101.44C341.382 101.369 341.37 101.287 341.358 101.192C341.346 101.098 341.323 101.003 341.299 100.897C341.251 100.685 341.204 100.425 341.096 100.154C341.049 100.012 341.001 99.8705 340.942 99.7171C340.87 99.5755 340.787 99.4221 340.715 99.2568C340.644 99.0916 340.536 98.9382 340.429 98.773C340.322 98.6078 340.227 98.4308 340.084 98.2655C339.584 97.5693 338.869 96.873 338.011 96.1649C336.284 94.7488 333.842 93.4388 330.876 92.2941C327.91 91.1376 324.396 90.1817 320.465 89.4264C316.534 88.6711 312.15 88.1636 307.445 87.9394C302.74 87.7152 297.689 87.7742 292.412 88.2699C289.779 88.5177 287.075 88.8835 284.348 89.3792C281.62 89.8866 278.856 90.5357 276.116 91.4208C273.389 92.3177 270.637 93.4152 268.135 94.9966C266.897 95.7991 265.693 96.7078 264.741 97.8525C264.264 98.4307 263.859 99.0562 263.549 99.7289C263.263 100.413 263.097 101.145 263.085 101.9C263.097 102.644 263.263 103.387 263.549 104.072C263.859 104.756 264.264 105.382 264.741 105.96C265.693 107.105 266.897 108.025 268.135 108.816C270.637 110.409 273.389 111.495 276.116 112.392C278.856 113.277 281.62 113.938 284.348 114.433C287.075 114.941 289.768 115.295 292.412 115.543C297.689 116.038 302.74 116.085 307.457 115.873C312.162 115.649 316.534 115.141 320.477 114.386C324.408 113.631 327.922 112.675 330.888 111.518C333.854 110.374 336.284 109.064 338.023 107.648C338.881 106.939 339.595 106.243 340.096 105.547C340.239 105.382 340.334 105.193 340.441 105.039C340.548 104.874 340.656 104.721 340.727 104.556C340.81 104.39 340.882 104.237 340.953 104.095C341.013 103.942 341.061 103.8 341.108 103.659C341.215 103.387 341.263 103.128 341.311 102.915C341.335 102.809 341.358 102.703 341.37 102.62C341.37 102.526 341.382 102.443 341.394 102.372C341.418 102.077 341.43 101.924 341.43 101.924C341.43 101.924 341.43 102.077 341.406 102.372C341.406 102.443 341.406 102.538 341.394 102.62C341.394 102.715 341.358 102.809 341.335 102.927C341.287 103.139 341.251 103.399 341.144 103.671C341.096 103.812 341.049 103.954 340.989 104.107C340.918 104.261 340.846 104.414 340.763 104.567C340.691 104.733 340.584 104.898 340.477 105.063C340.37 105.228 340.274 105.417 340.131 105.582C339.631 106.29 338.928 106.998 338.059 107.707C336.332 109.135 333.89 110.456 330.924 111.613C327.957 112.781 324.443 113.749 320.501 114.504C316.558 115.271 312.186 115.779 307.469 116.015C302.752 116.239 297.701 116.192 292.412 115.708C289.768 115.46 287.064 115.106 284.336 114.598C281.608 114.103 278.832 113.442 276.081 112.557C273.341 111.66 270.589 110.562 268.052 108.957C266.801 108.155 265.586 107.235 264.609 106.066C264.121 105.488 263.704 104.839 263.394 104.143C263.109 103.435 262.93 102.679 262.918 101.9C262.93 101.133 263.109 100.366 263.406 99.6581C263.716 98.9618 264.145 98.3128 264.621 97.7345C265.598 96.5662 266.813 95.6457 268.064 94.8432C270.589 93.25 273.341 92.1407 276.081 91.2556C278.832 90.3705 281.596 89.7096 284.336 89.214C287.064 88.7065 289.768 88.3525 292.412 88.1047C297.701 87.6208 302.752 87.5618 307.469 87.7978C312.186 88.0338 316.558 88.5531 320.501 89.3084C324.443 90.0755 327.957 91.0432 330.924 92.1997C333.89 93.3562 336.332 94.678 338.059 96.1059C338.928 96.814 339.631 97.5221 340.131 98.2301C340.274 98.3954 340.37 98.5842 340.477 98.7494C340.584 98.9146 340.691 99.0798 340.763 99.2451C340.846 99.4103 340.918 99.5637 340.989 99.7053C341.049 99.8587 341.096 100.012 341.144 100.142C341.251 100.413 341.299 100.673 341.335 100.885C341.358 100.992 341.382 101.098 341.394 101.192C341.394 101.287 341.394 101.369 341.406 101.44C341.43 101.735 341.43 101.889 341.43 101.889H341.418Z" fill="#34404F"/>
<path d="M327.106 69.706C327.106 69.706 326.975 69.6233 326.724 69.4581C326.665 69.4227 326.593 69.3755 326.51 69.3165C326.427 69.2693 326.331 69.2339 326.236 69.1867C326.034 69.0923 325.807 68.9743 325.521 68.8917C325.378 68.8445 325.235 68.7973 325.081 68.7501C324.914 68.7146 324.747 68.6792 324.568 68.6438C324.39 68.5966 324.199 68.5848 324.009 68.573C323.806 68.5612 323.603 68.5258 323.389 68.5258C322.531 68.4904 321.531 68.6202 320.447 68.8563C318.255 69.3401 315.718 70.4494 312.99 72.0662C310.25 73.683 307.344 75.8426 304.33 78.4625C301.316 81.0824 298.231 84.1979 295.17 87.7383C292.108 91.2905 289.059 95.2793 286.212 99.7166C284.794 101.935 283.424 104.26 282.162 106.715C280.887 109.158 279.732 111.718 278.755 114.409C277.79 117.1 276.992 119.92 276.718 122.847C276.599 124.31 276.587 125.809 276.92 127.261C277.087 127.981 277.337 128.689 277.695 129.35C278.064 129.999 278.552 130.577 279.136 131.049C279.744 131.497 280.434 131.816 281.149 132.017C281.876 132.194 282.626 132.265 283.377 132.241C284.878 132.194 286.343 131.816 287.736 131.332C290.536 130.341 293.097 128.866 295.479 127.273C297.862 125.668 300.077 123.909 302.15 122.08C304.223 120.251 306.164 118.363 307.975 116.451C311.596 112.615 314.741 108.697 317.445 104.874C320.149 101.05 322.424 97.3091 324.235 93.7687C326.045 90.2284 327.427 86.8886 328.333 83.8675C329.226 80.8464 329.679 78.132 329.619 75.9134C329.583 74.8041 329.464 73.8246 329.214 72.9985C329.166 72.7861 329.083 72.5972 329.023 72.4202C328.964 72.2314 328.892 72.0544 328.809 71.901C328.726 71.7358 328.654 71.5824 328.583 71.4407C328.499 71.2991 328.416 71.1693 328.333 71.0513C328.19 70.7917 328.011 70.6028 327.868 70.4376C327.797 70.355 327.737 70.2724 327.665 70.2016C327.594 70.1426 327.534 70.0836 327.475 70.0364C327.249 69.8358 327.141 69.7295 327.141 69.7295C327.141 69.7295 327.26 69.824 327.487 70.0246C327.546 70.0718 327.606 70.1308 327.677 70.1898C327.749 70.2606 327.808 70.3314 327.88 70.414C328.023 70.5792 328.202 70.7681 328.356 71.0277C328.44 71.1457 328.523 71.2755 328.607 71.4171C328.678 71.5587 328.761 71.724 328.833 71.8774C328.916 72.0308 328.988 72.2196 329.047 72.3966C329.107 72.5855 329.202 72.7743 329.25 72.9867C329.5 73.8128 329.631 74.7923 329.679 75.9134C329.762 78.1438 329.321 80.87 328.428 83.9029C327.534 86.9358 326.153 90.2874 324.354 93.8395C322.543 97.3917 320.28 101.133 317.576 104.968C314.872 108.804 311.727 112.733 308.106 116.569C306.295 118.492 304.354 120.381 302.269 122.21C300.196 124.039 297.969 125.809 295.586 127.414C293.192 129.019 290.631 130.494 287.808 131.497C286.402 131.981 284.913 132.371 283.389 132.418C282.626 132.442 281.852 132.371 281.101 132.194C280.363 131.993 279.648 131.663 279.017 131.202C278.409 130.719 277.909 130.117 277.528 129.456C277.159 128.783 276.908 128.063 276.742 127.32C276.408 125.845 276.42 124.322 276.539 122.859C276.813 119.897 277.623 117.076 278.588 114.374C279.565 111.683 280.732 109.11 282.007 106.668C283.281 104.213 284.651 101.888 286.069 99.6694C288.916 95.2321 291.977 91.2433 295.05 87.6911C298.124 84.1389 301.221 81.0352 304.246 78.4153C307.272 75.7954 310.191 73.6358 312.942 72.0308C315.682 70.414 318.231 69.3165 320.435 68.8326C321.531 68.5966 322.531 68.4668 323.401 68.514C323.615 68.514 323.83 68.5494 324.02 68.5612C324.223 68.573 324.414 68.5966 324.592 68.6438C324.771 68.6792 324.938 68.7146 325.104 68.7501C325.259 68.7973 325.414 68.8563 325.545 68.8917C325.831 68.9743 326.057 69.0923 326.26 69.1985C326.355 69.2457 326.45 69.2929 326.534 69.3401C326.617 69.3873 326.677 69.4345 326.748 69.4817C326.998 69.6469 327.129 69.7414 327.129 69.7414L327.106 69.706Z" fill="#34404F"/>
<path d="M262.566 117.928C263.138 118.494 263.138 119.403 262.566 119.969C261.994 120.536 261.077 120.536 260.505 119.969C259.933 119.403 259.933 118.494 260.505 117.928C261.077 117.361 261.994 117.361 262.566 117.928Z" fill="#34404F"/>
<path d="M344.748 73.2112C344.748 74.0137 344.093 74.651 343.295 74.651C342.497 74.651 341.842 74.0019 341.842 73.2112C341.842 72.4206 342.497 71.7715 343.295 71.7715C344.093 71.7715 344.748 72.4206 344.748 73.2112Z" fill="#34404F"/>
<path d="M271.764 122.672C271.764 122.872 271.597 123.037 271.395 123.037C271.192 123.037 271.025 122.872 271.025 122.672C271.025 122.471 271.192 122.306 271.395 122.306C271.597 122.306 271.764 122.471 271.764 122.672Z" fill="#34404F"/>
<path d="M279.658 82.2394C279.658 82.44 279.492 82.6052 279.289 82.6052C279.087 82.6052 278.92 82.44 278.92 82.2394C278.92 82.0388 279.087 81.8735 279.289 81.8735C279.492 81.8735 279.658 82.0388 279.658 82.2394Z" fill="#34404F"/>
<path d="M337.422 101.888C337.422 102.089 337.255 102.254 337.053 102.254C336.85 102.254 336.684 102.089 336.684 101.888C336.684 101.688 336.85 101.522 337.053 101.522C337.255 101.522 337.422 101.688 337.422 101.888Z" fill="#34404F"/>
<path d="M342.567 84.7999C342.567 85.0005 342.4 85.1658 342.197 85.1658C341.995 85.1658 341.828 85.0005 341.828 84.7999C341.828 84.5993 341.995 84.4341 342.197 84.4341C342.4 84.4341 342.567 84.5993 342.567 84.7999Z" fill="#34404F"/>
<path d="M317.626 109.962H313.052V85.2739C313.052 79.4676 308.275 74.7353 302.415 74.7353C296.554 74.7353 291.777 79.4676 291.777 85.2739V109.962H287.203V85.2739C287.203 76.9658 294.029 70.2036 302.415 70.2036C310.801 70.2036 317.626 76.9658 317.626 85.2739V109.962Z" fill="#FF725E"/>
<path d="M317.626 109.962H313.052V85.2739C313.052 79.4676 308.275 74.7353 302.415 74.7353C296.554 74.7353 291.777 79.4676 291.777 85.2739V109.962H287.203V85.2739C287.203 76.9658 294.029 70.2036 302.415 70.2036C310.801 70.2036 317.626 76.9658 317.626 85.2739V109.962Z" fill="#34404F"/>
<path d="M320.233 98.9746H284.592C283.112 98.9746 281.912 100.163 281.912 101.63V122.377C281.912 123.843 283.112 125.032 284.592 125.032H320.233C321.713 125.032 322.913 123.843 322.913 122.377V101.63C322.913 100.163 321.713 98.9746 320.233 98.9746Z" fill="#9ABBD7"/>
<path d="M305.848 108.616C305.848 106.739 304.311 105.217 302.417 105.217C300.523 105.217 298.986 106.739 298.986 108.616C298.986 110.162 300.046 111.46 301.476 111.861V116.935H303.346V111.861C304.776 111.46 305.836 110.162 305.836 108.616H305.848Z" fill="#34404F"/>
<path d="M284.102 122.566C284.007 122.566 283.936 118.223 283.936 112.865C283.936 107.507 284.007 103.153 284.102 103.153C284.198 103.153 284.269 107.496 284.269 112.865C284.269 118.235 284.198 122.566 284.102 122.566Z" fill="#FAFAFA"/>
<path d="M299.734 112.97C299.734 112.97 299.579 112.923 299.329 112.746C299.091 112.569 298.769 112.286 298.447 111.849C297.804 111.023 297.22 109.513 297.602 107.884C297.995 106.255 299.21 105.17 300.151 104.709C300.627 104.473 301.044 104.355 301.342 104.308C301.64 104.261 301.807 104.261 301.807 104.285C301.818 104.344 301.151 104.414 300.27 104.922C299.4 105.406 298.304 106.456 297.935 107.967C297.578 109.465 298.09 110.893 298.65 111.719C299.21 112.569 299.781 112.923 299.734 112.97Z" fill="#FAFAFA"/>
<path d="M363.283 147.37H237.051C230.92 147.37 225.949 152.294 225.949 158.369V159.714C225.949 165.789 230.92 170.713 237.051 170.713H363.283C369.414 170.713 374.385 165.789 374.385 159.714V158.369C374.385 152.294 369.414 147.37 363.283 147.37Z" fill="#E0DFDE"/>
<path d="M364.367 179.375H238.135C232.004 179.375 227.033 184.3 227.033 190.374V191.72C227.033 197.794 232.004 202.718 238.135 202.718H364.367C370.498 202.718 375.469 197.794 375.469 191.72V190.374C375.469 184.3 370.498 179.375 364.367 179.375Z" fill="#E0DFDE"/>
<path d="M249.401 158.867V155.48H250.806V158.808C250.806 159.953 251.307 160.425 252.164 160.425C253.022 160.425 253.522 159.953 253.522 158.808V155.48H254.916V158.867C254.916 160.649 253.891 161.628 252.152 161.628C250.413 161.628 249.389 160.649 249.389 158.867H249.401Z" fill="#34404F"/>
<path d="M255.773 161.084L256.226 160.116C256.643 160.387 257.274 160.564 257.858 160.564C258.489 160.564 258.716 160.399 258.716 160.14C258.716 159.384 255.893 160.151 255.893 158.299C255.893 157.413 256.691 156.8 258.061 156.8C258.704 156.8 259.419 156.941 259.859 157.201L259.407 158.157C258.942 157.897 258.477 157.815 258.061 157.815C257.453 157.815 257.191 158.004 257.191 158.251C257.191 159.042 260.026 158.275 260.026 160.104C260.026 160.966 259.216 161.579 257.81 161.579C257.012 161.579 256.214 161.367 255.785 161.084H255.773Z" fill="#34404F"/>
<path d="M265.406 159.574H261.868C261.999 160.152 262.499 160.506 263.202 160.506C263.702 160.506 264.06 160.365 264.381 160.058L265.108 160.837C264.667 161.332 264.024 161.592 263.178 161.592C261.558 161.592 260.51 160.577 260.51 159.208C260.51 157.839 261.582 156.824 263.011 156.824C264.441 156.824 265.453 157.733 265.453 159.232C265.453 159.338 265.441 159.48 265.429 159.598L265.406 159.574ZM261.844 158.783H264.155C264.06 158.193 263.619 157.816 263.011 157.816C262.404 157.816 261.951 158.181 261.856 158.783H261.844Z" fill="#34404F"/>
<path d="M269.241 156.812V158.052C269.122 158.052 269.038 158.04 268.931 158.04C268.181 158.04 267.68 158.441 267.68 159.338V161.533H266.322V156.895H267.621V157.509C267.954 157.06 268.514 156.824 269.229 156.824L269.241 156.812Z" fill="#34404F"/>
<path d="M274.843 158.865V161.52H273.485V159.066C273.485 158.31 273.14 157.968 272.532 157.968C271.877 157.968 271.413 158.369 271.413 159.219V161.509H270.055V156.871H271.353V157.413C271.722 157.012 272.27 156.8 272.902 156.8C274.009 156.8 274.843 157.437 274.843 158.853V158.865Z" fill="#34404F"/>
<path d="M280.219 158.865V161.509H278.944V160.93C278.694 161.355 278.206 161.579 277.515 161.579C276.419 161.579 275.764 160.977 275.764 160.175C275.764 159.373 276.347 158.782 277.777 158.782H278.861C278.861 158.204 278.515 157.874 277.777 157.874C277.276 157.874 276.764 158.039 276.431 158.31L275.942 157.366C276.455 157 277.217 156.8 277.967 156.8C279.397 156.8 280.219 157.461 280.219 158.865ZM278.861 160.045V159.573H277.932C277.3 159.573 277.098 159.809 277.098 160.116C277.098 160.458 277.384 160.682 277.86 160.682C278.313 160.682 278.706 160.47 278.861 160.057V160.045Z" fill="#34404F"/>
<path d="M289.355 158.866V161.521H287.997V159.066C287.997 158.311 287.652 157.969 287.104 157.969C286.496 157.969 286.067 158.358 286.067 159.184V161.509H284.709V159.054C284.709 158.299 284.388 157.957 283.816 157.957C283.22 157.957 282.792 158.346 282.792 159.172V161.497H281.434V156.859H282.732V157.39C283.077 156.989 283.602 156.789 284.209 156.789C284.864 156.789 285.424 157.036 285.746 157.544C286.115 157.072 286.734 156.789 287.437 156.789C288.557 156.789 289.355 157.426 289.355 158.842V158.866Z" fill="#34404F"/>
<path d="M295.191 159.574H291.653C291.784 160.152 292.284 160.506 292.987 160.506C293.487 160.506 293.845 160.365 294.166 160.058L294.893 160.837C294.452 161.332 293.809 161.592 292.963 161.592C291.343 161.592 290.295 160.577 290.295 159.208C290.295 157.839 291.367 156.824 292.796 156.824C294.226 156.824 295.238 157.733 295.238 159.232C295.238 159.338 295.226 159.48 295.215 159.598L295.191 159.574ZM291.629 158.783H293.94C293.845 158.193 293.404 157.816 292.796 157.816C292.189 157.816 291.736 158.181 291.641 158.783H291.629Z" fill="#34404F"/>
<path d="M304.172 159.149C304.172 160.695 303.458 161.569 302.386 161.569C301.79 161.569 301.373 161.309 301.194 160.813C300.885 161.297 300.396 161.569 299.705 161.569C298.586 161.569 297.692 160.684 297.692 159.385C297.692 158.087 298.574 157.214 299.705 157.214C300.277 157.214 300.73 157.415 301.051 157.78V157.273H302.231V160.07C302.231 160.483 302.409 160.625 302.648 160.625C303.053 160.625 303.291 160.164 303.291 159.161C303.291 157.415 301.981 156.199 300.051 156.199C298.121 156.199 296.811 157.509 296.811 159.315C296.811 161.12 298.085 162.454 300.015 162.454C300.563 162.454 301.182 162.336 301.73 162.076L302.004 162.867C301.468 163.138 300.694 163.28 300.015 163.28C297.502 163.28 295.834 161.592 295.834 159.315C295.834 157.037 297.514 155.385 300.051 155.385C302.588 155.385 304.172 156.978 304.172 159.149ZM301.063 159.385C301.063 158.63 300.599 158.217 299.979 158.217C299.36 158.217 298.895 158.654 298.895 159.385C298.895 160.117 299.336 160.577 299.979 160.577C300.623 160.577 301.063 160.141 301.063 159.385Z" fill="#34404F"/>
<path d="M313.046 158.866V161.521H311.688V159.066C311.688 158.311 311.343 157.969 310.795 157.969C310.188 157.969 309.759 158.358 309.759 159.184V161.509H308.401V159.054C308.401 158.299 308.079 157.957 307.507 157.957C306.912 157.957 306.483 158.346 306.483 159.172V161.497H305.125V156.859H306.423V157.39C306.769 156.989 307.293 156.789 307.9 156.789C308.556 156.789 309.116 157.036 309.437 157.544C309.806 157.072 310.426 156.789 311.129 156.789C312.248 156.789 313.046 157.426 313.046 158.842V158.866Z" fill="#34404F"/>
<path d="M318.402 158.865V161.509H317.128V160.93C316.878 161.355 316.389 161.579 315.698 161.579C314.602 161.579 313.947 160.977 313.947 160.175C313.947 159.373 314.531 158.782 315.96 158.782H317.044C317.044 158.204 316.699 157.874 315.96 157.874C315.46 157.874 314.948 158.039 314.614 158.31L314.126 157.366C314.638 157 315.4 156.8 316.151 156.8C317.58 156.8 318.402 157.461 318.402 158.865ZM317.044 160.045V159.573H316.115C315.484 159.573 315.281 159.809 315.281 160.116C315.281 160.458 315.567 160.682 316.044 160.682C316.496 160.682 316.889 160.47 317.044 160.057V160.045Z" fill="#34404F"/>
<path d="M319.48 155.479C319.48 155.054 319.826 154.724 320.326 154.724C320.827 154.724 321.172 155.03 321.172 155.444C321.172 155.892 320.827 156.222 320.326 156.222C319.826 156.222 319.48 155.892 319.48 155.467V155.479ZM319.647 156.871H321.005V161.509H319.647V156.871Z" fill="#34404F"/>
<path d="M322.266 155.113H323.624V161.509H322.266V155.113Z" fill="#34404F"/>
<path d="M324.555 160.741C324.555 160.245 324.924 159.915 325.4 159.915C325.877 159.915 326.246 160.245 326.246 160.741C326.246 161.236 325.877 161.59 325.4 161.59C324.924 161.59 324.555 161.236 324.555 160.741Z" fill="#34404F"/>
<path d="M326.756 159.196C326.756 157.804 327.84 156.812 329.365 156.812C330.353 156.812 331.128 157.237 331.461 157.993L330.413 158.559C330.163 158.122 329.782 157.922 329.365 157.922C328.674 157.922 328.138 158.394 328.138 159.208C328.138 160.022 328.674 160.494 329.365 160.494C329.793 160.494 330.163 160.306 330.413 159.857L331.461 160.424C331.116 161.167 330.341 161.592 329.365 161.592C327.84 161.592 326.756 160.601 326.756 159.208V159.196Z" fill="#34404F"/>
<path d="M331.848 159.196C331.848 157.804 332.932 156.812 334.421 156.812C335.91 156.812 336.994 157.804 336.994 159.196C336.994 160.589 335.91 161.58 334.421 161.58C332.932 161.58 331.848 160.589 331.848 159.196ZM335.612 159.196C335.612 158.394 335.1 157.91 334.421 157.91C333.742 157.91 333.218 158.394 333.218 159.196C333.218 159.999 333.742 160.483 334.421 160.483C335.1 160.483 335.612 159.999 335.612 159.196Z" fill="#34404F"/>
<path d="M345.806 158.866V161.521H344.448V159.066C344.448 158.311 344.103 157.969 343.555 157.969C342.947 157.969 342.519 158.358 342.519 159.184V161.509H341.161V159.054C341.161 158.299 340.839 157.957 340.267 157.957C339.672 157.957 339.243 158.346 339.243 159.172V161.497H337.885V156.859H339.183V157.39C339.529 156.989 340.053 156.789 340.66 156.789C341.315 156.789 341.875 157.036 342.197 157.544C342.566 157.072 343.186 156.789 343.888 156.789C345.008 156.789 345.806 157.426 345.806 158.842V158.866Z" fill="#34404F"/>
<path d="M267.591 191.177L269.794 192.357L268.806 193.997L266.578 192.699L266.614 195.13H264.708L264.732 192.687L262.504 194.009L261.527 192.369L263.731 191.188L261.527 189.985L262.504 188.344L264.732 189.666L264.708 187.223H266.614L266.578 189.666L268.806 188.344L269.794 189.985L267.591 191.188V191.177Z" fill="#34404F"/>
<path d="M276.772 191.177L278.976 192.357L277.987 193.997L275.76 192.699L275.795 195.13H273.89L273.913 192.687L271.686 194.009L270.709 192.369L272.913 191.188L270.709 189.985L271.686 188.344L273.913 189.666L273.89 187.223H275.795L275.76 189.666L277.987 188.344L278.976 189.985L276.772 191.188V191.177Z" fill="#34404F"/>
<path d="M285.96 191.177L288.163 192.357L287.175 193.997L284.947 192.699L284.983 195.13H283.077L283.101 192.687L280.873 194.009L279.896 192.369L282.1 191.188L279.896 189.985L280.873 188.344L283.101 189.666L283.077 187.223H284.983L284.947 189.666L287.175 188.344L288.163 189.985L285.96 191.188V191.177Z" fill="#34404F"/>
<path d="M295.132 191.177L297.335 192.357L296.347 193.997L294.119 192.699L294.155 195.13H292.249L292.273 192.687L290.045 194.009L289.068 192.369L291.272 191.188L289.068 189.985L290.045 188.344L292.273 189.666L292.249 187.223H294.155L294.119 189.666L296.347 188.344L297.335 189.985L295.132 191.188V191.177Z" fill="#34404F"/>
<path d="M304.311 191.177L306.515 192.357L305.526 193.997L303.299 192.699L303.334 195.13H301.429L301.452 192.687L299.225 194.009L298.248 192.369L300.452 191.188L298.248 189.985L299.225 188.344L301.452 189.666L301.429 187.223H303.334L303.299 189.666L305.526 188.344L306.515 189.985L304.311 191.188V191.177Z" fill="#34404F"/>
<path d="M313.503 191.177L315.706 192.357L314.718 193.997L312.49 192.699L312.526 195.13H310.62L310.644 192.687L308.416 194.009L307.439 192.369L309.643 191.188L307.439 189.985L308.416 188.344L310.644 189.666L310.62 187.223H312.526L312.49 189.666L314.718 188.344L315.706 189.985L313.503 191.188V191.177Z" fill="#34404F"/>
<path d="M322.671 191.177L324.874 192.357L323.886 193.997L321.658 192.699L321.694 195.13H319.788L319.812 192.687L317.584 194.009L316.607 192.369L318.811 191.188L316.607 189.985L317.584 188.344L319.812 189.666L319.788 187.223H321.694L321.658 189.666L323.886 188.344L324.874 189.985L322.671 191.188V191.177Z" fill="#34404F"/>
<path d="M331.86 191.177L334.064 192.357L333.075 193.997L330.848 192.699L330.883 195.13H328.977L329.001 192.687L326.774 194.009L325.797 192.369L328.001 191.188L325.797 189.985L326.774 188.344L329.001 189.666L328.977 187.223H330.883L330.848 189.666L333.075 188.344L334.064 189.985L331.86 191.188V191.177Z" fill="#34404F"/>
<path d="M432.255 256.247H254.742C250.545 256.247 247.143 259.618 247.143 263.776V354.811C247.143 358.97 250.545 362.34 254.742 362.34H432.255C436.452 362.34 439.855 358.97 439.855 354.811V263.776C439.855 259.618 436.452 256.247 432.255 256.247Z" fill="white"/>
<path d="M432.266 362.329C432.266 362.329 432.778 362.33 433.767 362.152C434.719 361.94 436.197 361.456 437.59 360.087C438.269 359.403 438.901 358.506 439.306 357.397C439.532 356.842 439.639 356.228 439.734 355.591C439.782 354.954 439.77 354.269 439.77 353.561C439.77 350.729 439.758 347.46 439.746 343.79C439.723 329.074 439.687 307.808 439.651 281.526C439.651 278.245 439.651 274.87 439.651 271.436C439.651 269.713 439.651 267.978 439.651 266.22C439.603 264.462 439.842 262.656 439.115 261.051C438.46 259.446 437.197 258.065 435.589 257.263C434.791 256.862 433.921 256.614 433.016 256.519C432.135 256.448 431.17 256.496 430.229 256.484C426.464 256.484 422.629 256.484 418.734 256.484C403.129 256.484 386.464 256.507 368.918 256.507C333.837 256.507 295.266 256.519 254.777 256.531C253.562 256.531 252.359 256.838 251.287 257.404C250.238 257.994 249.309 258.809 248.654 259.824C248.011 260.827 247.582 261.983 247.511 263.175C247.451 264.367 247.499 265.642 247.487 266.869C247.487 271.826 247.487 276.747 247.487 281.632C247.487 291.404 247.487 301.022 247.487 310.486C247.487 319.939 247.487 329.239 247.487 338.338C247.487 342.881 247.487 347.389 247.487 351.838C247.487 352.948 247.463 354.08 247.499 355.154C247.546 356.216 247.844 357.267 248.333 358.199C249.333 360.075 251.191 361.444 253.264 361.881C254.289 362.117 255.373 362.023 256.468 362.046C257.552 362.046 258.648 362.046 259.732 362.046C261.9 362.046 264.044 362.046 266.189 362.046C270.465 362.046 274.682 362.046 278.839 362.046C287.154 362.046 295.218 362.046 303.021 362.058C318.625 362.07 333.158 362.082 346.428 362.093C372.956 362.129 394.421 362.164 409.275 362.188C416.685 362.211 422.45 362.235 426.357 362.247C428.299 362.259 429.788 362.27 430.8 362.282C431.801 362.282 432.313 362.318 432.313 362.318C432.313 362.318 431.801 362.341 430.8 362.353C429.788 362.353 428.299 362.365 426.357 362.389C422.438 362.4 416.685 362.424 409.275 362.448C394.421 362.471 372.956 362.507 346.428 362.542C333.158 362.542 318.625 362.566 303.021 362.577C295.218 362.577 287.154 362.577 278.839 362.589C274.682 362.589 270.465 362.589 266.189 362.589C264.056 362.589 261.9 362.589 259.732 362.589C258.648 362.589 257.564 362.589 256.468 362.589C255.396 362.566 254.277 362.672 253.145 362.424C250.917 361.964 248.916 360.477 247.832 358.459C247.296 357.456 246.975 356.323 246.927 355.178C246.891 354.045 246.927 352.959 246.903 351.838C246.903 347.389 246.903 342.881 246.903 338.338C246.903 329.239 246.903 319.951 246.903 310.486C246.903 301.034 246.903 291.404 246.903 281.632C246.903 276.747 246.903 271.826 246.903 266.869C246.915 265.618 246.867 264.414 246.939 263.128C247.022 261.83 247.487 260.579 248.19 259.493C248.892 258.396 249.905 257.511 251.048 256.873C252.204 256.26 253.514 255.929 254.836 255.929C295.325 255.929 333.896 255.941 368.977 255.953C386.524 255.953 403.188 255.976 418.793 255.976C422.688 255.976 426.524 255.976 430.288 255.976C431.241 255.988 432.147 255.941 433.123 256.012C434.076 256.106 435.017 256.378 435.863 256.814C437.566 257.664 438.913 259.139 439.603 260.85C439.961 261.712 440.139 262.621 440.163 263.541C440.163 264.426 440.163 265.311 440.163 266.196C440.163 267.955 440.163 269.689 440.163 271.412C440.163 274.847 440.163 278.222 440.163 281.503C440.128 307.784 440.092 329.05 440.068 343.766C440.068 347.436 440.044 350.705 440.044 353.538C440.044 354.246 440.044 354.93 439.997 355.591C439.901 356.24 439.782 356.866 439.544 357.432C439.115 358.565 438.472 359.474 437.769 360.158C436.34 361.527 434.839 362.011 433.874 362.2C433.373 362.282 433.004 362.318 432.742 362.318C432.492 362.318 432.361 362.318 432.361 362.318L432.266 362.329Z" fill="#263238"/>
<path d="M314.286 293.729V295.051H308.711V287.911H314.155V289.233H310.367V290.779H313.714V292.065H310.367V293.717H314.286V293.729Z" fill="#34404F"/>
<path d="M322.216 287.923V295.063H320.847L317.261 290.732V295.063H315.617V287.923H316.999L320.585 292.254V287.923H322.228H322.216Z" fill="#34404F"/>
<path d="M325.424 289.268H323.125V287.923H329.403V289.268H327.104V295.063H325.436V289.268H325.424Z" fill="#34404F"/>
<path d="M335.864 293.729V295.051H330.289V287.911H335.733V289.233H331.945V290.779H335.292V292.065H331.945V293.717H335.864V293.729Z" fill="#34404F"/>
<path d="M341.78 295.051L340.386 293.068H338.849V295.051H337.182V287.911H340.303C342.22 287.911 343.424 288.902 343.424 290.496C343.424 291.57 342.876 292.348 341.946 292.75L343.566 295.039H341.78V295.051ZM340.219 289.256H338.861V291.747H340.219C341.244 291.747 341.756 291.275 341.756 290.507C341.756 289.74 341.244 289.268 340.219 289.268V289.256Z" fill="#34404F"/>
<path d="M347.209 291.487C347.209 289.339 348.877 287.793 351.116 287.793C352.355 287.793 353.403 288.242 354.082 289.056L353.01 290.036C352.522 289.481 351.914 289.198 351.199 289.198C349.853 289.198 348.9 290.13 348.9 291.475C348.9 292.821 349.853 293.753 351.199 293.753C351.914 293.753 352.522 293.47 353.01 292.903L354.082 293.883C353.403 294.709 352.367 295.157 351.104 295.157C348.877 295.157 347.209 293.623 347.209 291.464V291.487Z" fill="#34404F"/>
<path d="M354.611 291.487C354.611 289.363 356.279 287.793 358.554 287.793C360.829 287.793 362.497 289.351 362.497 291.487C362.497 293.623 360.817 295.181 358.554 295.181C356.291 295.181 354.611 293.611 354.611 291.487ZM360.806 291.487C360.806 290.13 359.841 289.21 358.554 289.21C357.268 289.21 356.303 290.142 356.303 291.487C356.303 292.833 357.268 293.765 358.554 293.765C359.841 293.765 360.806 292.833 360.806 291.487Z" fill="#34404F"/>
<path d="M363.746 287.923H367.022C369.38 287.923 370.989 289.327 370.989 291.487C370.989 293.647 369.369 295.051 367.022 295.051H363.746V287.911V287.923ZM366.939 293.706C368.368 293.706 369.309 292.856 369.309 291.499C369.309 290.142 368.368 289.292 366.939 289.292H365.414V293.717H366.939V293.706Z" fill="#34404F"/>
<path d="M377.811 293.729V295.051H372.236V287.911H377.68V289.233H373.892V290.779H377.239V292.065H373.892V293.717H377.811V293.729Z" fill="#34404F"/>
<path d="M286.958 306.452H269.459C266.86 306.452 264.754 308.539 264.754 311.113V338.103C264.754 340.677 266.86 342.764 269.459 342.764H286.958C289.556 342.764 291.663 340.677 291.663 338.103V311.113C291.663 308.539 289.556 306.452 286.958 306.452Z" fill="#E0DFDE"/>
<path d="M322.684 308.551H305.186C302.587 308.551 300.48 310.638 300.48 313.212V340.202C300.48 342.776 302.587 344.863 305.186 344.863H322.684C325.283 344.863 327.39 342.776 327.39 340.202V313.212C327.39 310.638 325.283 308.551 322.684 308.551Z" fill="#E0DFDE"/>
<path d="M354.27 310.546H336.772C334.173 310.546 332.066 312.633 332.066 315.208V342.197C332.066 344.772 334.173 346.859 336.772 346.859H354.27C356.869 346.859 358.976 344.772 358.976 342.197V315.208C358.976 312.633 356.869 310.546 354.27 310.546Z" fill="#E0DFDE"/>
<path d="M385.518 312.883H368.02C365.421 312.883 363.314 314.97 363.314 317.545V344.534C363.314 347.109 365.421 349.196 368.02 349.196H385.518C388.117 349.196 390.224 347.109 390.224 344.534V317.545C390.224 314.97 388.117 312.883 385.518 312.883Z" fill="#E0DFDE"/>
<path d="M419.108 312.883H401.61C399.011 312.883 396.904 314.97 396.904 317.545V344.534C396.904 347.109 399.011 349.196 401.61 349.196H419.108C421.707 349.196 423.813 347.109 423.813 344.534V317.545C423.813 314.97 421.707 312.883 419.108 312.883Z" fill="#E0DFDE"/>
<path d="M284.079 327.41C284.079 330.006 282.054 331.682 279.314 331.682C275.55 331.682 273.572 329.003 273.572 324.566C273.572 319.763 276.145 317.296 279.933 317.296C281.16 317.296 282.304 317.497 283.185 318.028L282.756 318.854C282.018 318.394 281.017 318.205 279.933 318.205C276.717 318.205 274.621 320.294 274.621 324.401C274.621 324.826 274.644 325.451 274.74 326.1C275.335 324.236 277.134 323.185 279.302 323.185C282.161 323.185 284.091 324.849 284.091 327.398L284.079 327.41ZM283.03 327.434C283.03 325.404 281.553 324.094 279.147 324.094C276.741 324.094 275.18 325.569 275.18 327.481C275.18 329.145 276.586 330.797 279.266 330.797C281.494 330.797 283.03 329.475 283.03 327.434Z" fill="#34404F"/>
<path d="M317.311 327.657H314.309V331.587H313.285V327.657H305.125V326.902L312.892 317.402H314.059L306.435 326.737H313.309V323.267H314.309V326.737H317.311V327.645V327.657Z" fill="#34404F"/>
<path d="M351.966 333.594C351.966 333.759 349.178 333.901 345.736 333.901C342.293 333.901 339.506 333.759 339.506 333.594C339.506 333.429 342.293 333.287 345.736 333.287C349.178 333.287 351.966 333.429 351.966 333.594Z" fill="#34404F"/>
<path d="M259.375 269.726C260.987 269.726 262.294 268.432 262.294 266.835C262.294 265.238 260.987 263.943 259.375 263.943C257.764 263.943 256.457 265.238 256.457 266.835C256.457 268.432 257.764 269.726 259.375 269.726Z" fill="#34404F"/>
<path d="M270.702 266.835C270.702 268.428 269.392 269.726 267.784 269.726C266.176 269.726 264.865 268.428 264.865 266.835C264.865 265.242 266.176 263.943 267.784 263.943C269.392 263.943 270.702 265.242 270.702 266.835Z" fill="#34404F"/>
<path d="M276.04 269.726C277.651 269.726 278.958 268.432 278.958 266.835C278.958 265.238 277.651 263.943 276.04 263.943C274.428 263.943 273.121 265.238 273.121 266.835C273.121 268.432 274.428 269.726 276.04 269.726Z" fill="#34404F"/>
<path d="M440.142 274.976C440.142 275.141 396.997 275.283 343.786 275.283C290.575 275.283 247.418 275.141 247.418 274.976C247.418 274.811 290.551 274.669 343.786 274.669C397.021 274.669 440.142 274.811 440.142 274.976Z" fill="#263238"/>
<path d="M223.67 125.999H130.875C128.207 125.999 126.051 128.135 126.051 130.779V172.661C126.051 175.305 128.207 177.441 130.875 177.441H169.804L178.07 187.944L184.956 177.441H223.658C226.326 177.441 228.482 175.305 228.482 172.661V130.779C228.482 128.135 226.326 125.999 223.658 125.999H223.67Z" fill="white"/>
<path d="M223.669 125.998C223.669 125.998 223.824 125.998 224.133 125.998C224.431 126.034 224.896 126.069 225.456 126.293C226.015 126.506 226.694 126.872 227.29 127.521C227.897 128.158 228.422 129.102 228.565 130.258C228.648 134.826 228.636 141.446 228.672 149.849C228.672 154.05 228.696 158.688 228.707 163.715C228.707 166.229 228.708 168.849 228.719 171.551C228.708 172.224 228.767 172.92 228.624 173.64C228.481 174.348 228.183 175.033 227.743 175.623C226.873 176.815 225.432 177.617 223.895 177.664C212.221 177.676 199.13 177.7 184.967 177.723L185.205 177.593C183.037 180.898 180.702 184.462 178.32 188.097L178.093 188.439L177.843 188.12C175.235 184.804 172.423 181.24 169.564 177.617L169.803 177.735C159.082 177.735 147.861 177.735 136.354 177.735H132.339C131.661 177.723 131.029 177.759 130.303 177.7C129.6 177.617 128.909 177.393 128.301 177.039C127.074 176.342 126.181 175.127 125.871 173.758C125.704 173.074 125.752 172.377 125.74 171.74V169.793C125.74 164.612 125.74 159.502 125.74 154.475C125.74 149.459 125.74 144.526 125.74 139.688C125.74 137.268 125.74 134.885 125.74 132.524V130.754C125.74 130.129 125.859 129.515 126.086 128.937C126.538 127.78 127.42 126.813 128.516 126.258C129.064 125.975 129.659 125.798 130.267 125.727C130.886 125.668 131.446 125.703 132.03 125.691C133.173 125.691 134.317 125.691 135.46 125.691C137.724 125.691 139.963 125.691 142.179 125.691C146.586 125.691 150.875 125.691 155.02 125.703C163.299 125.715 171.018 125.727 178.058 125.739C192.126 125.774 203.526 125.809 211.423 125.833C215.342 125.857 218.404 125.88 220.488 125.892C221.513 125.904 222.299 125.916 222.847 125.927C223.383 125.927 223.645 125.963 223.645 125.963C223.645 125.963 223.371 125.986 222.847 125.998C222.299 125.998 221.513 126.01 220.488 126.034C218.392 126.045 215.342 126.069 211.423 126.093C203.526 126.116 192.126 126.152 178.058 126.187C171.018 126.187 163.299 126.211 155.02 126.222C150.875 126.222 146.598 126.222 142.179 126.234C139.975 126.234 137.736 126.234 135.46 126.234C134.329 126.234 133.185 126.234 132.03 126.234C131.458 126.234 130.862 126.222 130.338 126.27C129.802 126.329 129.266 126.494 128.778 126.742C127.801 127.237 127.015 128.099 126.622 129.126C126.419 129.633 126.324 130.188 126.312 130.742V132.513C126.312 134.873 126.312 137.268 126.312 139.676C126.312 144.503 126.312 149.436 126.312 154.463C126.312 159.478 126.312 164.588 126.312 169.781V171.728C126.312 172.389 126.276 173.014 126.431 173.605C126.693 174.796 127.491 175.87 128.563 176.484C129.099 176.791 129.695 176.992 130.314 177.062C130.91 177.121 131.625 177.086 132.28 177.098C133.614 177.098 134.96 177.098 136.294 177.098C147.801 177.098 159.022 177.098 169.743 177.098H169.886L169.981 177.216C172.828 180.839 175.64 184.403 178.248 187.719L177.772 187.743C180.154 184.108 182.501 180.544 184.669 177.239L184.752 177.11H184.907C199.059 177.121 212.15 177.133 223.812 177.145C225.205 177.098 226.516 176.378 227.302 175.304C227.695 174.773 227.981 174.147 228.112 173.51C228.243 172.873 228.195 172.188 228.207 171.516C228.207 168.813 228.207 166.193 228.219 163.68C228.231 158.652 228.243 154.014 228.255 149.813C228.279 141.434 228.291 134.802 228.302 130.235C228.183 129.126 227.695 128.205 227.111 127.58C226.54 126.931 225.884 126.565 225.348 126.34C224.241 125.904 223.597 126.01 223.597 125.963L223.669 125.998Z" fill="#263238"/>
<path d="M159.892 137.812V139.358H158.868V137.8L157.152 134.992H158.236L159.416 136.939L160.595 134.992H161.596L159.88 137.812H159.892Z" fill="#34404F"/>
<path d="M161.586 137.174C161.586 135.875 162.61 134.908 164.004 134.908C165.398 134.908 166.422 135.864 166.422 137.174C166.422 138.483 165.398 139.439 164.004 139.439C162.61 139.439 161.586 138.472 161.586 137.174ZM165.386 137.174C165.386 136.347 164.79 135.769 164.004 135.769C163.218 135.769 162.622 136.336 162.622 137.174C162.622 138.011 163.218 138.578 164.004 138.578C164.79 138.578 165.386 138.011 165.386 137.174Z" fill="#34404F"/>
<path d="M167.145 137.434V134.979H168.169V137.386C168.169 138.213 168.538 138.567 169.158 138.567C169.777 138.567 170.146 138.224 170.146 137.386V134.979H171.159V137.434C171.159 138.72 170.42 139.428 169.158 139.428C167.895 139.428 167.156 138.72 167.156 137.434H167.145Z" fill="#34404F"/>
<path d="M174.977 139.357L174.132 138.142H173.19V139.357H172.166V134.979H174.072C175.251 134.979 175.99 135.581 175.99 136.56C175.99 137.221 175.656 137.693 175.084 137.941L176.073 139.345H174.977V139.357ZM174.024 135.805H173.19V137.327H174.024C174.644 137.327 174.965 137.044 174.965 136.56C174.965 136.077 174.656 135.793 174.024 135.793V135.805Z" fill="#34404F"/>
<path d="M178.313 137.174C178.313 135.852 179.337 134.908 180.707 134.908C181.469 134.908 182.113 135.179 182.518 135.687L181.862 136.288C181.565 135.946 181.195 135.781 180.755 135.781C179.933 135.781 179.337 136.359 179.337 137.185C179.337 138.011 179.921 138.59 180.755 138.59C181.195 138.59 181.565 138.413 181.862 138.07L182.518 138.672C182.101 139.18 181.469 139.451 180.695 139.451C179.325 139.451 178.301 138.507 178.301 137.185L178.313 137.174Z" fill="#34404F"/>
<path d="M182.846 137.174C182.846 135.875 183.87 134.908 185.264 134.908C186.658 134.908 187.682 135.864 187.682 137.174C187.682 138.483 186.658 139.439 185.264 139.439C183.87 139.439 182.846 138.472 182.846 137.174ZM186.646 137.174C186.646 136.347 186.05 135.769 185.264 135.769C184.478 135.769 183.882 136.336 183.882 137.174C183.882 138.011 184.478 138.578 185.264 138.578C186.05 138.578 186.646 138.011 186.646 137.174Z" fill="#34404F"/>
<path d="M188.447 134.991H190.448C191.89 134.991 192.879 135.852 192.879 137.174C192.879 138.496 191.89 139.357 190.448 139.357H188.447V134.979V134.991ZM190.401 138.531C191.282 138.531 191.854 138.012 191.854 137.174C191.854 136.336 191.282 135.817 190.401 135.817H189.472V138.531H190.401Z" fill="#34404F"/>
<path d="M197.079 138.556V139.37H193.66V134.992H196.996V135.806H194.673V136.75H196.722V137.541H194.673V138.556H197.079Z" fill="#34404F"/>
<path d="M214.618 143.961H139.942C137.606 143.961 135.713 145.837 135.713 148.15V163.775C135.713 166.089 137.606 167.965 139.942 167.965H214.618C216.953 167.965 218.847 166.089 218.847 163.775V148.15C218.847 145.837 216.953 143.961 214.618 143.961Z" fill="#F5F5F5"/>
<path d="M152.601 157.426C152.601 159.55 150.945 160.931 148.694 160.931C145.608 160.931 143.988 158.736 143.988 155.101C143.988 151.171 146.097 149.142 149.194 149.142C150.194 149.142 151.135 149.307 151.862 149.743L151.505 150.428C150.897 150.05 150.075 149.897 149.194 149.897C146.561 149.897 144.834 151.608 144.834 154.971C144.834 155.325 144.846 155.833 144.929 156.364C145.418 154.842 146.895 153.968 148.67 153.968C151.016 153.968 152.589 155.325 152.589 157.426H152.601ZM151.743 157.438C151.743 155.774 150.54 154.7 148.562 154.7C146.585 154.7 145.311 155.916 145.311 157.473C145.311 158.83 146.466 160.199 148.658 160.199C150.48 160.199 151.743 159.125 151.743 157.45V157.438Z" fill="#9ABBD7"/>
<path d="M168.168 157.627H165.702V160.849H164.868V157.627H158.186V157.013L164.558 149.225H165.511L159.258 156.884H164.892V154.04H165.714V156.884H168.18V157.627H168.168Z" fill="#9ABBD7"/>
<path d="M181.196 157.58C181.196 159.504 179.791 160.931 177.087 160.931C175.359 160.931 173.763 160.306 172.953 159.374L173.394 158.725C174.109 159.539 175.49 160.153 177.099 160.153C179.207 160.153 180.339 159.161 180.339 157.58C180.339 155.999 179.266 155.007 176.92 155.007H176.181V154.394L179.648 149.992H173.394V149.225H180.755V149.826L177.241 154.299C179.91 154.37 181.208 155.692 181.208 157.592L181.196 157.58Z" fill="#9ABBD7"/>
<path d="M195.381 149.225V149.826L190.342 160.849H189.401L194.392 149.992H187.805V152.222H186.971V149.236H195.381V149.225Z" fill="#9ABBD7"/>
<path d="M201.373 155.03C201.373 151.396 203.267 149.142 205.959 149.142C208.651 149.142 210.545 151.396 210.545 155.03C210.545 158.665 208.651 160.919 205.959 160.919C203.267 160.919 201.373 158.665 201.373 155.03ZM209.7 155.03C209.7 151.797 208.175 149.92 205.959 149.92C203.744 149.92 202.219 151.797 202.219 155.03C202.219 158.264 203.744 160.14 205.959 160.14C208.175 160.14 209.7 158.264 209.7 155.03Z" fill="#9ABBD7"/>
<path d="M456.787 458.985C472.38 452.423 490.438 439.525 498.491 423.711C481.671 430.402 466.841 442.959 456.787 458.985Z" fill="#34404F"/>
<path d="M460.102 434.437C475.694 427.875 493.753 414.976 501.805 399.163C484.986 405.854 470.155 418.41 460.102 434.437Z" fill="#34404F"/>
<path d="M464.607 410.551C480.2 403.989 498.259 391.091 506.311 375.277C489.492 381.968 474.661 394.525 464.607 410.551Z" fill="#34404F"/>
<path d="M470.266 385.557C484.977 376.907 501.38 361.636 507.491 344.866C491.576 353.823 478.33 368.292 470.266 385.557Z" fill="#34404F"/>
<path d="M476.316 366.427C487.037 352.536 497.031 331.861 496.9 313.946C485.167 328.603 477.841 347.273 476.316 366.427Z" fill="#34404F"/>
<path d="M473.319 375.524C471.151 356.737 463.777 333.122 451.258 319.032C453.247 339.165 461.097 359.25 473.319 375.524Z" fill="#34404F"/>
<path d="M468.279 396.072C464.467 376.706 454.819 352.749 440.596 339.166C444.336 359.948 454.187 380.187 468.279 396.072Z" fill="#34404F"/>
<path d="M462.486 421.125C458.674 401.76 449.026 377.803 434.803 364.22C438.543 385.002 448.394 405.241 462.486 421.125Z" fill="#34404F"/>
<path d="M457.844 451.892C454.032 432.526 444.383 408.57 430.16 394.986C433.901 415.768 443.752 436.008 457.844 451.892Z" fill="#34404F"/>
<path d="M477.045 362.744C477.045 362.744 476.997 362.839 476.925 363.039C476.842 363.263 476.747 363.558 476.628 363.901C476.366 364.715 476.008 365.836 475.544 367.252C474.603 370.167 473.34 374.404 471.851 379.667C470.362 384.93 468.718 391.221 467.015 398.254C465.347 405.288 463.655 413.053 462.095 421.243C460.546 429.445 459.284 437.281 458.259 444.444C457.259 451.596 456.484 458.063 455.948 463.503C455.4 468.944 455.031 473.346 454.829 476.39C454.733 477.877 454.662 479.058 454.602 479.895C454.59 480.273 454.567 480.568 454.555 480.804C454.555 481.005 454.555 481.111 454.555 481.123C454.555 481.123 454.579 481.017 454.614 480.816C454.638 480.58 454.674 480.273 454.721 479.907C454.805 479.057 454.912 477.889 455.055 476.402C455.317 473.357 455.758 468.967 456.365 463.539C456.961 458.11 457.771 451.667 458.807 444.515C459.867 437.375 461.142 429.539 462.691 421.349C464.251 413.171 465.931 405.406 467.563 398.372C469.23 391.35 470.827 385.049 472.268 379.773C473.697 374.498 474.9 370.25 475.77 367.323C476.187 365.883 476.508 364.762 476.747 363.936C476.842 363.57 476.925 363.287 476.985 363.051C477.033 362.85 477.056 362.744 477.045 362.744Z" fill="#34404F"/>
<path d="M449.187 469.216C455.798 455.491 460.611 436.208 457.359 421.149C450.021 435.712 447.115 452.8 449.187 469.216Z" fill="#455A64"/>
<path d="M438.191 451.441C444.802 437.716 449.615 418.433 446.363 403.375C439.025 417.937 436.118 435.026 438.191 451.441Z" fill="#455A64"/>
<path d="M428.328 433.374C434.939 419.649 439.752 400.366 436.5 385.308C429.162 399.87 426.255 416.959 428.328 433.374Z" fill="#455A64"/>
<path d="M418.605 413.891C423.525 399.364 425.99 379.573 420.975 365.081C415.436 380.541 414.603 397.889 418.605 413.891Z" fill="#455A64"/>
<path d="M412.282 397.947C411.794 382.499 407.208 363.145 397.523 351.733C397.762 368.29 403.003 384.729 412.282 397.947Z" fill="#455A64"/>
<path d="M415.198 405.607C403.727 394.879 386.288 384.234 370.6 382.842C382.678 394.537 398.533 402.633 415.198 405.607Z" fill="#455A64"/>
<path d="M422.941 421.857C410.088 411.767 390.981 402.291 374.471 402.255C388.038 413.301 405.275 420.276 422.941 421.857Z" fill="#455A64"/>
<path d="M432.607 441.458C419.754 431.368 400.647 421.892 384.137 421.856C397.704 432.902 414.941 439.877 432.607 441.458Z" fill="#455A64"/>
<path d="M446.077 464.022C433.224 453.932 414.117 444.456 397.607 444.42C411.175 455.466 428.412 462.441 446.077 464.022Z" fill="#455A64"/>
<path d="M410.781 395.138C410.781 395.138 410.793 395.233 410.853 395.398C410.924 395.598 411.008 395.835 411.115 396.13C411.377 396.814 411.734 397.735 412.187 398.903C413.128 401.31 414.558 404.78 416.392 409.017C420.061 417.514 425.493 429.102 432.247 441.517C435.63 447.725 439.025 453.543 442.205 458.783C445.41 463.999 448.376 468.66 450.973 472.496C453.545 476.343 455.69 479.423 457.214 481.524C457.953 482.538 458.537 483.341 458.977 483.931C459.168 484.179 459.323 484.38 459.442 484.545C459.549 484.686 459.609 484.745 459.621 484.745C459.621 484.745 459.585 484.663 459.49 484.509C459.37 484.332 459.239 484.12 459.073 483.86C458.668 483.258 458.108 482.432 457.405 481.394C455.94 479.258 453.855 476.142 451.318 472.271C448.781 468.401 445.85 463.739 442.67 458.511C439.525 453.259 436.154 447.442 432.771 441.246C426.029 428.843 420.537 417.301 416.773 408.851C414.891 404.626 413.402 401.192 412.401 398.808C411.901 397.652 411.508 396.743 411.222 396.071C411.091 395.787 410.984 395.551 410.901 395.363C410.829 395.209 410.781 395.126 410.77 395.126L410.781 395.138Z" fill="#263238"/>
<path d="M417.688 470.868H483.394V483.412H476.64L470.958 519.194H430.338L424.489 483.412H417.688V470.868Z" fill="#E3794E"/>
<path d="M417.688 483.152C417.688 482.987 432.292 482.846 450.303 482.846C468.313 482.846 482.918 482.975 482.918 483.152C482.918 483.329 468.313 483.459 450.303 483.459C432.292 483.459 417.688 483.329 417.688 483.152Z" fill="#263238"/>
<path d="M41.3133 519.215H30.652L26.6973 471.656H39.2525L41.3133 519.215Z" fill="#34404F"/>
<path d="M133.75 519.215H144.411L148.366 471.656H135.811L133.75 519.215Z" fill="#263238"/>
<path d="M155.696 477.676L18.4226 480.875L14.2415 393.038C13.8365 384.435 20.7574 377.248 29.4531 377.248H146.405C155.232 377.248 162.212 384.659 161.593 393.38L155.685 477.688L155.696 477.676Z" fill="#9ABBD7"/>
<path d="M162.735 392.732C162.735 392.732 162.604 392.755 162.354 392.767C162.068 392.767 161.698 392.791 161.234 392.802C160.209 392.814 158.756 392.838 156.91 392.861C153.11 392.873 147.69 392.897 140.995 392.92C127.559 392.944 109 392.791 88.5111 393.263C68.0106 393.935 49.4398 393.817 36.0031 393.617C29.2847 393.51 23.8528 393.381 20.0886 393.274C18.2423 393.215 16.789 393.168 15.7646 393.133C15.3 393.109 14.9307 393.097 14.6449 393.074C14.3947 393.062 14.2637 393.05 14.2637 393.038C14.2637 393.027 14.3947 393.015 14.6449 393.015C14.9307 393.015 15.3 393.015 15.7646 393.015C16.789 393.015 18.2423 393.038 20.0886 393.05C23.8886 393.086 29.3085 393.133 36.0031 393.204C49.4398 393.298 67.9987 393.345 88.4992 392.661C109 392.189 127.571 392.413 141.007 392.496C147.69 392.555 153.122 392.602 156.922 392.637C158.768 392.661 160.221 392.673 161.246 392.684C161.71 392.684 162.08 392.708 162.365 392.708C162.616 392.708 162.747 392.732 162.747 392.743L162.735 392.732Z" fill="#263238"/>
<path d="M64.3137 378.605C64.3494 378.806 60.0135 378.888 55.4035 381.26C50.7578 383.573 48.1491 387.007 48.0062 386.854C47.9466 386.819 48.5184 385.91 49.7096 384.671C50.9008 383.432 52.771 381.909 55.1295 380.717C57.4881 379.525 59.8348 378.924 61.5382 378.699C63.2535 378.475 64.3256 378.546 64.3256 378.617L64.3137 378.605Z" fill="#263238"/>
<path d="M120.78 218.897L137.564 249.262L162.151 235.643L174.099 239.549C174.099 239.549 143.937 271.944 139.042 273.596C134.146 275.248 124.878 275.543 119.589 268.982C114.765 262.998 100.721 231.595 100.721 231.595L120.78 218.897Z" fill="#F7E2CA"/>
<path d="M189.855 199.072C189.414 198.541 188.735 198.269 188.044 198.364L176.358 199.957C175.334 200.11 174.428 200.7 173.857 201.562L149.58 238.523L151.45 239.562L164.375 239.161L190.224 199.532L189.855 199.084V199.072Z" fill="#34404F"/>
<path d="M181.574 203.874C181.824 204.087 182.264 204.004 182.55 203.674C182.836 203.343 182.872 202.906 182.622 202.682C182.372 202.458 181.931 202.552 181.645 202.883C181.359 203.213 181.323 203.65 181.574 203.874Z" fill="white"/>
<path d="M190.219 199.533C190.219 199.533 189.421 199.733 187.956 199.981C186.371 200.229 184.287 200.547 181.761 200.937C180.439 201.126 179.01 201.338 177.473 201.562C176.735 201.633 176.079 202.011 175.662 202.613C175.21 203.297 174.757 204.017 174.281 204.737C172.363 207.652 170.278 210.85 168.086 214.202C163.667 220.905 159.641 226.959 156.699 231.325C155.269 233.426 154.078 235.161 153.185 236.471C152.339 237.674 151.85 238.335 151.815 238.3C151.779 238.276 152.184 237.568 152.958 236.317C153.804 234.972 154.936 233.202 156.294 231.054C159.129 226.628 163.095 220.527 167.515 213.824C169.73 210.484 171.839 207.298 173.757 204.383C174.245 203.663 174.71 202.955 175.174 202.259C175.686 201.503 176.58 201.031 177.402 200.984C178.938 200.795 180.38 200.606 181.702 200.441C184.239 200.146 186.348 199.898 187.932 199.71C189.409 199.556 190.219 199.485 190.231 199.533H190.219Z" fill="#455A64"/>
<path d="M177.256 212.75C177.256 212.75 176.208 212.561 175.648 215.393C175.076 218.214 173.242 226.321 173.242 226.321L167.786 223.453L160.96 224.338C160.96 224.338 159.471 225.707 160.567 226.439C161.663 227.183 165.975 227.938 165.975 227.938L169.156 232.47L160.019 228.103C160.019 228.103 156.97 228.894 157.863 230.735C158.757 232.576 164.915 238.347 164.915 238.347L160.341 238.004L154.897 234.735C154.897 234.735 153.229 234.806 153.849 236.222C154.468 237.627 160.138 242.725 160.138 242.725L167 246.029C167 246.029 170.752 245.734 171.109 244.648C171.467 243.563 171.562 242.005 171.562 242.005C171.562 242.005 173.551 241.474 173.921 240.518C174.29 239.562 174.052 238.052 174.052 238.052C174.052 238.052 177.173 238.594 177.566 236.871C177.959 235.148 177.625 231.75 177.315 230.428C177.006 229.106 178.65 216.774 178.519 216.396C178.388 216.019 179.233 211.959 177.28 212.773L177.256 212.75Z" fill="#F7E2CA"/>
<path d="M171.335 244.636C171.359 244.718 170.692 245.001 169.548 245.19C168.405 245.379 166.761 245.391 165.022 244.99C163.283 244.577 161.829 243.833 160.888 243.149C159.947 242.476 159.483 241.921 159.542 241.862C159.673 241.685 161.841 243.55 165.188 244.317C168.512 245.131 171.299 244.435 171.335 244.647V244.636Z" fill="#F7E2CA"/>
<path d="M169.716 242.195C169.608 242.349 168.393 241.723 167.095 240.661C165.797 239.611 164.927 238.549 165.07 238.419C165.213 238.277 166.273 239.092 167.548 240.13C168.822 241.169 169.835 242.042 169.728 242.195H169.716Z" fill="#F7E2CA"/>
<path d="M173.321 236.329C173.214 236.482 172.011 235.868 170.796 234.747C169.569 233.638 168.854 232.493 169.009 232.375C169.164 232.257 170.093 233.166 171.272 234.24C172.44 235.314 173.44 236.163 173.321 236.329Z" fill="#F7E2CA"/>
<path d="M177.132 231.596C176.942 231.679 176.251 230.393 175.167 229.012C174.095 227.607 173.023 226.628 173.142 226.463C173.249 226.309 174.571 227.1 175.715 228.587C176.87 230.062 177.299 231.537 177.121 231.596H177.132Z" fill="#F7E2CA"/>
<path d="M181.754 450.463C181.754 450.463 181.837 450.061 181.718 449.341C181.599 448.633 181.301 447.595 180.575 446.497C180.384 446.226 180.205 445.943 179.896 445.671C179.61 445.412 179.098 445.211 178.621 445.388C178.383 445.471 178.145 445.683 178.061 445.955C177.966 446.226 178.014 446.497 178.085 446.71C178.24 447.158 178.478 447.477 178.681 447.855C179.121 448.598 179.491 449.33 180.05 450.156C180.336 450.581 180.98 450.935 181.563 450.828C182.147 450.758 182.612 450.474 183.028 450.191C183.839 449.601 184.565 448.94 185.185 448.22C185.494 447.866 185.78 447.5 186.03 447.123C186.269 446.757 186.554 446.379 186.674 445.872C186.781 445.376 186.59 444.727 186.03 444.503C185.459 444.302 184.982 444.586 184.672 444.81C184.017 445.341 183.636 445.895 183.231 446.427C182.481 447.489 182.052 448.456 181.825 449.141C181.599 449.825 181.539 450.215 181.575 450.227C181.694 450.274 182.076 448.704 183.612 446.71C183.993 446.238 184.47 445.659 184.994 445.27C185.268 445.081 185.601 444.951 185.804 445.058C186.018 445.128 186.138 445.459 186.066 445.766C185.995 446.084 185.756 446.427 185.506 446.781C185.256 447.135 184.982 447.477 184.684 447.807C184.089 448.48 183.41 449.105 182.635 449.66C182.266 449.92 181.861 450.144 181.492 450.179C181.111 450.227 180.825 450.073 180.575 449.754C180.098 449.082 179.657 448.244 179.217 447.548C179.002 447.182 178.752 446.828 178.645 446.533C178.526 446.214 178.597 446.002 178.824 445.919C179.336 445.707 179.848 446.285 180.193 446.781C181.647 448.822 181.623 450.522 181.766 450.474L181.754 450.463Z" fill="#263238"/>
<path d="M152.485 451.466L137.953 482.668L114.498 471.929L129.531 433.304L152.485 451.466Z" fill="#FFBE9D"/>
<path d="M140.698 480.591L132.205 496.64C132.205 496.64 153.944 518.909 151.907 523.889L100.805 499.614L114.849 467.432L140.71 480.602L140.698 480.591Z" fill="#34404F"/>
<path d="M117.467 486.929C116.348 486.728 115.133 487.507 114.883 488.604C114.632 489.702 115.419 490.941 116.538 491.153C117.658 491.378 119.147 490.481 119.266 489.371C119.385 488.25 118.385 486.858 117.253 486.905" fill="#E0E0E0"/>
<g opacity="0.6">
<path d="M100.801 499.603L102.921 495.567L151.117 520.35C151.117 520.35 152.916 522.415 151.892 523.879L100.789 499.603H100.801Z" fill="white"/>
</g>
<path d="M133.155 496.772C133.023 497.02 131.725 496.536 130.117 496.749C128.497 496.914 127.353 497.693 127.163 497.481C126.96 497.327 128.044 496.017 129.998 495.805C131.951 495.569 133.321 496.572 133.155 496.772Z" fill="#263238"/>
<path d="M137.456 501.504C137.396 501.775 136.11 501.681 134.764 502.318C133.394 502.92 132.631 503.947 132.381 503.817C132.131 503.746 132.655 502.212 134.359 501.445C136.05 500.666 137.563 501.256 137.456 501.492V501.504Z" fill="#263238"/>
<path d="M137.419 509.304C137.169 509.245 137.419 507.853 138.717 506.803C140.004 505.74 141.445 505.764 141.445 506.024C141.493 506.295 140.373 506.661 139.325 507.534C138.253 508.384 137.681 509.399 137.419 509.304Z" fill="#263238"/>
<path d="M135.596 490.588C135.381 490.765 134.405 489.879 132.951 489.301C131.51 488.699 130.188 488.64 130.152 488.369C130.093 488.121 131.605 487.72 133.309 488.416C135.024 489.101 135.81 490.446 135.596 490.588Z" fill="#263238"/>
<path d="M145.485 476.426L183.794 381.426C183.794 381.426 182.936 365.223 179.923 360.101C176.909 354.979 85.6392 325.122 85.6392 325.122C85.6392 325.122 62.387 319.575 46.8895 325.122C31.392 330.668 19.7659 349.857 21.922 360.526C24.0781 371.194 33.155 379.018 33.155 379.018L100.279 380.989L136.861 394.207L112.227 464.153L145.485 476.402V476.426Z" fill="#34404F"/>
<path d="M179.561 411.506L180.431 445.871L154.593 446.497L150.877 405.263L179.561 411.506Z" fill="#FFBE9D"/>
<path d="M181.972 442.804L181.495 460.919C181.495 460.919 210.918 471.386 211.311 476.756L154.645 477.322L152.906 442.308L181.972 442.816V442.804Z" fill="#34404F"/>
<path d="M163.95 458.654C162.854 458.961 162.115 460.188 162.377 461.286C162.639 462.383 163.902 463.138 164.998 462.855C166.094 462.572 167.035 461.12 166.654 460.058C166.261 458.996 164.748 458.182 163.747 458.725" fill="#E0E0E0"/>
<path d="M155.457 479.587L155.564 475.031L209.859 476.188C209.859 476.188 212.396 477.25 212.122 479.008L155.457 479.575V479.587Z" fill="#C9C7C7"/>
<path d="M182.411 460.612C182.411 460.883 181.017 461.025 179.671 461.922C178.289 462.783 177.61 463.975 177.348 463.869C177.098 463.822 177.491 462.169 179.147 461.119C180.791 460.045 182.47 460.364 182.411 460.612Z" fill="#263238"/>
<path d="M188.376 462.984C188.447 463.243 187.244 463.727 186.315 464.896C185.35 466.04 185.124 467.291 184.85 467.28C184.588 467.327 184.385 465.722 185.564 464.294C186.732 462.854 188.364 462.724 188.364 462.984H188.376Z" fill="#263238"/>
<path d="M191.822 470.006C191.572 470.065 191.167 468.696 191.869 467.198C192.548 465.687 193.847 465.073 193.978 465.309C194.133 465.534 193.299 466.348 192.751 467.599C192.167 468.838 192.108 469.994 191.834 470.018L191.822 470.006Z" fill="#263238"/>
<path d="M181.843 454.004C181.724 454.252 180.462 453.886 178.889 454.004C177.329 454.098 176.114 454.629 175.971 454.393C175.804 454.193 176.983 453.166 178.83 453.048C180.676 452.918 181.974 453.78 181.843 453.992V454.004Z" fill="#263238"/>
<path d="M164.486 316.117C164.486 316.117 179.96 314.89 181.687 331.53C183.414 348.17 185.106 425.798 185.106 425.798L148.941 428.784L143.342 349.456L85.6523 325.145C85.6523 325.145 154.158 314.005 164.498 316.129L164.486 316.117Z" fill="#34404F"/>
<path d="M100.691 293.672C100.691 293.672 110.078 319.765 108.291 322.668C106.504 325.571 82.3466 337.537 82.3466 337.537L21.9171 360.526C21.9171 360.526 15.7109 350.743 15.7109 335.72C15.7109 320.697 36.7356 293.66 36.7356 293.66H100.691V293.672Z" fill="#34404F"/>
<path d="M82.7754 323.799C82.7754 323.799 82.8707 323.858 83.0613 323.953C83.2876 324.059 83.5616 324.189 83.9189 324.342C84.717 324.696 85.8368 325.192 87.2662 325.817C90.2323 327.104 94.4968 328.933 99.8334 331.234C110.614 335.836 125.718 342.28 143.205 349.727L143.014 349.455C143.562 357.291 144.158 365.753 144.765 374.509C146.231 394.973 147.589 413.855 148.661 428.783L148.684 429.055L148.958 429.031C159.953 428.075 168.982 427.285 175.308 426.742C178.417 426.458 180.859 426.222 182.562 426.069C183.36 425.986 183.992 425.916 184.456 425.868C184.885 425.821 185.099 425.786 185.099 425.774C185.099 425.762 184.873 425.774 184.444 425.786C183.98 425.809 183.348 425.857 182.538 425.904C180.835 426.034 178.381 426.211 175.272 426.435C168.947 426.931 159.917 427.639 148.911 428.5L149.197 428.748C148.16 413.808 146.85 394.937 145.432 374.462C144.813 365.706 144.206 357.244 143.658 349.408V349.207L143.467 349.137C125.944 341.773 110.804 335.4 100 330.856C94.6397 328.626 90.3514 326.844 87.3615 325.605C85.9082 325.015 84.7766 324.554 83.9785 324.224C83.6092 324.082 83.3233 323.964 83.097 323.882C82.8945 323.811 82.7992 323.776 82.7873 323.787L82.7754 323.799Z" fill="#455A64"/>
<path d="M34.7076 326.408C34.7076 326.408 35.327 326.29 36.3991 325.947C37.6022 325.57 39.127 325.074 40.9495 324.496C44.7851 323.292 50.1098 321.605 56.173 320.684C62.2362 319.752 67.8468 320.047 71.7658 320.885C75.6968 321.687 77.96 322.808 78.0077 322.678C78.0196 322.643 77.4717 322.336 76.4353 321.888C75.399 321.439 73.8385 320.896 71.8611 320.424C67.9182 319.457 62.2005 319.091 56.0658 320.023C49.9311 320.955 44.5946 322.726 40.7827 324.047C38.8768 324.72 37.3521 325.286 36.2919 325.7C35.2436 326.113 34.6719 326.36 34.6838 326.408H34.7076Z" fill="#455A64"/>
<path d="M43.2539 312.648C43.2658 312.754 45.2789 312.365 48.5428 312.612C50.1748 312.73 52.1045 312.966 54.2606 313.214C56.4167 313.474 58.7752 313.757 61.2291 314.217C66.1368 315.079 70.3656 316.778 73.0696 318.572C75.7975 320.33 77.084 321.935 77.1793 321.853C77.2031 321.829 76.9291 321.404 76.2978 320.732C75.6664 320.059 74.7016 319.127 73.3317 318.194C70.6396 316.259 66.3155 314.453 61.3482 313.58C58.8705 313.12 56.4881 312.848 54.3321 312.624C52.176 312.412 50.2224 312.211 48.5667 312.152C46.9109 312.093 45.5648 312.188 44.6595 312.329C43.7423 312.471 43.2539 312.624 43.2658 312.66L43.2539 312.648Z" fill="#455A64"/>
<path d="M69.9544 103.01C62.9978 101.842 56.887 104.497 51.0263 108.38C45.1656 112.262 40.7462 118.128 38.1971 124.642C35.5169 131.51 34.8617 139.228 36.9225 146.297C38.9833 153.366 43.8791 159.692 50.5021 163.032C59.5434 167.587 71.1218 165.994 79.2101 159.94C87.2983 153.874 91.9321 143.854 92.3133 133.812C92.5753 126.896 90.9076 119.815 87.0124 114.068C83.1053 108.321 76.8753 104.025 69.9663 103.022" fill="#34404F"/>
<path d="M50.1459 125.514C51.1584 122.882 50.7653 119.932 51.1704 117.147C52.0518 110.999 57.0549 106.066 62.8441 103.67C68.2283 101.44 74.8038 101.923 81.2839 104C85.727 105.428 89.9082 107.907 92.8742 111.482C96.8052 116.227 98.187 122.941 96.4598 128.83L64.6905 124.251C61.7125 126.694 58.6749 129.172 55.0656 130.53C54.0054 130.931 52.8738 131.226 51.754 131.049C50.6343 130.872 49.5503 130.117 49.2883 129.031C49.0024 127.839 49.7171 126.671 50.1578 125.526L50.1459 125.514Z" fill="#34404F"/>
<path d="M81.9697 112.686L54.2386 118.504C51.5584 118.681 49.45 120.864 49.4023 123.531L49.7359 182.998C49.7597 187.058 51.1296 190.999 53.643 194.209L56.2875 197.584C62.3149 205.291 74.5366 204.512 79.1347 195.897C79.4563 195.295 79.6826 194.764 79.7779 194.339C79.8732 193.808 80.0162 193.454 80.04 192.994L80.5641 187.199C80.8381 181.901 80.8738 176.531 80.8738 176.578C80.8738 176.578 92.226 175.162 95.1325 160.67C96.5738 153.459 96.681 141.564 96.4428 131.828C96.2284 123.059 90.7965 112.108 81.9697 112.686Z" fill="#F7E2CA"/>
<path d="M92.2175 142.98C92.2175 143.971 91.3718 144.785 90.3235 144.797C89.2872 144.809 88.4414 144.03 88.4414 143.039C88.4414 142.047 89.2872 141.233 90.3354 141.221C91.3718 141.21 92.2175 141.988 92.2175 142.98Z" fill="#CCB29E"/>
<path d="M93.5889 137.905C93.3507 138.141 91.957 137.032 89.932 136.961C87.9069 136.855 86.3703 137.834 86.1678 137.587C86.0606 137.469 86.3226 137.044 86.9897 136.595C87.6449 136.159 88.7527 135.746 90.0153 135.793C91.278 135.852 92.3263 136.347 92.9219 136.843C93.5294 137.339 93.72 137.787 93.6008 137.893L93.5889 137.905Z" fill="#CCB29E"/>
<path d="M74.0183 142.532C74.0183 143.523 73.1725 144.338 72.1243 144.349C71.0879 144.361 70.2422 143.582 70.2422 142.591C70.2422 141.6 71.0879 140.785 72.1362 140.774C73.1725 140.762 74.0183 141.541 74.0183 142.532Z" fill="#CCB29E"/>
<path d="M74.302 137.422C74.0519 137.658 72.6701 136.549 70.6331 136.478C68.6081 136.372 67.0714 137.351 66.8689 137.104C66.7617 136.986 67.0238 136.561 67.6909 136.112C68.346 135.676 69.4538 135.263 70.7165 135.31C71.9792 135.369 73.0274 135.864 73.623 136.36C74.2306 136.856 74.4211 137.304 74.302 137.41V137.422Z" fill="#CCB29E"/>
<path d="M80.4042 152.716C80.4042 152.598 81.6669 152.433 83.7277 152.256C84.2518 152.221 84.7402 152.138 84.8474 151.796C84.9784 151.43 84.7878 150.863 84.5615 150.262C84.1208 148.999 83.6681 147.677 83.1797 146.296C81.2738 140.644 79.9039 136.006 80.1422 135.935C80.3685 135.864 82.1076 140.384 84.0255 146.037C84.4781 147.429 84.9189 148.763 85.3358 150.026C85.5145 150.616 85.8242 151.288 85.5264 152.055C85.3715 152.433 84.9784 152.693 84.6449 152.775C84.3114 152.858 84.0135 152.858 83.7634 152.858C81.7026 152.893 80.428 152.858 80.4161 152.74L80.4042 152.716Z" fill="#CCB29E"/>
<path d="M80.8671 176.579C80.8671 176.579 70.9444 176.827 61.3672 170.62C61.3672 170.62 65.9295 180.899 80.7123 180.108L80.879 176.591L80.8671 176.579Z" fill="#CCB29E"/>
<path d="M77.498 160.009C77.498 160.009 84.0139 163.349 89.8865 160.009Z" fill="#CCB29E"/>
<path d="M74.2063 131.45C73.98 131.993 71.9669 131.651 69.5726 131.84C67.1782 131.981 65.2247 132.607 64.9269 132.099C64.7958 131.863 65.1532 131.356 65.9513 130.86C66.7375 130.365 67.9883 129.904 69.4296 129.798C70.871 129.704 72.1694 129.975 73.0151 130.353C73.8728 130.73 74.3016 131.179 74.2063 131.439V131.45Z" fill="#263238"/>
<path d="M93.3493 129.09C92.98 129.538 91.5982 129.007 89.9067 128.913C88.2271 128.771 86.7858 129.102 86.4761 128.606C86.345 128.37 86.5833 127.922 87.2265 127.509C87.8579 127.096 88.8942 126.789 90.0497 126.871C91.2051 126.954 92.1938 127.402 92.7537 127.898C93.3255 128.394 93.5041 128.866 93.3374 129.09H93.3493Z" fill="#263238"/>
<path d="M45.0695 121.279C47.9403 112.912 60.4956 101.512 69.3819 102.303L83.4261 111.024C82.4732 115.803 78.6494 119.91 73.9085 121.232C71.3831 121.94 68.3456 122.093 66.8089 124.194C65.2365 126.354 66.0704 129.552 64.6052 131.77C62.5801 134.851 57.1959 134.603 55.6593 137.954C54.9803 139.418 55.29 141.188 54.5872 142.639C53.6581 144.575 48.6193 146.947 46.5704 146.262C44.5216 145.578 44.5811 142.097 43.9498 140.256C42.8658 137.116 43.3661 135.511 43.783 133.777C44.7598 129.67 43.7116 125.256 45.0814 121.267L45.0695 121.279Z" fill="#34404F"/>
<path d="M52.6089 148.114C52.6447 147.028 51.4773 144.42 50.4052 144.207C47.5344 143.653 42.317 143.676 41.9834 150.946C41.5308 160.883 51.6917 159.289 51.7274 159.006C51.7513 158.782 52.4779 151.866 52.6089 148.114Z" fill="#F7E2CA"/>
<path d="M48.8339 155.1C48.8339 155.1 48.6552 155.219 48.3574 155.337C48.0596 155.455 47.5593 155.525 47.0471 155.301C46.0107 154.864 45.1888 153.165 45.2245 151.371C45.2365 150.463 45.4747 149.613 45.832 148.917C46.1656 148.209 46.6659 147.713 47.2019 147.642C47.738 147.548 48.0953 147.878 48.2144 148.161C48.3336 148.445 48.2621 148.645 48.3217 148.657C48.3455 148.681 48.548 148.504 48.4765 148.091C48.4408 147.89 48.3336 147.654 48.1072 147.453C47.8809 147.253 47.5236 147.135 47.1543 147.158C46.38 147.182 45.6534 147.855 45.2603 148.622C44.8314 149.389 44.5456 150.345 44.5336 151.36C44.5098 153.366 45.4509 155.289 46.8803 155.761C47.5712 155.974 48.1787 155.797 48.4884 155.573C48.81 155.337 48.8696 155.124 48.8339 155.1Z" fill="#CCB29E"/>
<path d="M42.9418 119.614C42.9775 116.511 39.0585 114.469 35.9971 113.773C32.9357 113.065 29.7076 113.985 26.9559 115.484C25.3478 116.357 23.7278 117.596 23.3704 119.39C23.013 121.172 24.7403 123.296 26.4556 122.659C23.1679 123.78 21.4883 128.135 23.2036 131.132C24.919 134.13 29.5527 134.956 32.2091 132.737C31.3514 135.582 29.4813 138.119 26.9917 139.795C32.1495 140.526 37.6291 138.343 40.8453 134.272C44.0615 130.212 44.8835 124.418 42.9299 119.626L42.9418 119.614Z" fill="#34404F"/>
<path d="M35.9895 135.415C35.918 135.415 35.644 134.294 35.6202 132.43C35.5845 130.565 35.8585 127.969 36.7757 125.254C37.7048 122.552 39.0628 120.31 40.2421 118.846C41.4095 117.383 42.3148 116.64 42.3624 116.699C42.553 116.828 39.1819 120.133 37.407 125.455C35.5607 130.766 36.2277 135.404 36.0014 135.404L35.9895 135.415Z" fill="#E3AC28"/>
<path d="M80.5373 108.933C81.4545 112.981 87.6726 118.162 90.3885 121.312C95.5821 127.319 96.6066 129.314 96.5589 142.755C99.0128 138.117 100.895 133.574 100.704 128.334C100.514 123.094 98.5721 117.855 94.8913 114.09C91.2224 110.325 85.7667 108.189 80.5254 108.933" fill="#34404F"/>
<path d="M123.077 219.488C123.077 219.488 112.272 201.633 109.271 198.022C106.459 194.635 102.838 192.64 100.42 191.59C99.0739 191.012 97.6564 190.61 96.215 190.362L80.6698 186.952C80.6698 186.952 80.646 197.467 69.5202 198.116C58.4063 198.765 49.0435 183.423 49.0435 183.423C49.0435 183.423 31.0802 186.173 26.78 188.368C22.4798 190.563 15.7257 193.336 12.0091 211.782L9.40039 229.814L40.3716 232.646L43.3377 278.235L58.6922 288.832C58.6922 288.832 101.278 299.796 103.994 300.527C106.709 301.247 107.615 232.646 107.615 232.646C107.615 232.646 118.55 225.637 123.077 219.5V219.488Z" fill="#E3AC28"/>
<path d="M102.682 211.829C102.682 211.829 102.932 212.278 103.277 213.139C103.635 214.001 104.087 215.263 104.587 216.845C105.6 220.007 106.708 224.48 107.327 229.519C107.947 234.558 107.959 239.161 107.756 242.477C107.649 244.129 107.53 245.475 107.387 246.383C107.256 247.304 107.172 247.811 107.125 247.799C107.077 247.799 107.089 247.28 107.149 246.36C107.208 245.439 107.268 244.106 107.315 242.454C107.411 239.161 107.315 234.594 106.72 229.59C106.1 224.598 105.064 220.149 104.171 216.963C103.73 215.37 103.337 214.095 103.051 213.21C102.777 212.325 102.646 211.829 102.682 211.817V211.829Z" fill="#455A64"/>
<path d="M101.373 286.508L43.064 273.928L40.3719 232.635L14.4395 230.263C14.4395 230.263 15.4043 258.492 16.393 266.883C17.8225 278.955 25.0292 295.418 29.2461 298.711C33.4629 302.003 103.994 300.516 103.994 300.516L101.373 286.496V286.508Z" fill="#F7E2CA"/>
<path d="M134.462 293.989C134.057 294.791 133.199 295.323 132.294 295.24C132.115 295.228 131.925 295.193 131.734 295.122C130.448 294.709 130.567 292.113 130.567 292.113L124.384 291.109C124.384 291.109 116.344 296.243 113.485 299.642C110.626 303.041 103.336 300.291 103.336 300.291L100.811 287.239L112.187 277.042C112.187 277.042 111.484 277.644 112.27 275.744C113.056 273.832 116.63 274.564 116.63 274.564C117.19 273.62 119.524 273.29 119.524 273.29L129.507 274.434C131.567 274.67 133.402 275.815 134.51 277.55L138.726 284.17C138.726 284.17 140.954 288.938 140.597 290.047C140.061 291.723 138.274 291.345 138.274 291.345C138.274 291.345 137.785 294.473 136.952 294.591C136.118 294.697 134.486 294.001 134.486 294.001L134.462 293.989Z" fill="#F7E2CA"/>
<path d="M113.229 284.62C113.229 284.726 114.563 284.596 116.695 284.69C118.815 284.797 121.758 285.162 124.843 286.201C126.379 286.708 127.797 287.334 129.036 287.983C130.239 288.656 131.502 289.21 131.883 290.084C132.073 290.508 131.99 290.945 131.776 291.264C131.561 291.582 131.275 291.795 131.025 291.889C130.501 292.102 130.167 291.96 130.156 292.019C130.132 292.031 130.465 292.29 131.109 292.125C131.418 292.043 131.776 291.83 132.073 291.464C132.371 291.11 132.538 290.485 132.312 289.918C132.097 289.34 131.597 288.892 131.073 288.526C130.525 288.172 129.965 287.818 129.322 287.475C128.071 286.779 126.618 286.13 125.045 285.611C121.901 284.549 118.875 284.242 116.707 284.254C114.539 284.277 113.217 284.561 113.229 284.631V284.62Z" fill="#EB996E"/>
<path d="M112.535 290.921C112.535 291.11 116.609 290.945 121.6 291.228C126.591 291.5 130.606 292.125 130.641 291.936C130.653 291.854 129.665 291.594 128.045 291.311C126.425 291.027 124.161 290.744 121.636 290.603C119.122 290.461 116.835 290.496 115.192 290.603C113.548 290.697 112.535 290.85 112.535 290.933V290.921Z" fill="#EB996E"/>
<path d="M134.406 293.741C134.406 293.741 134.489 293.376 134.537 292.691C134.573 292.007 134.62 291.027 134.537 289.8C134.489 289.186 134.43 288.514 134.263 287.794C134.108 287.074 133.763 286.307 133.286 285.634C132.393 284.289 131.142 282.884 129.546 281.846C127.962 280.807 126.377 279.934 124.769 279.462C123.173 278.99 121.684 278.872 120.457 278.813C119.218 278.766 118.23 278.801 117.539 278.813C116.848 278.837 116.479 278.872 116.479 278.919C116.479 279.025 118.003 279.073 120.433 279.25C121.648 279.356 123.09 279.521 124.591 280.005C126.091 280.477 127.64 281.362 129.177 282.353C130.713 283.368 131.881 284.655 132.798 285.953C133.763 287.204 133.942 288.632 134.096 289.824C134.335 292.219 134.275 293.742 134.418 293.73L134.406 293.741Z" fill="#EB996E"/>
<path d="M119.998 275.817C119.998 275.911 121.487 275.947 123.869 276.218C126.168 276.572 129.837 276.737 131.934 279.865C134.197 282.721 136.127 285.411 136.973 287.618C137.866 289.813 137.783 291.336 137.914 291.324C137.949 291.324 138.009 290.946 137.973 290.273C137.949 289.601 137.795 288.61 137.39 287.465C136.627 285.128 134.709 282.343 132.434 279.475C131.85 278.755 131.219 278.071 130.493 277.528C129.766 276.973 128.92 276.655 128.146 276.431C126.573 275.994 125.12 275.864 123.917 275.77C121.499 275.604 119.998 275.734 119.998 275.805V275.817Z" fill="#EB996E"/>
<path d="M115.667 297.554C115.667 297.554 115.881 297.412 116.262 297.105C116.691 296.763 117.239 296.326 117.93 295.772C119.407 294.639 121.599 293.034 124.482 291.299L124.339 291.323C126.185 291.63 128.258 291.984 130.509 292.361L130.295 292.102C130.283 292.597 130.307 293.093 130.414 293.6C130.521 294.096 130.676 294.639 131.117 295.076C131.343 295.288 131.665 295.418 131.939 295.453C132.213 295.524 132.51 295.548 132.808 295.5C133.392 295.418 133.952 295.111 134.345 294.663C134.44 294.556 134.535 294.426 134.619 294.297L134.678 294.202L134.702 294.155V294.131H134.714C134.798 294.096 134.023 294.379 134.357 294.261H134.369L134.559 294.344C134.821 294.45 135.083 294.544 135.357 294.627C135.631 294.71 135.905 294.781 136.203 294.84C136.346 294.863 136.501 294.887 136.668 294.887C136.823 294.887 137.001 294.887 137.239 294.781C137.585 294.533 137.716 294.249 137.847 293.966C137.966 293.683 138.073 293.412 138.157 293.128C138.323 292.562 138.454 291.995 138.55 291.394L138.192 291.641C138.991 291.783 139.943 291.594 140.491 290.862C140.742 290.52 140.944 290.107 140.92 289.635C140.896 289.21 140.801 288.833 140.706 288.455C140.277 286.956 139.658 285.517 139.002 284.053L138.991 284.018C138.276 282.897 137.513 281.693 136.739 280.489C136.263 279.734 135.786 278.99 135.31 278.247C134.833 277.527 134.416 276.725 133.749 276.076C133.106 275.438 132.344 274.931 131.51 274.6C130.688 274.246 129.771 274.164 128.961 274.081C125.649 273.715 122.504 273.361 119.55 273.031H119.514H119.479C118.895 273.125 118.359 273.267 117.835 273.456C117.323 273.668 116.775 273.892 116.405 274.447L116.751 274.341C115.691 273.916 114.476 273.904 113.547 274.518C112.617 275.12 112.189 276.099 111.962 277.02L112.034 276.89C108.77 279.805 106.102 282.177 104.196 283.876C103.314 284.679 102.611 285.316 102.087 285.8C101.611 286.248 101.361 286.484 101.384 286.508C101.396 286.52 101.67 286.319 102.182 285.906C102.73 285.446 103.469 284.832 104.374 284.077C106.316 282.413 109.032 280.1 112.355 277.244L112.415 277.197L112.439 277.114C112.653 276.3 113.07 275.415 113.832 274.943C114.583 274.447 115.655 274.459 116.536 274.825L116.751 274.919L116.882 274.718C117.096 274.388 117.573 274.14 118.049 273.963C118.526 273.786 119.062 273.656 119.586 273.574H119.514C122.457 273.916 125.613 274.282 128.913 274.671C129.759 274.766 130.545 274.836 131.295 275.167C132.046 275.462 132.737 275.922 133.32 276.5C133.904 277.067 134.309 277.822 134.798 278.566C135.274 279.309 135.739 280.053 136.227 280.808C137.001 282.012 137.764 283.215 138.478 284.336L138.454 284.301C139.11 285.729 139.717 287.169 140.134 288.597C140.229 288.951 140.325 289.317 140.337 289.635C140.372 289.918 140.229 290.225 140.039 290.473C139.681 290.981 138.955 291.134 138.347 291.04L138.038 290.992L137.99 291.287C137.895 291.842 137.776 292.408 137.621 292.94C137.478 293.447 137.251 294.061 136.977 294.261C136.965 294.261 136.858 294.297 136.727 294.285C136.608 294.285 136.477 294.261 136.346 294.25C136.084 294.202 135.834 294.143 135.572 294.061C135.31 293.978 135.06 293.895 134.809 293.801L134.631 293.73C134.952 293.612 134.19 293.895 134.261 293.86V293.884L134.238 293.919L134.19 294.002C134.13 294.096 134.059 294.202 133.976 294.285C133.666 294.639 133.237 294.887 132.784 294.958C132.558 294.993 132.332 294.981 132.105 294.922C131.855 294.887 131.7 294.816 131.546 294.686C130.962 294.084 130.878 292.999 130.867 292.125V291.901L130.652 291.866C128.401 291.512 126.316 291.193 124.47 290.91H124.386L124.327 290.933C121.432 292.739 119.276 294.403 117.847 295.583C117.132 296.185 116.596 296.669 116.239 296.999C115.881 297.341 115.715 297.518 115.726 297.53L115.667 297.554Z" fill="#EB996E"/>
<path d="M210.121 256.036L133.313 256.65C130.823 256.65 128.441 257.83 128.071 260.273L119.673 315.727H80.1137C78.8391 315.727 77.8027 316.754 77.8027 318.016C77.8027 319.279 78.8391 320.306 80.1137 320.306H206.464L215.1 261.772C215.565 258.75 213.206 256.036 210.121 256.036Z" fill="#E0E0E0"/>
<path d="M210.118 256.037C210.118 256.037 210.535 255.989 211.333 256.155C212.107 256.332 213.31 256.804 214.263 258.078C214.74 258.704 215.097 259.542 215.216 260.509C215.347 261.489 215.061 262.527 214.93 263.637C214.609 265.879 214.239 268.463 213.822 271.355C212.131 282.979 209.701 299.737 206.699 320.342L206.675 320.542H206.473C173.774 320.566 130.808 320.59 83.8864 320.613H80.5868C80.0745 320.637 79.3717 320.613 78.8357 320.283C78.2877 319.988 77.8708 319.492 77.6564 318.914C77.1918 317.757 77.7517 316.329 78.8476 315.751C79.3717 315.432 80.0745 315.409 80.5748 315.432H82.1949C86.5189 315.432 90.8073 315.432 95.036 315.432C103.494 315.432 111.725 315.432 119.67 315.432L119.372 315.68C122.398 295.819 125.209 277.291 127.746 260.663C127.83 259.612 128.318 258.468 129.164 257.76C129.998 257.028 131.058 256.638 132.106 256.473C133.178 256.308 134.191 256.402 135.203 256.367C136.216 256.367 137.216 256.355 138.217 256.343C142.207 256.32 146.067 256.296 149.784 256.261C157.217 256.214 164.09 256.166 170.332 256.131C182.804 256.072 192.738 256.013 199.588 255.978C202.994 255.978 205.615 255.978 207.414 255.966C208.295 255.966 208.962 255.966 209.439 255.966C209.891 255.966 210.13 255.989 210.13 255.989C210.13 255.989 209.903 256.013 209.439 256.025C208.962 256.025 208.295 256.048 207.414 256.072C205.615 256.096 202.982 256.131 199.588 256.178C192.738 256.249 182.804 256.367 170.332 256.497C164.09 256.556 157.217 256.627 149.784 256.697C146.067 256.733 142.207 256.768 138.217 256.804C137.216 256.804 136.216 256.827 135.203 256.827C134.191 256.863 133.154 256.78 132.178 256.933C131.201 257.087 130.236 257.453 129.497 258.102C128.747 258.751 128.342 259.66 128.247 260.698C125.745 277.326 122.958 295.854 119.956 315.727L119.92 315.975H119.658C111.725 315.975 103.482 315.975 95.0241 315.975C90.7953 315.975 86.5189 315.975 82.183 315.975H80.5629C79.9912 315.963 79.5623 315.975 79.1335 316.223C78.2877 316.66 77.8708 317.745 78.2282 318.631C78.395 319.067 78.7166 319.457 79.1335 319.681C79.5623 319.929 79.9912 319.952 80.5748 319.929C81.6707 319.929 82.7667 319.929 83.8745 319.929C130.796 319.952 173.762 319.988 206.461 319.999L206.223 320.2C209.308 299.607 211.809 282.861 213.548 271.248C213.989 268.345 214.382 265.773 214.716 263.53C214.847 262.409 215.145 261.383 215.026 260.45C214.93 259.518 214.585 258.704 214.132 258.09C213.227 256.827 212.048 256.343 211.297 256.155C210.523 255.966 210.106 256.001 210.106 255.978L210.118 256.037Z" fill="#263238"/>
<path d="M168.461 292.232C171.119 292.232 173.273 290.098 173.273 287.465C173.273 284.831 171.119 282.697 168.461 282.697C165.803 282.697 163.648 284.831 163.648 287.465C163.648 290.098 165.803 292.232 168.461 292.232Z" fill="white"/>
<path d="M122.789 319.8C122.896 319.824 125.338 305.697 128.245 288.267C131.151 270.825 133.414 256.675 133.307 256.663C133.2 256.64 130.758 270.766 127.851 288.208C124.945 305.638 122.682 319.788 122.789 319.812V319.8Z" fill="#263238"/>
</svg>
