<svg width="34" height="32" viewBox="0 0 34 32" fill="none" xmlns="http://www.w3.org/2000/svg">
<path d="M28.5357 0H5.46429C4.01556 0.00162882 2.62663 0.585661 1.60223 1.62396C0.577823 2.66226 0.00160702 4.07003 0 5.5384V20.3075C0.00160702 21.7759 0.577823 23.1836 1.60223 24.2219C2.62663 25.2602 4.01556 25.8443 5.46429 25.8459H7.28571V30.7689C7.28565 31.0029 7.35141 31.2321 7.47529 31.4296C7.59917 31.6271 7.77602 31.7847 7.98512 31.8839C8.19422 31.9831 8.4269 32.0199 8.65587 31.9898C8.88484 31.9598 9.10062 31.8642 9.2779 31.7143L16.2213 25.8459H28.5357C29.9844 25.8443 31.3734 25.2602 32.3978 24.2219C33.4222 23.1836 33.9984 21.7759 34 20.3075V5.5384C33.9984 4.07003 33.4222 2.66226 32.3978 1.62396C31.3734 0.585661 29.9844 0.00162882 28.5357 0ZM9.71429 15.3845C9.23396 15.3845 8.76442 15.2401 8.36504 14.9696C7.96567 14.6991 7.65439 14.3147 7.47058 13.8649C7.28677 13.4151 7.23867 12.9202 7.33238 12.4427C7.42609 11.9652 7.65739 11.5266 7.99703 11.1824C8.33667 10.8381 8.7694 10.6037 9.24049 10.5087C9.71159 10.4137 10.1999 10.4625 10.6437 10.6488C11.0874 10.8351 11.4667 11.1506 11.7336 11.5554C12.0004 11.9602 12.1429 12.4361 12.1429 12.9229C12.1429 13.5758 11.887 14.2019 11.4315 14.6635C10.9761 15.1251 10.3584 15.3845 9.71429 15.3845ZM17 15.3845C16.5197 15.3845 16.0501 15.2401 15.6508 14.9696C15.2514 14.6991 14.9401 14.3147 14.7563 13.8649C14.5725 13.4151 14.5244 12.9202 14.6181 12.4427C14.7118 11.9652 14.9431 11.5266 15.2827 11.1824C15.6224 10.8381 16.0551 10.6037 16.5262 10.5087C16.9973 10.4137 17.4856 10.4625 17.9294 10.6488C18.3731 10.8351 18.7524 11.1506 19.0193 11.5554C19.2861 11.9602 19.4286 12.4361 19.4286 12.9229C19.4286 13.5758 19.1727 14.2019 18.7173 14.6635C18.2618 15.1251 17.6441 15.3845 17 15.3845ZM24.2857 15.3845C23.8054 15.3845 23.3358 15.2401 22.9365 14.9696C22.5371 14.6991 22.2258 14.3147 22.042 13.8649C21.8582 13.4151 21.8101 12.9202 21.9038 12.4427C21.9975 11.9652 22.2288 11.5266 22.5685 11.1824C22.9081 10.8381 23.3408 10.6037 23.8119 10.5087C24.283 10.4137 24.7713 10.4625 25.2151 10.6488C25.6589 10.8351 26.0381 11.1506 26.305 11.5554C26.5719 11.9602 26.7143 12.4361 26.7143 12.9229C26.7143 13.5758 26.4584 14.2019 26.003 14.6635C25.5475 15.1251 24.9298 15.3845 24.2857 15.3845Z" fill="#405768"/>
</svg>
