<svg width="30" height="33" viewBox="0 0 30 33" fill="none" xmlns="http://www.w3.org/2000/svg">
<path d="M5.8514 1.99353C6.05356 1.75225 6.15306 1.44132 6.12855 1.1275C6.10403 0.813678 5.95744 0.521977 5.72026 0.31502C5.48308 0.108064 5.17421 0.00234995 4.85996 0.0205735C4.5457 0.038797 4.25112 0.179505 4.03945 0.412491L1.96774 2.78566C0.792994 4.1319 0.128917 5.84828 0.0916561 7.63462L0.000257117 11.9945C-0.0063346 12.3135 0.114048 12.622 0.334922 12.8522C0.555795 13.0824 0.859068 13.2154 1.17802 13.222C1.49698 13.2286 1.80549 13.1082 2.03568 12.8873C2.26588 12.6665 2.3989 12.3632 2.4055 12.0442L2.49529 7.68593C2.52102 6.46363 2.97566 5.28929 3.77969 4.36831L5.8514 1.99353Z" fill="#405768"/>
<path fill-rule="evenodd" clip-rule="evenodd" d="M5.54602 10.471C5.6537 8.75544 6.41113 7.14545 7.66411 5.96873C8.91708 4.79202 10.5714 4.13705 12.2903 4.13717H13.1834V2.93455C13.1834 2.50927 13.3524 2.10142 13.6531 1.80071C13.9538 1.49999 14.3617 1.33105 14.7869 1.33105C15.2122 1.33105 15.6201 1.49999 15.9208 1.80071C16.2215 2.10142 16.3904 2.50927 16.3904 2.93455V4.13717H17.2836C19.0025 4.13705 20.6568 4.79202 21.9098 5.96873C23.1628 7.14545 23.9202 8.75544 24.0279 10.471L24.3822 16.1377C24.5173 18.2983 25.2428 20.3805 26.4796 22.1572C26.7352 22.5245 26.8913 22.9517 26.9328 23.3972C26.9744 23.8427 26.9 24.2914 26.7167 24.6996C26.5335 25.1079 26.2478 25.4617 25.8873 25.7268C25.5269 25.9919 25.1039 26.1592 24.6596 26.2124L19.1965 26.8667V28.5904C19.1965 29.7599 18.732 30.8815 17.905 31.7085C17.078 32.5354 15.9564 33 14.7869 33C13.6174 33 12.4958 32.5354 11.6689 31.7085C10.8419 30.8815 10.3773 29.7599 10.3773 28.5904V26.8667L4.91424 26.2108C4.47022 26.1575 4.04756 25.9902 3.68732 25.7252C3.32708 25.4602 3.0415 25.1065 2.85833 24.6985C2.67515 24.2905 2.60062 23.8421 2.64196 23.3968C2.68331 22.9515 2.83913 22.5245 3.09428 22.1572C4.33105 20.3804 5.05651 18.2983 5.19164 16.1377L5.54602 10.471ZM12.7826 28.5904C12.7826 29.122 12.9938 29.6318 13.3696 30.0077C13.7455 30.3836 14.2554 30.5948 14.7869 30.5948C15.3185 30.5948 15.8284 30.3836 16.2042 30.0077C16.5801 29.6318 16.7913 29.122 16.7913 28.5904V27.3878H12.7826V28.5904Z" fill="#405768"/>
<path d="M23.8356 0.296308C23.5954 0.506002 23.4483 0.802516 23.4266 1.12065C23.405 1.43879 23.5105 1.7525 23.7201 1.9928L25.7918 4.36597C26.5957 5.2876 27.0497 6.46255 27.0746 7.6852L27.166 12.0419C27.1693 12.1998 27.2036 12.3556 27.2671 12.5002C27.3305 12.6449 27.4219 12.7756 27.5359 12.885C27.6498 12.9944 27.7842 13.0802 27.9314 13.1376C28.0786 13.195 28.2356 13.2229 28.3935 13.2197C28.5514 13.2164 28.7072 13.1821 28.8518 13.1186C28.9965 13.0551 29.1272 12.9638 29.2366 12.8498C29.346 12.7359 29.4318 12.6015 29.4892 12.4543C29.5467 12.3071 29.5745 12.1501 29.5713 11.9922L29.4799 7.63389C29.4426 5.84755 28.7785 4.13117 27.6038 2.78493L25.5321 0.411759C25.3224 0.171537 25.0259 0.0244275 24.7077 0.00277747C24.3896 -0.0188725 24.0759 0.0867093 23.8356 0.296308Z" fill="#405768"/>
</svg>
