<svg width="146" height="136" viewBox="0 0 146 136" fill="none" xmlns="http://www.w3.org/2000/svg">
<rect width="146" height="136" fill="#D6D6D6"/>
<path d="M91.619 97.0476H42.9524V48.381H74.2381V41.4286H42.9524C39.1286 41.4286 36 44.5571 36 48.381V97.0476C36 100.871 39.1286 104 42.9524 104H91.619C95.4429 104 98.5714 100.871 98.5714 97.0476V65.7619H91.619V97.0476ZM64.5395 86.0281L57.7262 77.8243L48.1667 90.0952H86.4048L74.099 73.7224L64.5395 86.0281ZM98.5714 41.4286V31H91.619V41.4286H81.1905C81.2252 41.4633 81.1905 48.381 81.1905 48.381H91.619V58.7748C91.6538 58.8095 98.5714 58.7748 98.5714 58.7748V48.381H109V41.4286H98.5714Z" fill="#ECE8E8"/>
</svg>
